/* XPM */
static char *aa78ae545bc54b639d965fb7c7e598915LjUVNL59ebQ4bvT[] = {
/* columns rows colors chars-per-pixel */
"64 64 224 2 ",
"   c #AF2F2E",
".  c #BD2E28",
"X  c #BD312E",
"o  c #B42F32",
"O  c #BC3134",
"+  c #BC3A3B",
"@  c #B63739",
"#  c #C22F2A",
"$  c #CB2B29",
"%  c #D42D2A",
"&  c #D82F2A",
"*  c #C5312D",
"=  c #CD322B",
"-  c #C33026",
";  c #D3352B",
":  c #DC3A2E",
">  c #DA322E",
",  c #CA2D30",
"<  c #C43434",
"1  c #CC3233",
"2  c #C63B3B",
"3  c #D33633",
"4  c #DD3B33",
"5  c #D93B35",
"6  c #E33C2E",
"7  c #EC3C2D",
"8  c #F33E2D",
"9  c #FA3D2E",
"0  c #E33C34",
"q  c #EB3D34",
"w  c #EA3E3A",
"e  c #E33B37",
"r  c #F53E33",
"t  c #FA3E33",
"y  c #F53E39",
"u  c #FB3E3A",
"i  c #F33737",
"p  c #BE453D",
"a  c #DC412D",
"s  c #C4463D",
"d  c #DB443B",
"f  c #DB4539",
"g  c #EC422E",
"h  c #F4422D",
"j  c #F9412D",
"k  c #E44234",
"l  c #ED4333",
"z  c #EB4834",
"x  c #E4443B",
"c  c #EC433B",
"v  c #E5493E",
"b  c #EC4A3C",
"n  c #F44134",
"m  c #FA4234",
"M  c #F3433A",
"N  c #F9423B",
"B  c #F24831",
"V  c #F5503D",
"C  c #E45338",
"Z  c #AF3A40",
"A  c #BC3A43",
"S  c #C43B46",
"D  c #D33E42",
"F  c #BC474A",
"G  c #BA4447",
"H  c #B94D53",
"J  c #BE5458",
"K  c #CD4A47",
"L  c #CC4B49",
"P  c #C54846",
"I  c #D24444",
"U  c #DC4443",
"Y  c #DC4B4C",
"T  c #D64B47",
"R  c #D9514B",
"E  c #C54855",
"W  c #C55557",
"Q  c #DD5553",
"!  c #D55852",
"~  c #DF5C54",
"^  c #D2575C",
"/  c #D95D5D",
"(  c #E34544",
")  c #E24A40",
"_  c #E34D4B",
"`  c #EB4841",
"'  c #F24D43",
"]  c #F24748",
"[  c #EB5243",
"{  c #E6524A",
"}  c #F2594C",
"|  c #F75549",
" . c #E65A56",
".. c #FF5E5A",
"X. c #F95A53",
"o. c #F3644D",
"O. c #F36251",
"+. c #F86355",
"@. c #FB655B",
"#. c #FC6A5C",
"$. c #F66A54",
"%. c #F9725F",
"&. c #EC6A5C",
"*. c #CE5962",
"=. c #D15E65",
"-. c #E35E63",
";. c #C9676B",
":. c #D8676A",
">. c #CB6771",
",. c #DA7177",
"<. c #D8767A",
"1. c #E46264",
"2. c #E36B6E",
"3. c #FD6B63",
"4. c #FF6E69",
"5. c #FE7364",
"6. c #FF776B",
"7. c #FF7B6B",
"8. c #FF7960",
"9. c #E37C7B",
"0. c #EA7676",
"q. c #FF7D72",
"w. c #F67A77",
"e. c #FE886C",
"r. c #ED817D",
"t. c #FF8575",
"y. c #FF847B",
"u. c #FF8B7A",
"i. c #F88F75",
"p. c #FE937C",
"a. c #DC7681",
"s. c #E27E84",
"d. c #DC8285",
"f. c #DF8891",
"g. c #EC848B",
"h. c #E48787",
"j. c #F38684",
"k. c #FF8683",
"l. c #FF8A82",
"z. c #F28C8B",
"x. c #FB8B8D",
"c. c #F48988",
"v. c #EB8C96",
"b. c #F28A94",
"n. c #E69599",
"m. c #EC9299",
"M. c #FF9196",
"N. c #FD969D",
"B. c #FF999B",
"V. c #F5979A",
"C. c #F6958F",
"Z. c #FFA194",
"A. c #EF9FA8",
"S. c #FB9BA3",
"D. c #F69AA6",
"F. c #FEA4A3",
"G. c #FFA6AE",
"H. c #F7A7AA",
"J. c #FFA6B2",
"K. c #FDAAB2",
"L. c #FCADBA",
"P. c #F5A9B4",
"I. c #FFB2B5",
"U. c #FFB4BA",
"Y. c #FFBABA",
"T. c #FFC0BC",
"R. c #FFBBC3",
"E. c #FFBEC9",
"W. c #FFB5C4",
"Q. c #FFC3C4",
"!. c #FFC4CB",
"~. c #FFC9CD",
"^. c #FFCFC6",
"/. c #FFCCD5",
"(. c #FDCEDA",
"). c #FBC9D6",
"_. c #FFD4D5",
"`. c #FFD4DB",
"'. c #FFDADD",
"]. c #FFD9D6",
"[. c #FFE0DE",
"{. c #F6D5E4",
"}. c #FCD5E6",
"|. c #F5DAE5",
" X c #FEDBE5",
".X c #FDD6E9",
"XX c #F6DEEC",
"oX c #FEDDEC",
"OX c #F7D7EF",
"+X c #F6DCF1",
"@X c #FEDEF2",
"#X c #FFDDF9",
"$X c #F5CFE6",
"%X c #F6E1E7",
"&X c #FDE2E5",
"*X c #F6E1EC",
"=X c #FAE2E9",
"-X c #FFE0EB",
";X c #FFE1EB",
":X c #FDE2EB",
">X c #FEE2E9",
",X c #F9E4EB",
"<X c #FAE3ED",
"1X c #F9E1EE",
"2X c #FBE0EF",
"3X c #FAE2EE",
"4X c #FFE0ED",
"5X c #FDE1EF",
"6X c #FFE0EF",
"7X c #FFE0EE",
"8X c #FDE2ED",
"9X c #FCE1EC",
"0X c #F6E3F1",
"qX c #F9E1F1",
"wX c #FDE1F0",
"eX c #FCE1F0",
"rX c #FFE0F0",
"tX c #FDE0F2",
"yX c #FEE1F2",
"uX c #FDE1F5",
"iX c #FCE2F2",
"pX c #FFE6F9",
"aX c #FEE2F9",
"sX c #FFE8F8",
/* pixels */
"@XrX7X7X,X,X7X,X7XrXrXeXeX3X3X;X:X&X>X&X&X:X>X>X>X>X>X>X;X7X;X>X&X[.&X&X%X&X;X&X>X>X&X&X%X;XoX@X#XuXrXrXrXrXrXuXqXqXqX@XXXoXoX>X",
"@XoXyX8X,X,X<X3X7XrXrXrXeX7X8X7X7X;X;X;X8X:X3X=X;X;XoX>X;X;X;X;X&X>X>X,X:X:X7X;X;X;X,X%X3X7X@X@XoXoXoXrXrXrXeXqXqXuXrXXX@X7X;X X",
"uXrX8X<X,X,X;X;X7X@X7X@X7X7X7X;XuX@XqXrXyXrXeX7XrXoXoX7X7X7X7X<X7X7XrXrXrXrXrXrX@XoX7XXX3XXX0X+X@XoXoXrXrXrXrXrXrXuX@X7X3XoX7X;X",
"rXrXrX8X<X:X;X>X7X7X@X7X7X;X7X7X@XuX@XuXsXrXuXrX@X@XoX7X7X7X,X7XoX@XrXrXuXrXrX@X@X@X@XuXeXeXeX*X7X7XoXoXoX7X7XrXrXrXrXXXXX7X3X7X",
"0XqXeX7X7X;X;XoXoX7XoX7XoX7XoXoXoX@XoX7X7X7XoXoXoX@XoXoX@X7X<X3XoXoX;X=X3X7XoX@X@X@X@XuXrXrXrX@X7X7XoX7X7X7X7XoX@X7XoX3XoXeXXXrX",
"0X0XrX7XoXoXoX7X7X3XrX@X@XoX7X;X;X;X;X7X7X7X7XoXoXoXoXoX7X7X;X>X;X X=X,X;XXXoXoX@XrXuXuXeXrXrX@XrXrX7X7X7X7XrXrX7XrX7XoX7XeXeXeX",
"0X0XrXoXoX X7X3X*X3X@X@X@XrXeX*X,X=X;X=X;X;X;X;XoX7X;XoX;X;X;X>X&X[.%X&X;X;X@XoXoX7XeX<X0X0X@X@XeXXXrXeXrXrXrXrX7X7X;XoXoX3XeXeX",
"0XuXrXoXoXoX;X,X0XeX@X@X@X@X0X0X,X,X=X=X;X;XoX=X=X3X=X=X;X XoX X[.%X&X=X3X@X@XoXoX;X,X*XeXrX@X@X@X*X3XeXeXqXqXrX7X7X7XoXoXoX3XeX",
"@XoX7X7X3X<X0XeXeX@X@X+X@XuXeX*XXXrXrXoXoXoXoX.X=X,X%X%X|.oXoX.X&X|.=XrXqXaX@X X7X;X|. X>X7X@X#X|.rXXXXXpXaX+X0X7X7X;XoX XoX7X7X",
"oXoX7X7X<XeX3X@XpX+XuXsXoX{.oX XoX X X}.}.}. X X X=X%X=X8X@XoX@XsXoX@X@X#XOX+X@X'.].].'.'.'..X.XoX.XoX7XqXqX0XqXrX=X7X X;X;XoX7X",
"@XoX7X<X7X<XoX@X@X@X3XXX XoX X(.E.J.V.g.s.b.S.U.~.'.&X|.;XrX#X@X#X.X@X+X@XuX.X!.Y.Z.z.r.h.m.G.R./. X XoX@XpXpXXX*XXX7X;X;XoXoX@X",
"oX7X7X7X7X@X@X@X@XuX*X X>X_.J.c./ R I K D D + F ;.n.R. XrX@X+XaX@X@X@XrX X/.J.9.^ L s p p p P E <.H./..X.X@XeXeXeX3X;XoXoX7XoXoX",
"rXrX7XrXrX@X@X@XyX>X>X XQ.V.1.T d x k c c k k 5 X G ;.H.`.rX@XqXuX X>X].Y.c.-.d ` x w ( ( f a s o W h.U. X.X.XsXXX=X X;X;XoXoXrX",
"eX3X7XrX@XrX@X@X7X X XQ.9.! _ 4 x k z n q n r q k 1 o J n._.rX XXX7X`.K.0.T a C c M y i M l l : 3 X @ ;.W.oX@X.XoX3X*X;X;X3XeX@X",
"0XeX3X@XrXrX0X7X X X!.x.! d b [ @.3.3.} b l t u i i 5 O J n._.&X;X XI.2.f a C o.8.8.@.] i u ] n q 4 < @ >.L. XoXoX3X;X3X3X3XeXqX",
"XXrX@X@XuX0X0X8X X'.M.Y U b [ 6.y.l.k.6.} l 8 t u i w ,   W H._.'.T.w.Y c V $.e.i.u.6.X.y u u 7 r 7 4 X Z h.(. XoXoXXX*X3XeXeX@X",
"=X3X@X#XuX0X<X;X'.U. .) x } q.k.l.k.k.y.#.b 7 m m r M 5 2 @ :.T.^.j.Y ( ] ..t.u.i.p.q.X.y r n n r y 6 = < F A.oXoXoXrX3X%XoXoX@X",
"%X;X#X#XuXeX8X X`.M.{ l { 5.l.k.l.l.u.t.X.z 7 m r 8 M e 3 < T x.Z.&.( x ] 5.t.i.p.u.5.| y r b n t m 6 ; , + s.(..XoXXX%X=XXXoXoX",
"%X:XuX#XrX3X8X>X~.2.d k O.t.l.l.l.y.t.#.[ l r m 9 9 n c 5 * <  .3.) x ( @.u.u.u.t.5.X.u i n l l n n q : $ o ;.W..XoXoX3X X3XoXoX",
":X:XuX@XeX3X;X XR./ ) b $.y.l.l.l.q.+.{ l l m 9 m n M c x 3 - 5 ' c c b #.t.e.7.$.| N i t n l g 9 n l k , A Z W. XoX X3X=X;XoX@X",
"7X7X@X@XeX=X7X XG.Q x z 5.t.u.u.t.+.v k g n m j 9 r r n c 4 ; > q N l z } O.O.[ b l i t t m h l 8 n l k % < A A. X;X X=X=XoX7X@X",
"7X7XrX7X7X3XoX XN.Q k z 5.u.u.t.} b k z l n h 9 j t 9 n n q 0 0 r N l q z l z k r r r m m r 9 n r m n : & , A v. X>X;X;X;XXXoXXX",
"7X7X7X;X;X;X7X XN._ k k #.u.t.5.b l l m n n r t m n r n n l l n n 9 n r 9 n r n n r n n m j 9 t m n l g & , A b.'.=X;X;X7XoX@X@X",
"@XoX;X;X>X>XoX XN._ b z X.y.7.O.z r n n 8 8 m n t n r m n n n 9 n 7 m m t u 8 m r n l l n m t t u h n k > $ S b.'.>X X>X7XXX@XeX",
"rXoX3X3X>XoX;X XS._ c M ' q.6.[ l n r n n n n n y r N n n n t m n h r m t t t n r n n n n r r n m n 6 6 > , S D. X&X>X X7X7XrXuX",
"rXrX3X;X;X;XoX XG.{ c l ' 3.#.b r r r m r n n n n n n r t n n r n n h m t t t n M n M r r M n n n M n 4 , , E J.&X:X>X;X;X7XeX@X",
"7X7X3X7X;X7XoX XR.1.v q c | ' l n r n u y M M n n n M r n r n n n n r r t m n n n n r n n n l n r y c : $ < E W. X=X;X;X7X7XrX@X",
"7XoX3X3X;XoXoX X!.0.U c c n n l n u n n r M n n n M n r n 9 m n B l n t t r r n l N n r r M n M r r l ; # + >.!.oX7XoXoX;X7XXX7X",
"oX;XuX@X7X;X7XoX_.V.f v l n n n r N r y n n r n n n h n m r n n l n m r n m r n n l r n n n n n N n 0 = < p f.}.oX@XoXXXoX3XoXoX",
" XoX@X@XoXoXoXoX XY.! v n n m r n n n n r n n r n n n n n n n n n r h n t r n n n n n h n n n n u y 4 - O H P. X@X@XoXoX;X X7XoX",
">X X@X#XoX7X7X7X X~.r.v l h m r n c r n n n n m n h n t n r n n n n n n n h n h r m n j t n n t u q ; - 2 ,.~.oX@X#X+X3X X;XoX X",
" X>X@X@XoXoXrX*X%X XF.{ b 8 n m M r n M n n n h t 9 n n h m r t t t r n B n n n j n t r m r n r r q ; X F S.oXoX@X+X@X+X X;XoXXX",
";XoXoXoXoXoX@XXX=X X`.0.U M 8 m r n n n n n m n t t m n n r t u u t n n n g n h 9 n n l n n r u M % , + <.(. X0X@X@XoX.XoXXXXXXX",
"7XoX7XoXoX@XoX@X3XoX_.I.1.v n j m n n n l l n m 9 r 9 n n y t t t u r n h n h m n n l l n M r N 6 3 < E L.}.@XXX3XXXoXoXoXoX@X+X",
"oXoXoX7X;XoXoXoXoX.X[.].B.R c u u 9 n n M r i m n n n h n n n l n B n n n r t r r 9 n n n n r 0 = O A m._..XrXXX@XoXoXoXoXXX@XXX",
"@XoXoX7XoXoX@X@XrX.X,X].Q.r.Y M t j 9 n N N u r n n n h h n n n g h l l n m r u r n m m l l l 4 * @ ,.!.`.oXoXrXXXXXoXoXoXoX@X@X",
"@XoXoXoXeXoX@X@X@XoX X%X_.Y.2.( m j m l y u u u n z h g h h n n h h g g n n y u u 9 9 r B l 0 = + J Y.'. X XrX@XXX3XXX;XoXoX@X@X",
"@XoX@XoX X7X@X@X@X@XXX%X[.`.G.-.x 7 m M i r u r l l z B n h n h h h B n c M N r u m 9 n M 0 ; . H H.].&X X XrXoXoX7X;XoXoX@X@X@X",
"oX@XoXoXoX7X@XoX@X@X7X XoX`.`.N. .k l N u 8 m h l l g l g n t t h h n n n M l n r 9 t n c 3 # P n.`. X;X*XyXrX7XrX7X7X;XoX@XrX@X",
"rXoXoXoXoX7X7XoXXXuXXXeX X X X(.z. .x ] t t B g h l n B n n m 9 j j t n y c l l h m 8 i e # P h._. X X XsX*XrXrX7X7X;XoX7XoX3XeX",
"oXoX3XoXoXoX;XoX3XoXoXoXoXoXoX X~.z.Y w N t 8 h 7 n n m r r m r j 9 9 t m r g g B 7 r q , A d.~. XoXoX@X7XyXyXyX7XoXoXoXoX3X3X3X",
";X7X XoXoXoXoXoXoXXX@XoX@XoXoX.X X~.x.Y c m h j h n N u y r B M 9 t u t r h B l g l y 3 + <.Q. X7X@X@X@XrXyX<X<X7X;XoXoX7X7XXXeX",
"=X X%X=XoXoXoXoXoX=X3XXXoX.X@XoXoX;XQ.j.{ l j 9 8 t y u N M q n y u u t r n n q M e 1 + ,.R.8X8X0XrX@X.X@XrX0X7X;X;XoX@X7X3XrXeX",
";X=X,X3XoXoX.X.XoX3X3X*XoXoX.X#X@X.X'.Q.j.{ q u u u r y N N l n u y r n B h m n c 3 A <.R.;X;X*X0XeX@XoX@X7X<X7X7XoXoXoXoXrXeXrX",
"oXoX=X3X;XoXoXoXoXoX=X0X+XoX#X.X@XoX>X&XQ.j.Y ` ] u r l n n n M u y n l g g M c 1 A <.E.oX;XoXeXeXeX@XoXoX7X7X7XrXoXoXoXrXrX7XoX",
"oXoXXXXXoX7X@XoX@XoX X*X*XoXoXoXoX7X;X;X'.!.x.Q x z n B 7 l n M y N l g z n 0 = S s.E. X7X=X7XrXrXeX7XXXoX;XoX;XoX3XeX@X@XoXoXoX",
"oXoX@X@X0XeX@XoX.X.XoXXX*XXX@XoXoX XoXoX X;X!.z.~ v g m h 9 m l l M 7 8 m l 3 K h.E.oXXXeX0XoXrXrX7X3X%X7XoXoXoXrX*X+XXXoXoXoXoX",
"@XoXoX@XXX+X@X@XoXoXoXoX3XXXoXoXoXoXoX@X@XoX X_.C.~ x n h 8 m 8 l B r r l 3 L h.~. X7XrX+XeX@XoX7XoXXX3X7XoXoXoXXX@XXXoX@X@XoX.X",
"oXoXoX@XrXrXoXrXoXoXoX7XoXXXoXoXoXXX@X@X@XXX=X X`.V.2.U c n n h h n N w D ^ m._. X%X X7XoX+X@XoXoXoXoXoXoX@XoXoXoX.X XXXoX.XoX.X",
"oXoXoXoXoX7X7X7XoXoXoXoXoXoXoXoXeXoXoX@X@X7XXXXX;X`.K.0.T x m h h l 4 s *.D.}. X X*X X.XoX.XoX+XoXoXXXoXoXoXoXoX.XoX.X.XoXXXXX.X",
"oXoXoXoXoXrX7XoXoXoX7X7XoXoXoXXXXXoXoXoXoX@XoXoX X&X].I.r.{ w ] M x I :.L._.}..XoX.X.X.X.X.XoX.X.XoX.X.X.XoXXX.X.XXX.X.X.X}. X}.",
"7XoXoX@XrXoX7XrXoX@XoXoXoXoXoXoXoXoXXXoX@XoXoXoXoX].].[.Q.c.Q U U K 9.Y.`. X.X.X.X.X}. X XXX.X}..X{..X.X}.}. X.X.X.X{..X{.}.}.}.",
"oXoXoX7XoXoXrXoXoXoXoX7X7XoXoXoXoXoXoX=XoXoX@XoX.X7X X X].!.N.:.=.b.R.`.`.{.@X.X.X}. X{.{.{. X.X.X{.}.OX}.}.{..X.X.X.X}.}.}.}.{.",
"oX7XoX7XoXrXXX7XoX7XoXoXoXoXoXoX.XoX X=X3XXXoXoX|.7XXX{. X X).U.P./. X(.$X$X$X.X}.}.{.{.}.}.}.}.}. X}.}.}.}..X.X{.{..X$X.X{..X.X",
"oXoXoXoXoXoXoXoX7XoX7XoXoXoX XoX.X.XoX X%X*X*XXXrXoXoX@XoX X X XoX).(.XX$X.X.X$X{.|..X|.$X}..X.X}.}.}.}.}.}.}.}..X}.}.}.}.}..X.X",
"7XoX7XoXoX7X7XoX7XoXoXoX@XoXXXoXoXoXoXoX3X%X%XXXXX@X+XoXoXoXoXXX|.XX.X}..X.XOXoX|.|.|. X.X.X.X}.}.}.}..X$X}.}.$X}.{.}.{..X.X.X.X",
"oX7X7XoXoXoXoX7XoXoXoXrXXX7XoXoXXXXXoXoXoXoX=X=XeXXX@XoX@XoX3X3X*XXXoX.X.X#X.XoX XoX.X X}..X.XXX.X.X.X.X.X.X.X.X}.}..X.X.X.X.X.X",
"oXoXoXoX7X7XoXoXoX7XoX7XoXoXoXeX0XXXoXoXoXoX>X=X3XXXoXoX.XoXXX=X3XXXoX.X.X.XoX|..X.X.X.X.X.X.XXXoX.X.X.X.X.X.X.X}..X.X.X.X.X.X.X",
"7XoX7XoXXXoXoXoXoXoXoXoXoXoXoXeXXX0X7XoXoXoX;XoX X@XoXoX@XoXoXoXoX.XoXoX.X XXX.XoX.X.X.X.XoXoXXX.XoX.X.XoX.XoX.X.XoX.XoX.XoX.XoX",
"7XoXoXoXrXoXrXoX7XoX7XoX7X7XoXoX0X@X3X7XoX XoX>XXX XoXoXoX.X XoXoXoX.X.XoXoX.X X.X@X.X.X.X#XoXXXoX.XoXoX.XoX.XoX@X.XoX.XoX.XoX.X",
"oX7XoXoXoX7XoXoX7XoXoXoXoXrXoXoX@X@XoXXX3X X;X.XoXoXoXoXoXoX XoXoXoX.XoX XoX X X.X@XoX.X@XoX.X@XoX.XoXoXoXoX.X.X.XoXoXoXoX.XoXoX",
"oX@X7XoXoX7XoX7XXXoX7XoXoXoXoXoXoX@XoXXX%X=X;XoXoXoX.XoXoXoX XXXoXoXoXoXoX X.X.X.XoXoXoXoX@X.X.XoXoXoXoXoX.XoXoXoX@X.X.XoXoXoXoX",
"XX7XoXoXoXoXoX7XoXoXoX7XoX7XrXoXoXoXoXoX X%XXXXXoXoX@XoXoXoXoXXX XXX XXXoX XoX.XoXoX@XoX.XoX.XoX.XoXoXoXoXoXoXoX@XoXoXoXoXoXoXoX",
"oXoXoX7XoX7XoXoXoXrXoXrXoXoXoXoX@XoXoXXX%X XoX|.oXoX@XoXoXoXXX XXXXX XoXoXoX.XoXoX.X@X@X.XoXoX.XoXoX.XoXoX@XoXoXoXoXoXoXoXoX.XoX"
};
