/* XPM */
static char *b761ecad8d284403eb0664d82a0c520f3BtbkogloUf8aTw6[] = {
/* columns rows colors chars-per-pixel */
"64 64 245 2 ",
"   c #0D0804",
".  c #130D05",
"X  c #1C0C02",
"o  c #140A06",
"O  c #14120D",
"+  c #1B140D",
"@  c #1C1B0E",
"#  c #1A1508",
"$  c #0E1215",
"%  c #151615",
"&  c #1A1613",
"*  c #171911",
"=  c #1C1B14",
"-  c #16191C",
";  c #1C1C1B",
":  c #131618",
">  c #250C00",
",  c #241404",
"<  c #2A1505",
"1  c #221A0F",
"2  c #2C1B0B",
"3  c #2B1808",
"4  c #321A05",
"5  c #3C1A05",
"6  c #321C0C",
"7  c #361805",
"8  c #231C14",
"9  c #2A1D13",
"0  c #221E1A",
"q  c #2C1C1B",
"w  c #211715",
"e  c #331D13",
"r  c #321C1D",
"t  c #3C1E14",
"y  c #1E2014",
"u  c #1E211A",
"i  c #34220C",
"p  c #3C240D",
"a  c #3B2607",
"s  c #222216",
"d  c #2B2215",
"f  c #23221D",
"g  c #2B231C",
"h  c #2B291D",
"j  c #332213",
"k  c #3B2413",
"l  c #3D2A16",
"z  c #32251B",
"x  c #3D251B",
"c  c #33291D",
"v  c #3B2C1C",
"b  c #352817",
"n  c #3F321F",
"m  c #1D1E21",
"M  c #351E21",
"N  c #241F23",
"B  c #1E2225",
"V  c #1E252A",
"C  c #1F282D",
"Z  c #1A2824",
"A  c #1F2932",
"S  c #242423",
"D  c #2A2623",
"F  c #252926",
"G  c #2C2A25",
"H  c #23262A",
"J  c #24292C",
"K  c #2A2A29",
"L  c #2F2B28",
"P  c #2B2B2B",
"I  c #2B262A",
"U  c #352323",
"Y  c #392425",
"T  c #332B23",
"R  c #3A2E23",
"E  c #312D2A",
"W  c #332D2B",
"Q  c #3C2C2B",
"!  c #362728",
"~  c #2D302E",
"^  c #373024",
"/  c #3B3126",
"(  c #34322C",
")  c #3B332C",
"_  c #3C392D",
"`  c #232B32",
"'  c #2B2E31",
"]  c #332F32",
"[  c #2F3131",
"{  c #343332",
"}  c #3A3532",
"|  c #3C3934",
" . c #3D3D3A",
".. c #383938",
"X. c #471C03",
"o. c #41230D",
"O. c #4A250B",
"+. c #432A15",
"@. c #4C2D14",
"#. c #43251A",
"$. c #432D1C",
"%. c #4B2B1B",
"&. c #462516",
"*. c #532D1C",
"=. c #582D14",
"-. c #45321C",
";. c #4B321C",
":. c #493217",
">. c #5A311B",
",. c #533A1F",
"<. c #58361D",
"1. c #67341D",
"2. c #622B17",
"3. c #4C2D20",
"4. c #422D27",
"5. c #532D24",
"6. c #443324",
"7. c #4B3423",
"8. c #4C3925",
"9. c #42352B",
"0. c #4C362A",
"q. c #433B2D",
"w. c #4C3B2A",
"e. c #433826",
"r. c #5C3624",
"t. c #543B24",
"y. c #5B3C24",
"u. c #533D2C",
"i. c #5A3F2A",
"p. c #563526",
"a. c #433432",
"s. c #433A34",
"d. c #4A3E35",
"f. c #433C3A",
"g. c #483D3B",
"h. c #523C32",
"j. c #6B3D26",
"k. c #643C2C",
"l. c #653A27",
"z. c #743D27",
"x. c #6A3F31",
"c. c #3E403F",
"v. c #54422D",
"b. c #5B432C",
"n. c #5B4125",
"m. c #4C4134",
"M. c #44413D",
"N. c #4B433D",
"B. c #444034",
"V. c #534333",
"C. c #5C4935",
"Z. c #52463A",
"A. c #554B3E",
"S. c #5D4B3B",
"D. c #594634",
"F. c #4C412D",
"G. c #63442B",
"H. c #6B432C",
"J. c #64492F",
"K. c #6A4A2B",
"L. c #694625",
"P. c #744B2E",
"I. c #774629",
"U. c #644333",
"Y. c #6C4332",
"T. c #654B34",
"R. c #6C4C33",
"E. c #684D39",
"W. c #744634",
"Q. c #734B33",
"!. c #7C4C34",
"~. c #7B4D3C",
"^. c #764B39",
"/. c #6C533C",
"(. c #685136",
"). c #7D5335",
"_. c #73543C",
"`. c #7B533B",
"'. c #775738",
"]. c #423D41",
"[. c #3F4042",
"{. c #464442",
"}. c #4A4443",
"|. c #4B4944",
" X c #4B4B49",
".X c #534B43",
"XX c #584B44",
"oX c #5C5246",
"OX c #674D42",
"+X c #6A5645",
"@X c #675848",
"#X c #7B5846",
"$X c #744C42",
"%X c #786249",
"&X c #7C6956",
"*X c #6E6046",
"=X c #824A2D",
"-X c #844D36",
";X c #84553B",
":X c #8C553B",
">X c #845A3D",
",X c #8B5B3D",
"<X c #8A5536",
"1X c #925C3C",
"2X c #84572E",
"3X c #92603F",
"4X c #835543",
"5X c #8C5542",
"6X c #845A42",
"7X c #8C5B43",
"8X c #855C4B",
"9X c #8A5B4A",
"0X c #935C43",
"qX c #935C4A",
"wX c #935845",
"eX c #8E6242",
"rX c #8A644A",
"tX c #946244",
"yX c #9A6246",
"uX c #95634A",
"iX c #9B644C",
"pX c #95694E",
"aX c #9D6B4D",
"sX c #9A6941",
"dX c #8C6754",
"fX c #946351",
"gX c #9A6B52",
"hX c #986B58",
"jX c #9E7457",
"kX c #A26A4E",
"lX c #A06546",
"zX c #A26B53",
"xX c #A66E58",
"cX c #A3755B",
"vX c #AB7459",
"bX c #AE7A5C",
"nX c #A77355",
"mX c #B17B5C",
"MX c #A87664",
"NX c #B67E61",
"BX c #BE896A",
"VX c #BB8569",
"CX c #B2866E",
"ZX c #C28B6C",
"AX c #CB9275",
/* pixels */
"K I S S G K K K I G D D D D f & g W L I L ~ S : - ; B ; u ; ; - : $ $ $ : ; m - - N ; % & S K G h ( ; O 0 G F F D D E T I T I D ",
"K F K K L K G S F F D f D D 0 O G W W G L L f ; m ; - ; ; ; ; ; : $ $ : - - % : ; 0 ; & ; S G D F ~ s O = F f D D D G I E K K T ",
"K K K K P P G I D F F I G E 0 & G W W K P F S B u m u ; ; ; ; = * % O & ; & ; f ; = & ; 0 D D D D ( S % u D F D T T G G L L W W ",
"K K K K K K K K I D G G E G f & L W W W ( S ; S m u S u s ; = & . . O w w & = 0 = = = 0 f F D K G ~ D = f f D G G K E E ( W W W ",
"J K I P K I S S ; 0 S 0 0 S N 0 G ! K ( W S 0 S S f f 0 = = 8 1 9 d c 9./ g 8 + 1 1 w f f F D ~ G K F s 0 S F D S G G W W W ( W ",
"J ' ' P S S m - : ; & ; & ; S S D G K L P S 0 f F D s w + 1 g c w.u.h.V.w.e.R T 8 0 D D f s D L ~ F F f 0 ; ; u 0 0 D G L ( { { ",
"K J J S m ; : & ; : & % & - 0 S S S F D K S 0 D g g g 8 8 9 R w.v.b.b.7.6.7.6.6.z z h g s D F D F S S S ; ; & & ; ; w S I E { } ",
"' F N - : : & ; ; ; : ; - ; ; f f S f 0 F I 0 S 0 g h z z v w.v.i.G.J.b.t.u.7.v b R T 0 0 g D S f s u S f ; ; & ; & ; ; f I W } ",
"` V m : - m m B ; m ; ; & & - & ; S N ; S K K g 8 R / n F.C.v.C.R.L.K.b.G.T.v.-.b d d g s D T s ; u u ; ; ; ; ; ; 0 S f 0 S K } ",
"V m - m m m m m m N m m m ; ; - % ; % - S D T T g / e.6.w.v.n.T.G.L.K.K.G.b.b.;.b j j b g g G g s ; ; ; ; 0 ; 0 ; f S f S S K W ",
"m - m m S m m m S B S N N m m - - % % ; f 0 G W R e.V.7.;.n.n.K.K.L.G.G.n.J.b.t.$.v / c d 9 g s ; ; = ; ; f ; ; S f S S f F K K ",
"- m m B B B B B m S H F F S m m m - - ; 0 0 G Q Z.V.S.b.t.J.(.'.%XR.L.n.n.T.b.8.w.w.e.v g 9 9 s = ; ; ; ; S S f S S F F I I K G ",
"B m B V B B B B B H J ` J S S m m m - - ; g ( s.d.0.u.t.b.'.>XrXdX'.G.,.,.n.n.8.8.w.7.v z g d s & - u B u S S S S S S F G P K I ",
"V B B V H B B H S H J K ' I S m m B m - % 0 W q.z j p o.n.'.'.>X%X'.T.,.+.+.-.;.-.u.w.v v b 2 8 = B S S B S H F S F F K K P P K ",
"V V B V V B B V H J ` ' ' J H H B B N m ; & g / v k l +.K.'.'.).'.T.J.t.o.i p l v v.V.e./ c 2 8 ; B Z F H S H S J I I K K W P I ",
"B B B V H V H H ` ' ' ' ' F H N m - m S 0 & g 9.6.7.:.@.R.#XP.R.J.n.v.t.+.a i 6 i w.D.v.F.-.j d g f S S H H S N K K K K P P P K ",
"A V A V V V V V ` [ [ [ ~ K F S N m S m 0 w q m.u.7.*.G./.T.7.%.7.t.v.$.p i 3 j x C.S.w.u.8.k j 8 f F H C V Z V C H K K K I K J ",
"m V m V m A B H J [ [ [ ~ K F S H N N m N q g V.S.t.G.+XU.k < e e 6 $.-.6 3 4 i k V.D.v.b.u.l e d s S F C Z V V V C F I J J J J ",
"A m A m B V H H P ' [ [ P P F F S m H H F s c Z.w.:.t.E.t.4 > 2 3 , i l j , , i C.#X#XS.8.k 6 v d h F F C V V C V H F J H H I H ",
"V V V A V B H H P ' P { ( P G F H m m B 0 0 T D.C.C.T.b.+.3 3 3 2 i , , v 2 X e.S.S.8.6.7.3.+.v g h K F V Z C V V F F F I H H H ",
"V H H V H H J J P ' ] ' ] P J F V B B H 0 = W V.+X%X#Xt.4 < x e.2 i , # i 2 2 (.@X@X@XE.v.3.k j g T G G V V C C V H H I H H ` H ",
"V V H H H H J ` ' ' ' ] { P I F S H J ' S s q.Z.C.T.v.o.4 7 7.@Xl i l i X < -.D.e.-.#.6.u.u.$.2 d G G F V H C V H H H H H H H ` ",
"B V H F H H J ' ' ' ' ' ' ' K S V J F P D G N.V.8.p.o.7 5 5 3.#X(.$.n.8.4 4 $.+.< 3 6 6 2 b v v d h T S V H C C H V H H I ` ` ` ",
"u B F V H H K ' ] ' { { ] P S F H K F K D ) A.v.p <.@.5 X.5 p.dXhXJ.n.b.p.*.t < 4 6 e 2 2 j n b 8 g D F V H J C H H H J ` ` ` ` ",
"; B Z H F F ~ ~ ~ ~ ~ ~ ~ ~ F H S S I ] G a.OX7.%._.>.=.=.l.k.8XdX`.x.4X$Xr.5.&.&.o.e 3 , q c z d q D S H A V A V H J K ' ` ' ` ",
"u u u f F u F ~ ~ ~ K K ~ K L K S S D I ! d.S.3.r.Y.j.5X~.9XqX8XfXfX1.wX5X4Xl.5.3.&.t < , 9 ^ c g N D S H H A A ` ` J J ` J ' ` ",
"u * * u Z h Z h K F F F K ~ K G S S D N ) .XV.%.r.rX7XzXxXMXMXhXqXvX1.5X5X9Xx.l.5.&.t < X d c c h D S F H A A A ` H J ` ` ' ` ' ",
"u * * y y y y Z h S h ~ ~ ~ F Z 0 S ! g s.OX8.@.>.cXvXiXwXzXxXzXqXvX-Xz.5X5X5Xx.5.3.x 3 , g c h g D S H ` V A A H J ` I I ' ` ` ",
"y * * y y * * y u u u F F ~ G h F D ~ h B.S.+.o.L.aXCXnX<X<XiXuXwXuX5X2.~.5Xx.x.5.5.#.3 , d T g D D D H A A ` ` ` ' K J J J J J ",
"@ @ * @ @ * y y * y y u s F F F D G ^ ( m.m.+.a P.uXnXBXVX<X!.,XuXpX7X1.2.x.x.x.r.3.t 3 , 9 z g D D N H H ` A ` ` ` F I J I ' ] ",
"@ y @ y y y y y y y * * y u u S h F h ^ B.n l +.<.aX3XsXZXkXI.1.,XgXpX`.O.z.x.x.r.3.t t e 9 r z D H H ` A A A A H J J P { ..[.].",
"@ @ y @ y h h y * * y * * * * - u h u ( _ b -.:.n.bXaX<XnXZXtXX.O.'.fXfXO.5.W.x.r.&.#.#.4.z g D N I H H A H A H ' ' .... .c.[.[.",
"y @ * # = h T f & 0 S f s = * = = 8 # ^ B.-.-.@.Q.zXZX:X1XZXZX1XX.=.cX8Xl.5 p.b.;.&.%.x.4.M F C Z F Z F F ` P ] } ..f.f.| _ { ~ ",
"y y s = s F G = = F f s s y y s + 1 @ h q.e.,.:.`.uXbXmX<XvXZXmXP.!.CXuXx.&.k +.p o.k.#Xh.w u Z F C F F P { f.f.f.a.} } ) ~ G G ",
"y f h = = g G = 0 G G 0 u s y = = = y 1 c F.;.;.rX>XkXZXlX=XmXZXaXtXCXuXW.*.> > 7 *.9X#X5.q P Z Z ` [ .. . .f.| ] ] Q W ( _ ( ( ",
"h h h s 0 G ( f 8 G G 0 = u = * f s G 1 b 8.l =.rX7X1XvXZX=X=XmXVXaXzXuX4Xk.X.o.r.#XhX$X3.q ( H { { ..c. ...( ~ W W W } c.M.M.B.",
"u h ~ G G ( W w w L G 0 = u y y & ; ( G v / p t.6XpX:XkXZXmX=X1XmXvX0XwX9X^.k.R.8X8X8X$X#.9 F c.c...{ ( W ' ~ ( { ) } f.B.M.d.| ",
"y u h G W ) ( I W } ( 0 = = y u ; = E h h b p b.rXgXiX:XnXAXnX1XkXzX:X0XqX!.W.H.`.~.x.i.x R ^ | F P K K { { _ c. .f.M.].N.d.a.) ",
"F h h ~ G W W } } s.) F y = = u S S G s 1 2 i k.rXiXnX-X:XkXZXnXlX0XwXuXgX;XW.l.k.^.x.#.e U G s F G W ..|  . .| c. .f.f.f.} a.4.",
"c.( ~ _ E G G G G { ( T g s = s F ~ ) h d 3 7 %.`.aXkXkX=X=XlXvXkX1XwX1XuX,XP.j.r.r.p.t e 9 G h ) } ..|  . .c.c.c.| | Q ! Y Y Y ",
"( ( | | } ) { ( W E ! G s = = = _ K ) ^ . , :.O.`.0X:XNXkX=X:XtXkXqX1X:XpXuX).H.>.5.%.e 2 c ( ^ W } |  . . .| } ^ G ! W Q Y M M ",
"_ c. .B.f.| | } | W W G s w y = f ~ | T 2 F.;.y.>X0X:XiXVXxX0X-XiXkXyX7XeXeX).j.r.&.x 2 s ^ ( c.f.f.s.| } { ( W ) | f.a.Q U q r ",
"c.c.B.M.].g.f.f.f.| ) W f 0 s y = ( g c @XC.=.jX7X0X0X=XzXvXqX;X0XaXaXeX>XeX;XH.*.o.e g h c.( } } } ) { ) ) } } | a.a.! Y M M r ",
"c.c.B.M.].].].f.g.f.| ) D s g g g @ d oX&X;.%XCXyX1X0XwXz.1X0X;X:XuXpXeX2XtX7XI.5.t b h ( ( G ( T E W ( }  .f.g.f.) U q M Y Q M ",
"].}.}.}.}.].].g.g.f.f.( h y f h g d M.&X&X,.dXjXsX:X1XvX-X!.4X;X5XwXtXeX,X3XtX~.l.#.b G G D f T ( E ( | f.a.f.f.].Q r r M U ! 4.",
"].].}.}..X].]..X{.g.f.( s g h ^ / N.oX*X%X/.K.cXiXyXyXkXzXz.P.qX5XwX7XtXeXtXuX5Xx.%.r f f h g W ( ( _ B.f.} Q a.a.! M M U r Y a.",
"{.}.]. X X]..X].N.g.f.W f h ( B..XR F.%X+X'.L.sXiX3XkXkXzXI.j.wXwXqXwXtXtXyXeX5X~.5.M 0 f D G ( ( ( { | f.Q M M M M M M M M Q a.",
"}.}. XXX].}.].XX{.M.f.W s G B.A.6.i b @XdX/.K.P.zX:XlXvXqX9X1.W.qXiXqX:X3XsX7XwX$Xr.Y g L ( T R _ ( ) s.Q Y M M M M M q q M 4.a.",
"}.|.M.|. X{. X{.c.|.M. .N..Xs.d :.a b V.@X+X(.n.).3XsXnXhX4Xx.>.4XfXrXtX3X<X1X<X`.Y.7.4.@XQ Y 4.) } ! a.Q q M M M t r e r Y 4.a.",
"{.|.|. X X{. X{. X{.M. XM.T g n %Xa 2 h S.+X(.%XL.2X1XnXMX8Xx.>.^.9X7XeX,X<X,X).).l.E.3.a.h.r 4.Y U Y Y M r r M M M U Y Q 4.a.f.",
"M.|.N.|.{.M. X|. X Xc.| G G s.Z.*X,.9.D d.@XE.(.L.I.=XsXhXdX`.<.p.^.#X,X,X<X1X,X;XH.#X7.4.OX9 w T Y U M M U M U M M U Q 0.a.a.a.",
"N.|.N.N.|.{. X|.c...{ f ; } .XN.F.D.d.q z 0.@X(.).I.1.=XE.^./.G.+.t.T.eX,X,X,X,X>X`.$Xk.h.h.3.  w 0 w q D q r q r r Y ) a.s.s.9.",
"A.A.N.|..X X|.M.{ S S G D I W T e.n D S h 2 F.*XK.L.I.L.@.l %.t.t p ;.R.>X6X,X7X:X;X^.U.U.0.h.#   & + f G q T 8 Y T ) 9.s.s._ q.",
"B.N.m.N..XN.c.L K f S K G S F G S.d G S W b d F.(.K.).K.7.v 3 6 6 , 6 %.#XhXgXpX7X!.>XG.G.;.h.9.o & & D E 0 D w ) ) _ _ ) ) ) _ ",
"s.B.q.q.s._ ) f g K I H F F K } oXT ~ ; h c 8 b v.v.(.(.S.0.3 X 2 , , 7 b.hXcXcX7X!.;XH.i.;.8.A.= % & ; f g O & ) ) / ( ^ ^ ) / ",
"q.q.W c T ) } L D G D D J S S G h G H F T g T d a e.(.(.Z./ , 2 8 8 2 X x #XhXhXuX:XP.P.y.:.8.Z.W O S = D } . w / W T T ^ / / ( ",
") q.m.) s.f.T ) D f S K K S F F D 0 H ~ s c s h d 2 -.b.@Xa.o 2 s . 9 X   p.dXfX7X;X>XQ.=.:.v.m.} I ; w T 0 O g G T R / R R / v ",
"q.m.d./ c R h W f D G G S H ` S N ] ; V h z G G g b F.F._ h o 8 @ 1 +   X u.3.#XrX6X).<.<.8.v./ }.} w % 0 w w W T T Y z z z j j ",
") / / ) g h g d.T D D S N I ' N S F ~ f q.A.s g f T V.e.g D 8 8 . @ .   w oXe U.`.eX).@.n.7.w.B.}.f.N w D q 0 T z z z 9 e z k k ",
"T g d s.T z z }.f.s w G S S J I ' u F s e.@Xh L S T V.e.D ( D & + 1 . o   .Xx 3 _.Q.L.@.t.8.w.N.].a.E ! W G q g q d g k x 3.4.4.",
") / h s.T c z q.N.L g D I S S F I I = c.C.S.XX] S q F.q.G ) W q g 8 O O   | .Xe R.n.@.,.t.w./ ) .Xf.I I E D g T R R Q 4.6.9.0.p.",
") A.( / W / c T s.d.} D N S F F N G L A.V.u.g.I N D Z.w.K W W Y g z . $ % w N.Z.F.;.@.J.t.u.W W ].] I I G D D U ) ) e.e.0.7.8.4.",
"g N.T h / ) c g T B.} f D S S I K 0 h d i F.9 ! I T Z.q.T { ] Q Y R @ . :   g / l 8.,.T.u.e.g Q } ] W I G { | W R ) 6.6.6.6.3.3.",
"= ( g z d.W d g g ) ! 0 K S m I F ~ y s -.n.z D N T Z.e.W } ] ! 9.v f : u y s 1 -.b.t.:.u.R w N ].]...U L N.XXB.W R / R $.#.v v "
};
