/* XPM */
static char *fdff78cb5afa42e598988b1b55537e10KZiOJmS52qeS39n3[] = {
/* columns rows colors chars-per-pixel */
"64 64 250 2 ",
"   c #0C041E",
".  c #15041A",
"X  c #2C020D",
"o  c #0B0225",
"O  c #0B032A",
"+  c #0A0627",
"@  c #120523",
"#  c #12042D",
"$  c #19052B",
"%  c #160929",
"&  c #0F0231",
"*  c #130533",
"=  c #150A34",
"-  c #190A35",
";  c #150638",
":  c #1A063C",
">  c #1C0B3B",
",  c #170736",
"<  c #1A1536",
"1  c #11132D",
"2  c #210B3D",
"3  c #22123D",
"4  c #201B3B",
"5  c #320D2E",
"6  c #17333C",
"7  c #24253B",
"8  c #212028",
"9  c #4F1010",
"0  c #7A1613",
"q  c #7A150C",
"w  c #7C230E",
"e  c #6A3A05",
"r  c #712918",
"t  c #4D1A30",
"y  c #6B1923",
"u  c #552738",
"i  c #7B392A",
"p  c #742928",
"a  c #5D2F18",
"s  c #7D4603",
"d  c #7E4A04",
"f  c #7F4C0B",
"g  c #7A460A",
"h  c #7C4C13",
"j  c #7B4D1B",
"k  c #76491A",
"l  c #7C511B",
"z  c #795416",
"x  c #724C11",
"c  c #7A4C22",
"v  c #764B26",
"b  c #7C5223",
"n  c #77532A",
"m  c #775639",
"M  c #7C4D3B",
"N  c #1E0B41",
"B  c #240C43",
"V  c #2A0D46",
"C  c #2C0F48",
"Z  c #270E49",
"A  c #241344",
"S  c #2B1446",
"D  c #2C124A",
"F  c #271647",
"G  c #32144D",
"H  c #36174C",
"J  c #351953",
"K  c #3B1852",
"L  c #320D45",
"P  c #09354B",
"I  c #153559",
"U  c #172F49",
"Y  c #2D3348",
"T  c #383E54",
"R  c #2E2E49",
"E  c #273D77",
"W  c #1E3666",
"Q  c #401953",
"!  c #4B3C4E",
"~  c #6E3B55",
"^  c #503B75",
"/  c #613A67",
"(  c #384A54",
")  c #324777",
"_  c #745745",
"`  c #695559",
"'  c #725852",
"]  c #6F4E4B",
"[  c #786249",
"{  c #7B6558",
"}  c #4E506C",
"|  c #6D516D",
" . c #5B6576",
".. c #686A7A",
"X. c #787172",
"o. c #47475F",
"O. c #821616",
"+. c #89312F",
"@. c #871F20",
"#. c #824C05",
"$. c #81460C",
"%. c #814D0B",
"&. c #854C09",
"*. c #845007",
"=. c #85510B",
"-. c #89540D",
";. c #8B5408",
":. c #92570C",
">. c #824D12",
",. c #874A18",
"<. c #855212",
"1. c #8A5512",
"2. c #88551A",
"3. c #935914",
"4. c #894B26",
"5. c #895728",
"6. c #96572B",
"7. c #995A36",
"8. c #8A4F37",
"9. c #A15D3B",
"0. c #9B6137",
"q. c #876436",
"w. c #A36332",
"e. c #984B47",
"r. c #9B5647",
"t. c #9B5858",
"y. c #8C5453",
"u. c #A3594B",
"i. c #A45B54",
"p. c #AC5D5A",
"a. c #A65755",
"s. c #AC5251",
"d. c #846646",
"f. c #9C6459",
"g. c #897658",
"h. c #907152",
"j. c #A96648",
"k. c #A96658",
"l. c #B36B55",
"z. c #B3655C",
"x. c #B36B5C",
"c. c #B46558",
"v. c #B36F50",
"b. c #9B5C69",
"n. c #8F5B74",
"m. c #876D66",
"M. c #956667",
"N. c #897768",
"B. c #996476",
"V. c #867B78",
"C. c #8F7476",
"Z. c #A96766",
"A. c #B46661",
"S. c #B56963",
"D. c #B96A65",
"F. c #B56B6A",
"G. c #BA6B68",
"H. c #A57669",
"J. c #A66B75",
"K. c #B27172",
"L. c #8C8577",
"P. c #99897B",
"I. c #9A927B",
"U. c #93836A",
"Y. c #A58479",
"T. c #374A87",
"R. c #584C97",
"E. c #505394",
"W. c #675697",
"Q. c #705287",
"!. c #686C81",
"~. c #6D7282",
"^. c #6A7885",
"/. c #757B8B",
"(. c #797E8C",
"). c #737786",
"_. c #787D93",
"`. c #786298",
"'. c #4C49A7",
"]. c #534BAB",
"[. c #564DA6",
"{. c #4C55A7",
"}. c #5A54AA",
"|. c #534BB5",
" X c #544CB9",
".X c #5852B4",
"XX c #4F4BB2",
"oX c #655AA8",
"OX c #645BB5",
"+X c #645DBA",
"@X c #7A77A6",
"#X c #6D63BA",
"$X c #756BBB",
"%X c #7C73BA",
"&X c #7268AB",
"*X c #756BC2",
"=X c #796CC4",
"-X c #766BC5",
";X c #7B71C4",
":X c #6E65C0",
">X c #837F85",
",X c #906B8F",
"<X c #A57382",
"1X c #8A72B0",
"2X c #867CCB",
"3X c #897ECA",
"4X c #847BC5",
"5X c #7C828D",
"6X c #73818E",
"7X c #768393",
"8X c #7B8493",
"9X c #7E8995",
"0X c #7C8B9A",
"qX c #778898",
"wX c #7F909A",
"eX c #81858D",
"rX c #838C8E",
"tX c #898786",
"yX c #968A86",
"uX c #97958A",
"iX c #828693",
"pX c #838B94",
"aX c #848D9A",
"sX c #898D96",
"dX c #958D95",
"fX c #859295",
"gX c #8A9295",
"hX c #84949B",
"jX c #869A9C",
"kX c #8B9D9C",
"lX c #8D9697",
"zX c #959A94",
"xX c #87918F",
"cX c #A88C88",
"vX c #A89092",
"bX c #96A39B",
"nX c #92A099",
"mX c #A1A79B",
"MX c #8A9DA2",
"NX c #8795A0",
"BX c #9597A6",
"VX c #8DA3A4",
"CX c #8EA5A8",
"ZX c #91A5A6",
"AX c #92A6AC",
"SX c #93AAAB",
"DX c #93A9A7",
"FX c #96ABB1",
"GX c #A2ACA1",
"HX c #8880CB",
/* pixels */
"pXrXpXgXgXlXlXsXlXsXpX8X/.6X8XqX0XhXwXMXNXhXlXV.5.:.;.:.3.1.q.uXuXlXjXjXkXY 1 A A A F F N ; > ; ; ; N D G C J D > O O O O o     ",
"eX5XeXpXpXsXsXgXsXfXpX9X8X/.7X8XqXNXwXNXNXNXlXyX5.3.:.:.;.<.q.U.U.uXnXjXDX..% 3 N A F F A N ; = = ; : D G G C D > O O O O O     ",
"eXeXeXeXeXeXpXfXiXfXpX8X5X(./.8X0XaX0XhXMXgXNXuX5.3.:.:.d d <.z z g.nXkXVXMXR = A A F F A ; ; & ; * : C G G B Z ; O O O + +   . ",
"eXsXeXeXpXeXrXpXpXfXpX9X8X7X7X7X8X0XwXhXBX).tXU.5.:.=.%.*.-.-.f h z L.nXkXSX .+ A F Z F N ; ; ; & ; B G G V B B , O O O + +     ",
"xXeXtXsXpXeX5XpXfXfXhXpX8X8X6X7X7X0XNXaXBX{ n 2.3.=.&.;.=.-.=.=.*.z [ uXnXZXMX7 < F B F F > ; & & ; N N G Z B ; & + O O # +   . ",
"eXeXeXrXpXrXrXiXpXpXaXpX9XqX7X7X7XqX0XaXmX_ e w.-.=.=.-.*.f d %.d z n I.DXkXFX} 1 A F A A N ; & ; ; ; N Z Z N N * O O o + + @ % ",
"5X(.5XeXeXrXrXeX9X9X9XfXiXqX5X7X_.7X0XfXyXm <.3.=.-.%.1.=.d =.%.-.z z U.GXVXDXwX< S A A N > = * & ; N N N N Z B * + + o + @ % % ",
"eX(.5X(.5XeXeXpX9X5X9XpXpX9X8X7X7XqX0XlXN.q.5.=.;.&.%.=.1.-.f f f f z h.bXVXVXSXo.< F F A > , * & ; N N N Z Z N & O O + o @ @ 1 ",
"5X/.5X5X(.(.5X5XiX9X5X9X9XwX9X7X/.qXqXfXg.n 2.=.-.%.&.%.#.w.w.,.<.f z h.mXDXVXFX7X1 F A S 3 - # & ; ; N Z Z B : & + O O   o + = ",
"5X5X/./.).(.)./.5X9X9X9X9X9XqX7X7X7XqXfXg.b <.<.-.%.%.&.#.6.v.v.0.>.h d.mXZXSXDXAXY 4 A F 2 - = & & N N Z V Z : O O O O   o & ; ",
"/./.).^.).).).)./.5X9X5X8X9XqX9X7X7X0XxXq.z 1.=.-.-.#.%.#.$.7.l.l.4.k h.bXnXSXVXFX..< S F 2 * * & N N N B B C B & O O o @   O = ",
"5X5X5X).~.~.~.~.~.).6X5X5X7X8XqX7X7XiXV.b <.<.=.#.-.-.&.>.2.j.l.D.7.x U.bXVXSXZXVXjXR 3 S B , # & & N B C B V B & + O + @ + & > ",
"5XiX8X5X/.).).~.!.~.^./.7X9XqXqX6X6XtX[ j =.=.=.d d -.1.6.j.l.S.D.k.c h.zXZXDXDXVXFX} < A 2 - # & ; > D G B B B & o   o + o # - ",
"iXpXpXpX5X(.).).~.!.!.~.X.5XL.tX5X>XN.n l =.=.1.f #.$.%.j.c.x.S.D.k.j d.uXnXDXDXDXAX0X< 4 3 , = ; ; : D K L B Z & + o o + + * - ",
"pXpXpXiX8X(././.).~.~.X.X.d.m [ U.g.h.k <.=.#.=.-.%.&.6.l.c.S.x.D.r.j n L.nXZXZXSXSXSX( = 2 - - * , 2 C Q L B N & o     O # * - ",
"pXpXiX8X7X/._._././.).{ m k j z b v l h <.=.%.%.=.&.3.9.8.8.r.S.S.j.4.k N.bXkXZXSXCXFX6X1 3 > = * > B L Q G Z N O o o o o O , > ",
"aXpXaX8X8X_.(._.(.(.V._ j h <.h h z <.f =.-.d f $.,.7.8.e.e.r.S.A.l.6.k [ uXnXVXDXAXCXAXY = > = , > Z G Q Q V 2 # o   o o & = - ",
"iXaXiXiX8X8X8XiX_.tXN.n 5.1.1.%.f =.=.=.*.:.=.=.2.j.7.k.D.x.S.G.A.a.4.k m I.lXkXVXCXCXFX .+ < > , > V C Q Q G 2 - o   o + & , > ",
"pXaXpX8X8X8X_.(.(.L.q.j f =.1.1.#.#.-.#.d f -.-.j.l.r.S.A.x.A.G.p.e.,.v m I.zXVXCXDXSXCXNX< 1 ; ; > A B K H H C , o o o O , , B ",
"iXpXaXiXiXiX8XeXtX[ k z <.=.=.-.-.%.-.#.*.*.d g 7.j.p.A.s.a.S.G.p.r.i x [ uXlXjXVXCXAXCXFX( & < * - V B H H G 2 # o o o O * , - ",
"iXaXaXpX8XpX8XtX{ k z 1.f f f f %.=.;.*.*.=.d f 7.i.z.s.e.t.F.Z.G.i 9 a d.zXlXkXVXMXVXVXFX .+ = * - B B D K G 2 * O O o O * - > ",
"9XiX8X8XiX8XrXV.n h 3.f f f f f d -.-.#.*.*.d f 5.j.z.t.p.8.y k.G.i.u.d.{ zXkXkXVXVXVXVXSX6X1 1 = > N D G S C : * o O O * ; > N ",
"_.8X_.7X5X5XtX_ k 2.=.f f f f <.%.-.;.=.=.*.d f 5.v.f.e.9 X p F.A.S.a.t.C.zXjXjXMXCXCXVXVXwX7 1 = 3 2 B C G C 2 * O O O O ; N N ",
")./././.).5Xm.n 2.1.h z f f f f f -.;.*.=.=.d %.4.v.j.y u k.F.S.A.A.A.k.m.uXhXhXjXjXkXZXVXCXT + = > B B G J J B * o + + & = N A ",
"^././././.X.{ j ,.f h %.f f f <.f -.-.#.-.d d f 2.j.x.F.G.F.A.S.A.A.p.Z.m.yXlXhXjXjXjXjXVXSX}   = 2 V G Z J J > * o O # * ; N A ",
"_._._._._.>Xm j 2.f %.h f h f f %.=.=.#.-.*.d f >.j.x.A.z.z.S.S.D.A.p.F.M.V.lXjXjXVXjXVXjXSX .+ < 2 S C C Z J B * o o * & = ; N ",
"/./._._.5XN.v >.>.f >.f f f =.f d =.=.=.*.d d f >.9.x.A.A.D.A.A.A.A.D.A.m.<XlXhXkXkXVXVXCXDX7X1 < 2 C L G B D > O o o O & ; > > ",
"/./.(._.eX{ v <.>.f %.f d f f f d =.;.=.*.*.*.f %.0.x.A.A.z.S.A.A.G.s.+.y.yXdXhXjXjXkXVXCXVXhX< % 3 S H G C C > * O O O O ; - > ",
"/./._.>X>X{ c <.>.1.1.1.:.-.d =.f =.=.*.=.*.d *.$.6.x.z.A.S.D.D.A.A.+.@.b.yXsXhXwXjXjXVXVXVXjXR 1 > S H G G G B * O + O @ % - > ",
"_.>X>X>XtX' k 2.1.=.&.-.-.1.-.=.d *.=.=.;.*.d f d 6.c.A.A.S.A.A.G.s.@.+.y.yXgXfXjXjXjXkXVXMXMX( O 2 S S G C G B # o O @ @ % 2 > ",
"_.iX_.iXC.m 5.<.%.<.1.%.%.f %.-.=.#.=.#.*.*.f f %.2.c.A.A.S.A.D.G.+.@.e.f.P.gXhXfXjXkXVXMXVXZXo.+ 3 2 V Z Z D , # o O O @ $ 3 2 ",
"_.iX8XeXC.d.l d 1.&.f f %.f %.f =.=.=.*.=.*.*.d #.,.l.z.z.S.S.D.D.D.p.G.f.C.gXfXhXhXkXMXkXVXVX .+ A 2 D Z D D B * O O @ $ - < > ",
"(.iX_.eXg.b h 1.>.f %.f f f %.%.*.=.=.=.=.d =.#.#.,.j.A.A.A.F.A.A.D.D.D.s.f.xXfXwXjXjXkXkXkXVX^.+ 2 H S G G J B * o o @ $ = > 3 ",
"(.eXiXV.m j <.2.f %.f f f f f %.f #.=.=.;.#.#.#.#.$.9.c.A.A.A.G.D.A.z.D.a.M P.xXxXxXxXnXnXVXkX6X< < S C C G C B * o o o @ $ > B ",
"/.>XtXm.v 2.<.&.%.h f %.<.1.1.1.=.*.d =.-.*.#.=.d $.6.u.z.A.A.A.A.D.A.D.j.i d.P.I.uXuXuXlXkXjXwX4 - S H D G D B # o     . % - N ",
"/.>XL._ j <.<.h %.%.1.1.-.%.%.&.=.-.=.*.;.*.#.%.%.d ,.j.u.p.G.G.D.A.A.D.j.c v q.U.{ g.N.I.nXlXfX7 > 2 V G D B : * o     % % = N ",
"~.>Xm.n j <.<.f <.1.<.f %.f f f f =.=.<.;.;.%.%.=.%.d 7.x.i.a.p.A.A.F.c.6.,.h h x j l 4.q.Y.lXhXR 2 S S D D Z : O o o @ % @ - > ",
"~.V.[ j >.<.f =.1.%.h f h f f f f f f f %.=.%.%.-.f %.>.j.A.A.p.a.a.u.4.,.,.1.1.1.1.,.,.e d.yXsXR 2 H V B D J B O o O o @ = , > ",
"..C.m >.>.<.&.1.>.%.%.f %.%.f f f f f f %.-.-.&.%.=.d f 6.l.A.F.D.G.u.4.,.%.2.1.=.>.O.w q i N.sXY < S 2 V D J B * O O O # * * - ",
"..X.n >.2.>.1.%.f h f f >.%.f f f f f f -.-.%.=.%.>.f %.%.9.S.S.A.S.Z.4.,.<.%.%.=.1.w q O.r { yX! % A A V J J 2 # O O # # $ , $ ",
"| ' b <.f 1.<.%.%.%.f f %.>.f %.=.=.<.1.=.=.%.<.=.<.f f f ,.j.S.S.A.F.8.h >.>.>.>.,.O.O.O.0 _ yXT 1 R F C K G B * O O * # * $ $ ",
"` ' v >.<.1.f >.h f f h f f &.1.-.=.%.f f f -.%.=.=.=.f f f 7.x.A.F.F.j.h >.>.%.<.$.q O.O.0 ] P.( 6 U < H L L L $ o O # # # $ $ ",
"' ] c f 1.1.f h >.f h %.f <.<.f d f f f f f %.=.=.-.f f =.f 4.v.x.A.F.S.5.h >.>.=.,.w q O.p ] tX( 6 U < H 5 t 5 . @ @ $ # # $ $ ",
"` _ j >.3.%.%.%.%.f f f <.=.f f h f f f f f -.-.=.=.f =.f f >.j.x.A.x.k.5.g >.>.>.,.+.y y ~ | ..( 6 7 . t Q B.B.5 . $ @ $ $ $ $ ",
"] _ j 1.2.f %.f %.f f <.<.f h f f f f f %.-.-.=.<.#.f %.%.%.>.9.x.x.0.z z z h h j v y.~ / ^ E.E.P 6 8 ! y.K.K.t.Z.t . $ $ @ $ $ ",
"] _ j 1.<.f f h f %.f >.f %.f f =.f f -.1.=.=.-.=.f %.f d f %.6.v.8.l z z z c M ] ' Q.Q.oX[.'.{.I 6 ! Y.J.p.a.p.A.t.u X $ $ $ $ ",
"` M j 1.%.f <.%.%.%.<.-.f f f f f f 1.1.=.-.%.&.f =.f f f %.%.2.z l l 4.5.d.M.,X`.W.oX|..X.X'.E.I 7 M.k.e.p.a.a.e.t.J.~ X . $ $ ",
"` ] b 1.%.f >.f %.%.<.%.%.h f f %.<.=.d f %.d #.d f f =.d %.%.<.z 5.0.h.H.J.,XQ.R.|. X X X X'.E.( | M.9 p.a.a.a.u.p.s.K.B.t X $ ",
"o._ l =.%.f %.%.%.<.=.f f f f f %.-.d f f f %.#.#.d %.d s %.f 4.9.k.k.M.C.Q.R.{.{..X X X XXXE.) | n./ ~ F.e.G.s.b.s.s.b.K.<Xu X ",
"` ' b <.%.%.f f %.<.f %.f f f f 1.*.%.d f *.#.#.%.#.d #.#.s $.j.Z.J.<X,XW.oXoX+X+X X X X{.E I I o.| | ,Xb.J.e.t.s.b.p.s.p.G.K.u ",
"| ' b &.f f f f %.=.#.%.f d f %.-.d #.#.#.d #.#.&.%.#.%.s f 7.k.<X,X1XW.}..X X X X X X{.) P P P I ^ | b.b.e.t n.,X<XA.G.a.s.<XJ.",
"` ' l <.f =.%.f =.*.%.d f f f =.=.d #.d #.#.#.%.$.$.$.$.2.7.Z.vX,XW.R.]..X.X X X X X X'.I P P P W } n.b.B./ / ,X,X,Xb.F.J.b.,X<X",
"` [ j =.#.#.f d *.*.d d f d d *.*.d d *.#.&.&.,.6.7.9.j.j.H.vX@XW.}..X X X X X X X X X{.T.I I W R.R.n.n./ Q.1X1X&X,X,XB.,X1X1X1X",
"' m l *.d %.d d -.*.f f d d d *.d d d #.#.&.6.j.v.v.c.x.Z.vX,XR..X X.X X X X X X X X X{.].R.T.E.R.W.,X/ ^ }.-X-X1X,X,X| `.2XHXHX",
"m m z #.#.#.d #.;.*.d #.d d d *.#.d #.%.,.9.l.c.c.c.c.k.Y.dXW.]..X X X.X X X XXX X X XXX].|.oX[.R.R.R.R.oX$X4X1X=XW.R.W.W.4XHXHX",
"n n h #.#.#.d #.;.d d d d d *.*.d #.s $.9.l.k.Z.p.k.Z.M.cX_.R. X X X X XXXXX X X XXX X X|.|.|.|..X[.[.+X*X*X-X=X4XoX}.[.&XHX3XHX",
"x j -.*.#.#.#.#.;.d #.d d d #.#.d d s ,.v.k.k.H.Y.cXcXvXvX1XR.|.]..X X X|.|..X|.|.|.|.|.|.|.|.|.].].+X4X-X-X-X=X+X[.[.[.2X3X2X2X",
"e h %.*.#.#.#.#.;.d d d d d #.#.d d f 6.k.H.cXcXdXyXuXdXsX1X1X X}.|.|.|.|. X|.|.|.|.|.|.|.|.|.|.].#X-X-X-X4X-X=XOX].].:X2X2X2X2X",
"e k %.&.#.#.#.#.*.d d d #.s #.#.s d f 0.H.vXyXyXyXrXsXsX1X&X+X2X=XOX[.].|.|.|.|.|.|.|.|.|.XX'.|.:X4X-X-X-X1X-X:X|.].OX2X2X2X2X2X",
"e g #.&.s s #.#.*.#.d d s s #.#.s g k H.uXtXfXpXgXfXNX_.&X%X2X1X=X=X*XOX].].|.].|.|.|.|.|.XXXX X4X-X-X-X-X-X4X+X].].1X2X2X2X2X2X",
"e h d =.#.s #.*.*.#.s d s s d #.#.x d.I.tXxXrXxXxXhX@X@X1X-X2X+X-X4X-X-X#X.X[.].|.|.|.|.|. X X-X:X:X-X-X-X-X=X}.'.OX3X3X2X2X3X3X",
"e g d *.s s s *.#.#.d d d s s d z n I.tXrX9XxXfXfXiX&X%X+X2X:X2X-X:X2X-X4X-X:XOX|. X'.'.]. X2X-X-X1X:X2X-X-X:X].[.*X3X3X3X2X2X4X",
"e h s #.#.s #.#.#.#.#.s s s s g z U.L.L.rXrXiXsXaX_.%X%X2X:X4X:X:X1X1X-X-X-X=X4X:X:XOX X[.1X-X-X2X:X-X2X=X4XOX'.}.4X3X3X3X3X4X$X",
"e h d #.#.$.#.#.#.#.&.d s s s g q.I.xXxXxX9XiXiXaX_.$X=X:X1X:X4X-X-X-X-X-X1X#X:X1X-X1X:X+X1X-X-X:X:X2X:X*X=X}.'.#X3X4X3X3X3X4X&X"
};
