/* XPM */
static char *son1673448565[] = {
/* columns rows colors chars-per-pixel */
"64 64 247 2 ",
"   c #17191D",
".  c #0F131C",
"X  c #261A15",
"o  c #28170F",
"O  c #272217",
"+  c #342619",
"@  c #27200E",
"#  c #291D23",
"$  c #1B2328",
"%  c #182B38",
"&  c #292929",
"*  c #352B28",
"=  c #3B342B",
"-  c #242A31",
";  c #2A3537",
":  c #383739",
">  c #352F32",
",  c #710B19",
"<  c #422E1D",
"1  c #53152A",
"2  c #6F0D26",
"3  c #533829",
"4  c #472C39",
"5  c #4C383A",
"6  c #50352D",
"7  c #6D3637",
"8  c #5C0A18",
"9  c #45433D",
"0  c #54423C",
"q  c #674736",
"w  c #61503E",
"e  c #0E3C49",
"r  c #363B42",
"t  c #293B4B",
"y  c #573A53",
"u  c #523747",
"i  c #70344B",
"p  c #164B58",
"a  c #0D4252",
"s  c #2B474C",
"d  c #384549",
"f  c #3A4A57",
"g  c #334C59",
"h  c #15536A",
"j  c #334F64",
"k  c #2A576C",
"l  c #3A5766",
"z  c #305C78",
"x  c #19657A",
"c  c #336371",
"v  c #494747",
"b  c #584844",
"n  c #59554B",
"m  c #475559",
"M  c #575859",
"N  c #4A4D53",
"B  c #694D46",
"V  c #65554B",
"C  c #685959",
"Z  c #745052",
"A  c #6F655B",
"S  c #465A66",
"D  c #5A5965",
"F  c #555C73",
"G  c #49556A",
"H  c #725968",
"J  c #4B616B",
"K  c #42616A",
"L  c #5A656A",
"P  c #486778",
"I  c #576A77",
"U  c #59767A",
"Y  c #4B757C",
"T  c #686769",
"R  c #786967",
"E  c #686B74",
"W  c #677479",
"Q  c #757678",
"!  c #786E75",
"~  c #89091C",
"^  c #8C172E",
"/  c #AC1528",
"(  c #892A39",
")  c #A92A3B",
"_  c #C0283F",
"`  c #993246",
"'  c #A23247",
"]  c #C3374C",
"[  c #8F4256",
"{  c #A74355",
"}  c #98576A",
"|  c #A8556A",
" . c #897B78",
".. c #896F73",
"X. c #AC7175",
"o. c #7D847C",
"O. c #B38B78",
"+. c #196D9B",
"@. c #2C6E8C",
"#. c #0F71A7",
"$. c #2C7CA9",
"%. c #486C87",
"&. c #4C7287",
"*. c #577688",
"=. c #477798",
"-. c #577C96",
";. c #496E91",
":. c #677884",
">. c #787C84",
",. c #537FAC",
"<. c #8A7C87",
"1. c #B47A89",
"2. c #CB7A8C",
"3. c #2988AA",
"4. c #55819E",
"5. c #4B889D",
"6. c #6E848C",
"7. c #798488",
"8. c #66859A",
"9. c #798895",
"0. c #7C929C",
"q. c #4A87A8",
"w. c #5888A7",
"e. c #5895B2",
"r. c #5B8FB6",
"t. c #668BA6",
"y. c #6B93AD",
"u. c #7696AB",
"i. c #6798B5",
"p. c #799BB5",
"a. c #768AA2",
"s. c #76A5BA",
"d. c #76A9C8",
"f. c #6FA1C2",
"g. c #679FC0",
"h. c #85878A",
"j. c #848C94",
"k. c #8C8993",
"l. c #958C93",
"z. c #839395",
"x. c #8C9A9D",
"c. c #89949A",
"v. c #95989A",
"b. c #8D908B",
"n. c #A6888B",
"m. c #A29899",
"M. c #B38793",
"N. c #A7A39C",
"B. c #8A97A5",
"V. c #949CA3",
"C. c #9999A4",
"Z. c #839CB4",
"A. c #9598B1",
"S. c #A69AA5",
"D. c #8BA2A7",
"F. c #9BA3A5",
"G. c #95A5AC",
"H. c #9CA9AC",
"J. c #97A4A9",
"K. c #99A6B5",
"L. c #91ADB9",
"P. c #A6A6A9",
"I. c #A4ABB2",
"U. c #A8AAB6",
"Y. c #B6ACB6",
"T. c #A9B5B9",
"R. c #B4B4BC",
"E. c #B7B6BB",
"W. c #B7AAA8",
"Q. c #CE9198",
"!. c #D899A6",
"~. c #CA9DB0",
"^. c #E19CAD",
"/. c #C7AAB6",
"(. c #C5B7BB",
"). c #D2B9BE",
"_. c #CEA7A7",
"`. c #E7A5A8",
"'. c #E6ABB8",
"]. c #ECB0BA",
"[. c #C2C1BC",
"{. c #86A9C3",
"}. c #94ACC6",
"|. c #96B4C8",
" X c #ACBAC5",
".X c #BABDCA",
"XX c #B5BBC4",
"oX c #A9B7D1",
"OX c #C7B9C4",
"+X c #D6BBC8",
"@X c #C6B6D0",
"#X c #F0B7C8",
"$X c #BBC3C4",
"%X c #B9C5C8",
"&X c #BDCAD1",
"*X c #BFD2D6",
"=X c #A6C2CD",
"-X c #9EC0CA",
";X c #CAC3CB",
":X c #C6C6C9",
">X c #D7C5CD",
",X c #C8CBD6",
"<X c #D4CBD4",
"1X c #D8CBD6",
"2X c #CCD5DB",
"3X c #C8D5D6",
"4X c #DBD2DB",
"5X c #D7D7D8",
"6X c #C7D1C8",
"7X c #E7CBD8",
"8X c #F6C9D6",
"9X c #E4D2DE",
"0X c #EAD2DA",
"qX c #F8D5DB",
"wX c #EEC5CB",
"eX c #D6E5D8",
"rX c #D9DAE4",
"tX c #D1D2E5",
"yX c #EBD5E3",
"uX c #EBDCE5",
"iX c #EBDEE9",
"pX c #E5D9E5",
"aX c #F5D5E4",
"sX c #FBD5E6",
"dX c #F5DBE5",
"fX c #FDDCE5",
"gX c #FDD7E8",
"hX c #F5DDEA",
"jX c #FEDDEC",
"kX c #FEDEF1",
"lX c #F5DEF0",
"zX c #EBCFE4",
"xX c #DBE4E5",
"cX c #EDE3ED",
"vX c #E7E5EA",
"bX c #FEE1E6",
"nX c #F5E2ED",
"mX c #FDE1EE",
"MX c #F6E5E8",
"NX c #E5E7F0",
"BX c #F5E4F2",
"VX c #FEE2F1",
"CX c #FEE9F4",
"ZX c #FAE8F8",
"AX c #F8F9F6",
"SX c #ECF4EC",
"DX c #E3E6DF",
/* pixels */
"VXkXVXmXVXmXmXMXmXMXbXmXmXmXmXmXVXVXmXVXmXVXjXjXmXbXmXmXmXbXbXmXMXbXmXbXmXmXVXmXkXkXkXBXBXBXkXkXmXjXVXmXkXmXmXVXjXVXjXjXVXmXkXmX",
"kXVXkXVXmXmXmXmXbXbXmXbXmXmXmXVXCXVXmXmXmXjXmXmXbXmXbXbXmXmXmXmXbXMXbXbXmXVXmXkXkXkXkXBXBXBXjXkXjXVXjXkXVXmXVXjXkXmXmXjXjXjXjXVX",
"kXVXmXkXmXmXmXmXVXmXmXmXVXmXmXmXmXbXmXbXmXmXbXbXmXmXmXmXmXmXjXmXmXMXmXmXmXmXmXBXjXkXnXMXnXjXjXjXjXmXjXmXVXVXVXVXmXjXjXjXjXjXjXVX",
"kXVXmXmXVXmXmXmXmXmXmXmXjXVXmXmXbXbXbXmXbXmXCXmXmXmXmXmXmXmXjXmXmXmXmXmXVXVXnXmXmXjXVXmXjXmXkXjXVXjXjXmXjXVXjXmXmXVXVXjXjXVXjXmX",
"mXVXmXmXVXjXjXjXmXkXkXjXkXmXjXjXbXbXbXbXbXmXmXmXmXmXjXjXkXjXjXjXmXmXmXmXmXmXmXmXjXjXmXmXmXmXVXmXjXVXkXmXVXVXmXkXVXjXVXjXjXVXjXVX",
"mXVXVXmXjXmXVXjXjXmXjXjXjXkXkXmXbXfXbXbXbXmXjXjXmXmXVXjXjXkXmXmXkXhXmXjXjXmXMXmXmXjXmXmXmXmXVXmXjXVXmXVXVXmXVXjXjXVXjXmXmXjXjXmX",
"VXVXmXkXVXVXjXjXjXVXjXVXVXjXmXmXbXbXbXjXmXjXjXmXmXmXmXVXmXVXnXmXmXjXmXmXjXmXnXmXjXjXmXmXmXmXkXkXVXjXmXjXkXmXkXmXVXmXjXjXjXmXjXVX",
"jXjXjXmXjXjXjXVXmXjXkXVXhXmXBXmXmXjXmXmXmXVXVXhXjXmXVXhXmXnXnXmXkXjXmXmXmXmXnXbXjXjXmXmXmXjXkXjXjXjXjXVXmXVXVXmXmXkXVXjXjXjXjXVX",
"VXjXkXmXjXVXVXjXjXVXmXmXnXmXBXmXkXjXkXkXjXhXVXmXjXjXVXmXjXkXkXgXjXkXjXhXlXlXkXmXjXjXhXnXVXVXfXkXmXgXVXVXjXVXVXmXmXjXmXjXjXjXmXVX",
"jXVXmXVXVXVXjXVXVXVXmXmXhXnXmXnXkXkXVXVXkXlXnXhXVXgXfXkXjXjXZXkXkXfXBXcXBXlXhXkXjXkXVXjXdXmXZXjXmXhXgXjXVXVXmXkXjXVXjXjXjXVXkXjX",
"VXVXmXjXjXVXjXmXjXVXmXjXbXmXmXnXVXkXjXnXBXnXmXmXVXjXjXkXgXgXgXkXzXOXXX:XiXlXkXkXkXgXgXmXqXqXqXqXmXjXjXjXVXVXmXjXVXVXjXVXmXjXmXjX",
"mXkXVXjXVXjXVXjXmXmXmXmXmXmXjXjXjXkXjXmXmXMXMXfXfXjXjXfXkXZXkXtXP.E F W  XtXzXkXkXaXVX7Xn...n.W.>XgXVXmXjXjXjXmXjXjXmXjXjXVXjXmX",
"mXVXjXVXVXjXmXmXmXjXfXjXfXjXfXfXbXmXmXbXbXqXqXqXqXmXbXnXlXiXoXB.*.G I >.K..X@XzXlXyX~.X.Z 7 w q  .+XlXjXjXjXVXVXjXjXjXVXVXVXjXjX",
"kXmXmXmXmXVXVXjXmXmXjXjXfXfXsXsXqXqXwX].'.!.Q.`.`.].wXaX7XU.:.K l P -.Z.Z.}.A.XX X@Xn.Q.X.X.O.3 B ~.gXkXVXVXVXjXmXjXjXjXjXjXjXVX",
"VXjXjXVXmXmXVXkXjXmXsX#X].].'.^.`.Q.X.| { ` ' ' ' | 2.~.S.:.G c *.u.}.|.p.t.*.*.*.0.l.!._.Q.O.q Z /.sXjXVXjXVXjXjXjXjXmXkXmXmXjX",
"jXjXmXmXBXmXVXVXjXfX#X1.} } | ` [ ) ^ , ^ , 2 2 ` ` i ! :.G P *.p.}.}.p.-.;.*.*.Y o.P.!.`.`.O.q ..+XjXhXVXjXVXVXhXjXjXmXmXjXmXVX",
"jXjXnXBXBXnXVXkXjXgX!.` } X.{ ` ^ / ~ ~ ~ , 8 8 1 y ! A.B.>.a.Z.{.}.Z.-.*.%.:.*.K Y P._._.].Q.n./.gXkXkXkXjXCXhXjXjXmXnXjXhXVXnX",
"mXmXmXBXCXBXkXkXmXjX#X1.^.#X#X' ] _ / ~ , 8 1 4 y :.F F Z.}.}.{.}.Z.t.*.:.;.H F F >.m.).qXwX8XqXgXkXgXVXfXkXVXjXhXjXjXnXjXmXjXmX",
"mXmXmXVXkXZXZXkXmXCXMXqXgXgX8X2.] / ~ ~ 2 2 4 N F S f J Z. X}.L.Z.t.;.%.F G Z i H 1.+XsXMXbXbXmXmXjXjXmXhXjXmXVXjXhXmXjXjXjXjXjX",
"bXmXmXVXgXgXVXhXMXMX6X6X0XdXqX`.' / ~ 2 1 4 G I S j 8.-X|.u.B.oX}.-.;.;.j t i i | } !.bXfXMXnXdXdXVXjXhXVXCXjXjXkXjXjXjXkXjXjXjX",
"mXbXjXkXZXkXjXhX:XT m n v b.wX!.` 2 2 2 y G %.j P t.L.i.i.p.B.B.9.*.;.j a a f y ` ` !.8XDXZX<XZXnXhXmXnXhXjXkXjXkXjXjXjXjXjXjXjX",
"CXmXkXjXgXZXzXv.M v ; ; 9 = 9 H i 1 1 y G j k k -.i.i.i.d.d.a.>.:.j p j h p p u ` ) 1.S.h.L 9.C.Y.S.>XCXmXhXVXgXjXkXjXjXjXjXjXkX",
"mXdXVXVXkXnX(.D ; & : * * v h.l.E M D F l G ;.p.t.w.w.f.d.p.8.Y s U 8.z p p s 4 ( ( 1 > d d L 0.L M ! ;XnXVXhXaXjXjXkXmXjXjXmXVX",
"MXCXhXmXhXv.u $   > * X & X C E E G j j P ,.p.y.-.w.e.d.f.r.@.h s U 6.l p e % 4 q 7 b 7.x.$XxXeXxX,Xk.Y.;X>XY.+XsXgXkXVXmXjXnXnX",
"MXmXdXcXR.M $ . ; 9 = X X   - r S S j P u.|.p.w.-.i.d.s.5.c @.h h c u = - % t t F <.<.S..XR.$X$X&X2X3XE.c.S.S.>XBXlXkXVXmXVXnXhX",
"uX1X<X:Xh.; $ ; W E y > &   ; G l l *.L.s.t.;.r.i.f.d.q.x 3.3.a p s 4 * > d *.>.}.oXU.v.k.h.7.b.I.v.E.V.h.E l.R.iXcXBXBXnXVXVXVX",
"9X1XOX:XI.x.7.9.H.z.L r - s K l G *.p.p.w.q.5.e.g.w.q.+.+.3.x a s r V R h.D. X,X2X*X$XF.>.>.o.v.N.H.P.I.k.r r L .X;X4XpXhXVXmXjX",
":XOXP.P.R.3X3X*X*XL.W f m J l *.p.y.t.=.=.q.e.5.=.@.+.#.3.3.k s * = O.F.R.%X2XtXxX3X$Xx.7.v.I.b.v.[.k.U.I.d r >..XR.E.+X9XsXjXfX",
"4X;XU.v.V.H.3X*X%XH.W K Y P *.u.s.,.;.,.r.w.4.Y @.@.#.#.$.r.*.v & 9 P.$X%X&XtXrX3X&XT.7.7.x.G.6.T.6XF.F.%XE E R.S.R.>X1X+X+X#XVX",
"9X1XOXR.c.V.V.H.H.0.U Y Y 8.{.8.=.=.,.w.-.P f s j h +.$.q.i.T O O n [.3X X%X1XtX3X%X$Xz.x.D.0.a.I.$X6XE.rXU.S.tXpXrXzX9X+XOX+XyX",
"0XuX4XU.>.B.j.B.0.o.l c Y *.4.%.@.-.-.%.f - ; v j %.-.y.{.9.r X @ o.<X,XR.$X,X:X$X3X3XH.z.z.:.:.H.$XxXrXiXlXpXkXkXlXjXkXhXdXhXmX",
"BXnXvXL - E c.c.0.W U K l K P *.-.*.l d : > m W >.B.U.oX XW > @ @ m.rX%XI.$X$X6XeXxXxXxXF.7.Q W x.%XvXvXpXlXZXgXkXkXlXjXjXhXnXnX",
"ZXiX@XM $ $ m J.K.B.6.W J S S K m f m n n A Q h.B.I.%X3X6XQ = @ 9 N.eXI.G.%X6X5XSXSXSXNX4XOXb.A v.<XDXuXnXnXjXjXjXjXkXgXjXhXhXhX",
"iXcXXXr . $ t m 7.9.c.:.L f l f m L M 9 M Q 7.x.T.&X2XDX[.A * O w W.6XH.K.%X6XvXAXSXSX1XBXpXN.n.P.;XpXpXyXVXVXjXjXjXjXfXjXjXhXjX",
"pXrX>.-   r 7.W I S m d J I l m U U m ; M W h.F.T.2XxXxXN.b o + w N.H.x.I.&XvXSXAXAXcXzXZXzX+X[.S.<.Y.hXCXVXaXVXjXjXjXjXhXjXjXVX",
"h.E > $ $ d H.V.j.>.W m J 7.I W U o.f ; L h.x.H.T.3XNXeXv.9 < < n N.b.0.T.3XvXAXAXNXzXkXkXaXdXdXCX(.>XhXhXjXdXVXjXjXjXjXmXjXjXjX",
"P.M u r N >.E..XR.k.V.7.L j.c.W U L K 6.D.x.z.I.XX6X3X2Xv.V 3 3 9 O.Q 7.K.2XNXAXAX<XlXkXkXVXbXbXbXdXVXBXjXVXmXjXjXjXjXjXjXjXVXjX",
"nXY.C.v.E.rX4X,XpX,X,XE.k.:.I.0.o.6.6.0.x.G.T.$X3X&X X$Xv.C 3 q w A T 6.J.2XNXSXMXyXZXkXkXVXdXMXmXmXhXmXmXhXmXVXmXVXjXjXVXjXkXmX",
"hXZXzX9XiXhXyX9XyXyX>X(.Y.<.Y.P.k.9.9.D.H.H.$X*XxX3X%XH.b.T B w q A R O.C.:XrX4X1XCXkXkXkXkXMXMXmXmXmXdXmXVXVXmXVXmXjXmXjXmXjXjX",
"jXhXmXjXVXVXaXhXjXVXjXzX9X+X1XE.E.V.h.b.V.z.H.T.&X3X*XJ.Q A V w q q Z  .P.:X5X4XiXlXkXkXkXkXmXMXmXmXmXmXmXVXjXVXmXVXVXjXVXjXmXkX",
"kXVXjXjXkXjXjXjXkXjXgXjXjXhXyX9X;XU.l.! M v.v.c.G.L.%X Xz.T C 0 q q q  .V.:X:XvXMXmXjXjXjXmXmXbXmXkXjXmXjXVXVXVXmXjXjXjXVXjXjXjX",
"jXjXjXVXjXkXgXsXjXjXjXjXjXjXjXiXyXW.R V 5 H >.c.6.0.D.T.$Xb.E b q < 3 q O.:XvXmXmXjXjXjXjXmXmXmXjXmXkXjXmXVXmXVXmXVXjXjXjXVXjXkX",
"jXVXjXjXjXjXkXgXjXjXjXjXjXjXkXnXlX+X..u 4 b Q E U :.0.T.$XH.7.n 6 < + + M E.nXMXjXjXjXjXmXjXmXjXmXjXjXVXVXVXVXjXVXVXjXVXjXVXkXjX",
"jXVXVXhXVXhXjXCXjXjXjXjXjXjXhXjXkXkX8X_.n...l.9.6.6.G.$XI.J.F.W n < o 0 O.9XCXMXjXfXjXjXjXmXjXkXkXmXjXjXVXjXmXkXjXjXmXjXjXjXVXmX",
"VXhXkXgXyXjXhXdXVXjXVXVXjXjXjXjXjXmXfXbXfXfXuX,XV.B.A.G.c.J.E.P.Q A A n.(.mXnXmXjXjXjXfXmXmXkXkXmXjXmXjXmXVXjXmXVXjXjXjXVXjXVXjX",
"jXkXhXS.C OXVXZXhXjXjXmXjXjXjXkXVXgXfXCXbXdXdXuX;XU.B.B.T.$X6X3X6X(././.7XbXjXVXjXjXfXmXmXmXkXkXkXmXmXjXjXVXjXVXjXkXjXjXjXmXmXjX",
"jXVXzX..u >XCXaXjXjXjXjXkXjXjXjXjXfXmXgXmXmXmX;XU.<.:.B.,X.XY.[.5X9XCXjXmXjXVXVXjXjXmXMXMXBXVXkXVXmXjXjXVXjXkXjXjXjXjXjXjXjXjXjX",
"jXjXsX..C +XaXCXkXjXjXkXjXjXfXjXjXjXjXVXdXhXbX).Y.! >. XxX<X>XmXCXnXmXmXmXVXkXjXjXjXmXnXnXnXkXkXVXVXjXmXjXmXjXkXjXjXjXjXmXmXjXjX",
"jXjXfXOX/.jXjXkXjXjXmXjXjXjXjXjXmXjXjXgXVXVXdXyXE. .C.rXvX>XmXjXnXmXjXmXjXVXmXmXjXjXjXhXhXjXjXkXgXmXjXjXkXjXjXjXjXjXfXjXjXjXjXhX",
"VXjXVXsXaXCXjXVXjXmXkXjXjXjXjXjXjXjXhXmXjXhXVXnX(.k.:X1X9XhXaXCXjXjXjXjXjXjXjXmXjXgXjXjXjXgXjXgXjXgXgXjXjXkXjXjXjXgXhXgXgXgXgXgX",
"jXgXkXkXVXmXgXmXjXjXjXjXjXjXjXjXjXjXgXVXmXmXVX1XY.Y.4X4XuXVXjXjXmXjXgXjXjXjXjXgXgXhXjXgXjXgXjXhXgXfXjXgXgXgXgXgXgXgXgXgXsXgXsXgX",
"mXmXjXjXjXjXmXjXjXmXjXmXjXjXjXjXjXjXhXjXmXjX9XOX(.<X4XuXZXaXVXgXjXjXhXjXjXgXhXgXgXgXgXhXgXgXgXgXgXgXhXgXgXsXgXgXgXgXsXgXsXaXsXsX",
"jXVXjXmXjXjXVXmXjXmXjXmXjXjXjXjXjXjXmXaXaXaX+X1X9X1XuXnXhXhXjXkXjXgXhXsXgXdXgXgXgXsXgXgXsXsXgXgXgXgXsXsXsXsXsXsXsXsXsXsXsXsXsXsX",
"jXjXjXmXjXjXjXjXjXjXjXjXjXjXjXjXjXhXmXjXjXaX+XBXnX9XnXnXdXmXgXjXgXgXsXaXaXaXaXaXhXsXsXsXsXsXsXsXsXaXsXsXsXsXsXsXsXsXsXsXsXsXhXsX",
"jXjXjXjXjXjXjXVXjXmXjXjXmXjXjXjXmXgXmXjXVXgX7XhXdXmXnXBXmXjXjXsXgXgXsXaXaXsXsXaXsXsXsXsXgXgXgXgXsXsXsXsXsXsXsXsXsXsXsXsXsXgXgXgX",
"gXmXVXjXjXmXjXjXjXjXmXjXjXjXjXjXgXjXVXdXjXVXmXhXnXBXdXhXjXgXfXkXjXgXgXsXsXsXsXgXgXgXgXgXgXgXgXgXgXsXgXgXsXsXsXsXsXsXsXsXgXsXgXgX",
"jXjXjXjXkXjXjXjXmXjXjXmXjXmXjXjXjXjXjXjXjXVXjXnXVXnXjXhXjXkXjXjXjXfXgXgXkXgXgXjXgXgXgXgXgXgXgXgXgXgXgXgXgXgXgXgXsXgXgXgXgXgXgXgX",
"VXjXmXjXjXjXmXmXjXjXjXjXjXjXmXjXjXjXjXmXmXjXmXjXjXjXhXjXjXgXjXjXjXjXgXjXgXjXgXgXgXgXkXgXgXgXgXgXgXgXgXgXgXgXgXgXgXsXgXgXgXgXgXgX",
"jXjXjXmXmXjXjXjXmXjXmXmXVXjXjXjXjXjXjXjXkXmXmXmXjXjXjXjXjXjXjXjXjXgXjXgXgXjXjXgXgXjXgXkXkXkXgXgXgXkXgXjXgXjXgXgXgXgXgXgXgXgXjXgX",
"jXjXjXjXmXjXjXmXjXjXjXjXjXjXjXmXjXjXmXVXmXjXjXVXjXhXjXjXjXjXjXjXjXjXgXjXkXgXjXjXjXjXgXgXgXgXgXkXjXgXgXjXjXgXjXgXgXkXgXkXkXjXgXjX",
"mXmXjXjXjXVXjXjXkXjXjXjXjXmXjXjXjXVXjXjXjXjXnXjXjXjXjXjXjXjXjXjXjXjXjXjXjXjXgXgXjXjXgXgXgXjXjXjXjXgXjXjXjXgXkXkXgXjXjXkXjXjXgXjX",
"jXjXmXjXjXjXjXjXjXjXmXmXjXjXmXjXjXkXjXjXmXmXjXmXjXjXjXjXjXjXjXjXjXjXgXjXjXjXjXjXgXjXkXjXjXkXgXgXgXkXgXjXjXgXjXgXkXjXgXgXgXkXgXjX",
"jXjXjXjXjXmXjXjXmXjXjXjXjXjXjXjXjXjXjXjXhXjXjXhXjXjXjXjXjXhXjXhXjXgXjXgXjXjXgXjXgXkXjXkXjXgXkXjXjXjXkXjXjXjXjXjXjXjXjXjXjXgXkXjX",
"mXmXjXkXjXjXmXjXmXjXjXmXjXjXVXjXjXjXjXjXjXhXjXnXjXjXhXjXjXjXhXjXjXjXjXgXjXjXjXgXjXjXgXgXjXkXgXjXjXgXjXjXjXjXjXkXjXjXjXjXjXjXjXjX"
};
