/* XPM */
static char *p21673446017[] = {
/* columns rows colors chars-per-pixel */
"64 64 246 2 ",
"   c #1C1D18",
".  c #32130C",
"X  c #342817",
"o  c #16233A",
"O  c #3F273F",
"+  c #2B3238",
"@  c #383239",
"#  c #2F2B2A",
"$  c #221A2F",
"%  c #4D2D13",
"&  c #7A2918",
"*  c #683E17",
"=  c #703209",
"-  c #462825",
";  c #412636",
":  c #523931",
">  c #6E3133",
",  c #774A1C",
"<  c #5B443E",
"1  c #784A28",
"2  c #66473C",
"3  c #794935",
"4  c #7B5436",
"5  c #724E28",
"6  c #1C2C4D",
"7  c #262D45",
"8  c #293447",
"9  c #383545",
"0  c #343956",
"q  c #293657",
"w  c #193C6F",
"e  c #2B3967",
"r  c #4D2E4B",
"t  c #733A4C",
"y  c #3A4655",
"u  c #1B4377",
"i  c #374766",
"p  c #365078",
"a  c #4A4247",
"s  c #554546",
"d  c #484A55",
"f  c #584756",
"g  c #555659",
"h  c #535353",
"j  c #6A4442",
"k  c #6D5B4E",
"l  c #72554F",
"z  c #615A5D",
"x  c #6F4752",
"c  c #746551",
"v  c #474965",
"b  c #4B5264",
"n  c #4D596C",
"m  c #4B5B74",
"M  c #4B5B78",
"N  c #465772",
"B  c #575A76",
"V  c #514F69",
"C  c #6C5B68",
"Z  c #4D6679",
"A  c #56697B",
"S  c #576C77",
"D  c #62696E",
"F  c #7E696E",
"G  c #66687A",
"H  c #7A6777",
"J  c #70797F",
"K  c #893713",
"L  c #A73B1F",
"P  c #893438",
"I  c #A33737",
"U  c #8C5032",
"Y  c #A05227",
"T  c #963A4B",
"R  c #855F58",
"E  c #885153",
"W  c #AD5347",
"Q  c #886D48",
"!  c #886759",
"~  c #957C52",
"^  c #AC7651",
"/  c #864762",
"(  c #A95D61",
")  c #976669",
"_  c #85766B",
"`  c #826875",
"'  c #877577",
"]  c #9B7B7A",
"[  c #926B72",
"{  c #B17A79",
"}  c #C86E61",
"|  c #9F8759",
" . c #B88452",
".. c #BF8B4F",
"X. c #948376",
"o. c #BB9777",
"O. c #AC8973",
"+. c #D59E7C",
"@. c #D19B6B",
"#. c #164D93",
"$. c #254A87",
"%. c #2F588B",
"&. c #2B649A",
"*. c #2467A6",
"=. c #495B82",
"-. c #4A6B87",
";. c #556A83",
":. c #5A6B84",
">. c #556588",
",. c #5B6886",
"<. c #5A7386",
"1. c #5A6F92",
"2. c #587494",
"3. c #666B83",
"4. c #756E83",
"5. c #6C748B",
"6. c #667688",
"7. c #797888",
"8. c #667897",
"9. c #707897",
"0. c #767FAA",
"q. c #857987",
"w. c #967989",
"e. c #AE7389",
"r. c #6D818B",
"t. c #68859D",
"y. c #788596",
"u. c #7888A7",
"i. c #7890AC",
"p. c #888A9C",
"a. c #9A8797",
"s. c #8F8A90",
"d. c #A68687",
"f. c #A48B98",
"g. c #A79495",
"h. c #B4908D",
"j. c #8288A6",
"k. c #8A94A9",
"l. c #9A98A8",
"z. c #8B9BB9",
"x. c #989BB3",
"c. c #8E8CAC",
"v. c #A59BAC",
"b. c #B598A6",
"n. c #A592AC",
"m. c #9AA9BC",
"M. c #8DA3B3",
"N. c #BDAAAB",
"B. c #A5A5B3",
"V. c #AAAAB7",
"C. c #B9A2B3",
"Z. c #B5B5BB",
"A. c #A7AAAF",
"S. c #CE8983",
"D. c #CFA994",
"F. c #EBB294",
"G. c #C8A7A8",
"H. c #C6A8B9",
"J. c #D8B7B7",
"K. c #D0B2AF",
"L. c #E2B4AE",
"P. c #EFB6B1",
"I. c #ECC4BC",
"U. c #9AA7C6",
"Y. c #9DB1CD",
"T. c #9FABD5",
"R. c #A7AAC6",
"E. c #B2AFC3",
"W. c #AAB5C9",
"Q. c #B5B4C5",
"!. c #B8B7C9",
"~. c #A9B9D6",
"^. c #B8B5D1",
"/. c #A3ABD4",
"(. c #C1ADC4",
"). c #C7B5C7",
"_. c #D1B4C3",
"`. c #D3BECD",
"'. c #D8BBCB",
"]. c #CABED4",
"[. c #D0AFC0",
"{. c #B9C0CB",
"}. c #B9C8DB",
"|. c #BDD0D6",
" X c #ADC6CD",
".X c #B6CAE3",
"XX c #BFD0EE",
"oX c #C9C3C9",
"OX c #D6C2C9",
"+X c #C8C6D4",
"@X c #D8C7D6",
"#X c #CAD4DB",
"$X c #D8D4DB",
"%X c #DEDCCF",
"&X c #EBC5C7",
"*X c #F6CAC7",
"=X c #EBCDDD",
"-X c #E5CDD8",
";X c #E6D6D8",
":X c #FDDADB",
">X c #F6D9DC",
",X c #EED0D2",
"<X c #F9E3DF",
"1X c #E4E0DD",
"2X c #D7D7E7",
"3X c #C8D8F1",
"4X c #CED2EB",
"5X c #F4CFE1",
"6X c #EDD3E3",
"7X c #EDDCEC",
"8X c #E8DAE8",
"9X c #F4D4E4",
"0X c #FBD5E6",
"qX c #F5DBE5",
"wX c #FADCE5",
"eX c #F3D7EA",
"rX c #FDD7E9",
"tX c #F5DBEB",
"yX c #FEDDED",
"uX c #EDDAF4",
"iX c #F4DDF2",
"pX c #FEDEF2",
"aX c #F6DFF9",
"sX c #E1CBE0",
"dX c #DAE3EB",
"fX c #D7E3EE",
"gX c #E9E4EA",
"hX c #FEE1E5",
"jX c #F5E2EC",
"kX c #FEE0EE",
"lX c #F7E5E7",
"zX c #EDE2F3",
"xX c #E5E4FA",
"cX c #E9E8F9",
"vX c #F4E3F3",
"bX c #FEE2F2",
"nX c #FDE9F4",
"mX c #F2E5FA",
"MX c #FDE4FB",
"NX c #FEE9FB",
"BX c #F4EBF7",
"VX c #ECF3FB",
"CX c #FEF4F4",
"ZX c #FDFDFE",
"AX c #F9F8F9",
"SX c #FFF1EE",
/* pixels */
"bXkXbXbXbXyXkXbXkXyXbXkXpXbXyXkXhXkXkXkXnXhXkXkXkXkXkXkXkXkXkXkXhXhXkXpXpXbXkXkXkXkXkXbXpXbXkXkXkXkXkXkXbXbXyXkXpXkXyXyXyXbXyXkX",
"kXbXbXkXkXkXbXyXkXbXyXkXkXkXyXbXnXkXkXkXkXbXkXkXkXhXkXkXhXkXkXkXhXhXbXpXbXpXkXhXhXkXpXpXpXpXyXhXkXyXyXkXyXbXbXkXbXkXbXyXkXyXyXbX",
"kXbXyXbXkXpXbXyXbXbXyXbXbXkXbXkXkXkXkXhXkXnXkXkXkXkXhXkXkXhXkXkXhXhXbXkXbXbXkXhXjXyXpXpXpXpXpXyXkXyXyXkXkXbXbXkXyXyXkXyXyXyXyXbX",
"yXbXkXyXbXkXyXbXyXkXbXyXyXkXpXkXkXkXkXkXkXkXhXkXhXkXkXkXkXkXkXkXkXhXbXbXbXbXkXhXkXpXbXpXaXpXyXkXyXyXkXyXkXbXyXbXkXbXyXyXyXkXyXkX",
"bXyXyXbXkXkXbXyXkXyXyXkXkXyXyXkXkXhXkXkXhXkXkXkXkXkXhXkXkXkXkXhXwXhXkXyXyXkXkXyXkXkXbXpXpXbXkXkXbXkXyXbXkXbXbXyXkXyXbXyXyXkXyXbX",
"kXbXkXbXpXyXyXkXyXyXbXkXyXbXbXyXkXkXkXkXkXkXkXyXkXkXkXkXwXkXkXyXhXhXhXyXyXbXkXkXkXbXbXbXpXbXkXkXkXbXbXyXkXbXkXkXbXbXyXyXkXpXyXkX",
"kXkXyXyXkXyXbXkXbXyXkXyXkXyXyXyXkXkXhXkXkXkXjXyXkXkXkXkXkXkXkXhXhXhXkXkXkXpXjXyXbXkXbXbXbXbXkXbXyXbXyXbXbXkXbXpXyXbXkXyXyXyXkXbX",
"pXkXyXbXyXkXyXyXkXyXpXkXyXkXpXkXkXkXkXkXkXkXkXkXkXkXhXkXkXkXhXkXwXhXhXwXjXjXkXkXyXkXpXpXyXpXpXyXyXyXyXkXyXbXkXkXkXkXkXyXyXbXyXyX",
"bXyXyXbXbXyXyXbXbXyXkXyXyXyXbXyXyXyXkXyXkXyXyXyXkXyXyXyXyXkXkXkXhXwX,X>XwXhXrXkXkXbXyXyXyXkXyXyXyXyXyXbXbXbXyXbXpXkXkXyXyXbXyXkX",
"kXkXbXyXkXkXbXkXbXyXkXyXyXyXyXkXbXyXpXkXkXyXkXyXyXyXkXyXyXyXyXkXhX] - . ` yXkXkXpXyXyXyXkXyXpXyXyXyXyXyXkXkXbXyXkXyXyXyXyXkXyXbX",
"bXbXkXbXkXpXbXyXkXyXkXyXyXyXkXpXyXkXkXkXyXyXyXyXyXyXyXyXyXyXyXwX&X,X[ - . G.kXyXpXyXyXkXkXkXyXpXyXyXyXkXyXbXyXkXyXkXyXkXkXkXyXyX",
"bXkXyXbXkXkXyXbXbXyXpXkXbXkXyXkXyXbXyXyXbXyXyXyXyXkXkXyXkXkXkXkX:XJ.G.! . : wXkXyXyXyXkXkXpXbXpXyXyXyXyXbXkXbXkXbXyXkXpXpXyXyXbX",
"yXyXbXyXyXyXkXyXyXkXbXyXyXkXyXyXyXyXkXkXkXyXyXyXkXbXyXbXkXbXkXwX*XI.K.! ) h.hXbXbXyXkXhXkXkXpXpXyXyXyXyXbXkXkXyXyXkXyXyXkXyXkXpX",
"kXbXyXbXbXkXbXyXbXbXyXkXkXyXyXyXkXyXyXpXyXyXyXkXbXyXbXkXbXbXbXkXwXI.D.Q % :XkXrXyXpXkXhXkXkXMXpXbXyXyXkXyXbXpXkXyXyXyXkXyXkXyXkX",
"kXyXkXyXyXbXkXpXkXbXbXkXbXyXyXyXtXkXkXyXyXkXyXyXkXkXkXbXbXkXpXyX:XI.h.l D.d.wXpXpXyXyXkXhXkXbXpXpXpXyXyXkXkXkXbXyXyXyXyXkXyXkXyX",
"yXkXpXkXkXkXbXkXbXyXyXbXyXbXyXkXyXyXyXyXyXyXyXkXkXkXkXkXkXkXbXpXI.*XL.{ t : ,XrXbXbXkXhXkXbXbXbXkXjXkXyXyXbXkXbXtXyXyXbXyXyXbXkX",
"yXbXkXbXyXkXbXbXpXkXkXbXkXyXyXkXyXbXkXbXpXiXyXyX:XhXhXhXhXnXpX[.t [ T / x ! w.-XaXbXlXlXbXpXMXvXjXkXyXyXpXbXkXvXjXkXyXyXyXyXkXjX",
"kXkXyXbXbXyXkXyXkXkXbXyXbXkXkXkX0XyXyX7XMXMX@XqXkXrXnXlXhXnXaX(.9 r r r f.>XJ.l.NXqXhXhXkXbXpXyXvXyXyXyXyXpXkXjXjXjXyXyXyXpXyXjX",
"pXkXkXkXbXyXbXyXyXbXbXyXyXkXpXyX=XjXnXMXuXuX).vXrXaXpXbXkXvXaXB %.$.e =.@X8XdXv.bXtXhXhXyXbXwXjXjXkXyXyXyXkXkXjXyXjXyXpXyXyXyXjX",
"bXkXpXkXkXbXyXkXbXkXyXbXyXyXyXkX>X-XbXiX).7.l.].aXMXpXiXnXzXxXi.&.&.$.e Q.gXfX!.sXMXkXwXbXrXyXlXwXwXyXyXyXkXkXjXbXyXyXrXrXyXkXyX",
"bXyXbXyXyXyXyXbXkXyXkXyXyXyXyXwXN.OX_.7X2XD g Z.8XeXpXpXtXzXxXz.&.*.*.w b gX1X%X[.eXpXeXpXpXyXlXhXkXyXwXkXkXkXkXkXkXkXyXyXyXkXjX",
"kXbXyXbXbXkXpXkXbXyXyXyXyXyXyXjX%X;XqX@XB.l.+ A.!.BXpXpXqXtXBXU.$.#.#.w k.1XgX1X@X^.vXvXtXMXkXlXjXwXwXwXwXkXkXkXkXkXyXyXyXkXjXyX",
"kXbXbXkXkXyXkXkXyXkXyXyXyXtXyXkXOXlXyXaX XZ + Z.#X!.pXyXwXnX7XU.$.#.#.w 5.{.gXdX4XU.aXaXpXpXyXkXkXyXwXyXkXyXkXkXyXkXyXkXkXyXpXyX",
"yXyXyXyXbXbXkXbXkXkXyXyXyXyXyXjXH '.NXvXm.y d #XfX{.vXrX:X:XhXZ.$.$.w e + a.dXcX3X/.uXaXpXrXpXbXjXyXyXkXkXhXkXhXkXyXkXkXyXyXpXjX",
"kXyXyXbXkXkXbXkXyXyXkXyXyXyXyXkXOX@XyXtX9.,.8 V.{.|.oXK.P.F.P.g.0 0 8 7XOXjX8XdX.XB.aXpXpXpXpXpXiXqXvXnXjXkXkXyXkXkXkXkXkXbXkXbX",
"yXbXyXkXpXkXyXyXyXyXyXyXkXyXyXkXqX$XbX@X5.,.b A  X|.C.w.S.W S.D.r n.q.2Xg.N.Z.{.v.@XpXrXrXrXpXyXtXvXBX7XnXnXkXkXyXkXyXyXbXkXbXyX",
"yXbXkXbXbXkXyXkXbXyXyXkXyXyXyXyXlXG.' f v 0 q v V.#XZ.l 1 ^  .Q _ y y ,.$ g D ] F -XpXrXpXbXhXlX2Xa.v.gXzXnXvXyXkXyXkXkXkXkXyXyX",
"kXyXyXyXyXbXkXpXyXyXyXyXyXkXyXkXlXK.ZXl.9 0 M N m.#XoXh.1 Y Y , X.@ y i B q.X.- > G.pXeXuXvXlXoXs.k.p.p.+X8XnXbXyXkXyXkXkXkXpXyX",
"yXyXkXyXbXyXyXkXyXyXyXyXkXyXyXyXlX@XBXV.V 0 0.>.W.W._.) R E U * c : ;.i i r F.* & > ` 3.7.A.$Xp.3.G 3.y.p.oXMXpXbXyXyXjXyXyXyXpX",
"yXbXyXkXyXkXkXyXyXyXyXyXyXyXyXyXkX).sXV.d 9.T.8.W.s.b.t a.O.~ , ' 7.Y.;.0 '  .@.K K [ q.7.S y..X3Xz.6.G 3.l.zXiXiXyXyXyXjXyXyXrX",
"yXyXkXpXkXyXyXkXyXyXyXkXyXyXyXyXeXmXv.g D #XfXc.G ' ) ( l.J O.3 s.i.-.q g   % = } K ) _.E.j.8.z.XX~.<.<.6.p.+XMXpXyXtXjXkXyXrXpX",
"yXyXyXkXyXbXkXpXyXkXyXyXkXyXyXbXNXeXQ.oXAXgXVXR.J [ > ) Z.5._ d.x.t.i 7 # . * = L W > [.^./.z.2.Y.~.<.-.9.y.].vXpXyXyXjXtXyXyXrX",
"kXyXyXbXyXkXpXkXyXyXyXyXyXyXyXyXMXtXH.<XSX] kXH.{ ( E [ x.5.v c.k.p 8 + X * , K L L > w.!.~.z.1.t..X:.A r.y.Z.vXyXrXyXqXqXwXyXrX",
"yXyXyXyXyXyXkXyXyXyXkXyXrXyXrXyXrXnXhX>X<X) *XS.P P t a.B 1.u.U.3.8 9 # 5 , , ^ I P > q.W.W.z.,.1..X:.:.S i.$XiXpXrXyXyXjXyXyXyX",
"bXyXyXyXyXkXbXyXkXyXyXyXyXyXyXkXkXqXkX,XCXL.W T T T F G r.6.i.i.8 9 j 1 ^ F.K._ f V B U.Q.V.u.:.:..X;.<.t.V.vXpXpXrXyXjXjXjXyXyX",
"yXyXyXkXyXyXyXkXyXyXkXyXyXyXyXyXlXnXnX@XCXCX} T e.n.H + J u.i.=.q z < 4 U 5 : y 0.z./.~./.z.8.Z :..XZ Z y.+XiXpXrXpXkXyXjXkXyXrX",
"kXyXyXkXyXkXyXyXyXyXyXyXyXyXyXyXyXbXtX@XZXZXCX;X4Xl.f r q.U.u.e o o @ # X . h S y.M.R.R.U.t.:.B G }.<.Z i.dXiXpXyXyXyXjXjXkXyXyX",
"yXyXyXyXyXkXbXyXkXyXyXkXyXyXwXyXyXyXbX$XlXZXZXVX#X4.O H R.4XXX0.q 6 + d % X h S r.k.x.z.t.-.N m 3.R.A <.p.VXpXpXyXkXwXyXkXjXpXrX",
"bXyXyXyXyXkXyXkXyXyXyXyXyXtXyXyXbXwXhX>XSXCXAX%Xg.s r !.4XxXW.t.M 6 6 + c % h Z 1.u.i.t.2.&.;.m 3.^.1.A r.zXpXpXpXyXkXjXjXkXkXyX",
"yXyXyXkXyXpXkXkXyXyXkXyXyXyXyXkX0XnX>Xl ,X;XOXb.c k +XfXVXfX X6.Z N 8   4 Q h m 1.>.n Y.t.r.p M V uXx.3.H zXNXyXyXbXkXkXbXbXyXyX",
"kXyXkXyXyXyXkXyXeXnX0XyXbXyXtXyXbXyXlX' j > - s F %XZXAXVXfXm.:.Z n h < 4 4 d Z M n Q.cXM.t.2.%.m 4XuX^.l.v.NXyXpXyXyXhXkXkXkXyX",
"bXyXyXyXyXbXyXbXkXbXkXkXbX9X0XyXtXvXvX@XN.- K.lXCXAXVXZXVXfXi.M >.Z z Q 4 4 < y b W.BXzX2Xu.2.-.N x.mXMXuXNXtXbXyXyXyXkXyXkXbXkX",
"yXyXyXyXyXyXyXkXbXyXqXkXkX=X'.H.(.n.x.k.$X; s ;XBXZXZXAXxX~.8.1.A ,.n z o...| c g mX7XkXjXoX0.8.;.B mXuXvXvXvXbXyXyXkXyXyXbXkXkX",
"yXyXkXyXyXyXbXyX0XkXbXyXOX@X9XbXeX].l.7.s.s.X s.$XZXZXcX4Xu.>.8.;.N p f +. .| c a 2XNXyXyXbX!.p.G B (.pXNXvXnXbXyXyXyXkXyXyXbXkX",
"pXyXyXkXkXyXyXkXbXyXeXyX'.qXtX9XMXiXbXkXNXjXN.F s.nXZXcXk.5.k.3.G 5.c.).+.@.| k d ^.tXrXbXbXjX+Xp.G G -XeXnXbX9XkXkXkXwXyXbXyXbX",
"yXyXyXyXyXbXbXyXyXkXkXkX_.kXbXkXpXpXyXkX>XnXqXSXqX-XZXB.7.W.uXcXBXgXcXqX+. .Q h 9 V aXyXpXbXNXgX2XQ.4.q.MXpXbXNXwXkXyXyXkXyXpXyX",
"yXyXyXyXyXyXyXyXtXkXkXkX_.qXqXyXrXyXkXwXnXjXbXrXrXbX;XV.D 2XMXpXkXnX7X>Xo.~ : a 4.sXpXpXpXpXtXjXcXxXE.p.vXpXyXrXkXkXyXjXyXyXyXyX",
"yXyXyXkXyXkXpXkXkXyXyXyX'.tXyXyXkXkXrXkXlXyXpXpXyXeXvXV.G cXtXbXbXqXnXg.k X.2XzXaXpXpXpXpXpXtXjXvXcX).7.bXpXpXyXyXhXyXyXyXyXyXyX",
"yXyXyXbXkXyXkXkXyXyXyXkX=X-XyXyXtXbXeX0XnXkXyXbXkXtXvXv.q.BXbXiXnXjX@XH qXlXbXvXtXpXyXyXyXrXyXjXnXiX+Xq.vXpXbXrXyXyXrXrXrXyXyXyX",
"yXkXyXyXyXkXpXkXbXyXyXbX0X=XyXyXbX8XnXbXkXrXkX9XbXvXzXC.b.vXbXkXvXzX`.`.tXNXtXyXyX0XyXyXyXyXwXtXqXvXpXf.qXtXpXiXrXrXrXrXrXyX0XeX",
"yXyXyXyXkXpXyXkXyXbXrXyXkXkX9XH.f.F -XbXyXyX0XkXiXvXjX@XH.jXbXtX7XvXOXa.jXqXbXyXyX0XyX0XrXrXwXyXeXeXeXC.eX0XpXeXyXtXrXrX0X0XeXwX",
"yXyXkXyXyXyXbXyXyXyXyXkXyXyXkX=XC.O b.kXkXkXkXjXtXjXjX].`.tXbXtXbXjX_.f @XpX0XrXeXyX0XyX0XyX0XyXiXiXeX`.@XeXeXyX0XyXrX0X0X0X0XqX",
"kXyXyXyXyXyXbXyX0XyXyXkXyXyXbXbXpX6XtX0X0XyXyXqXtXvX7Xa.6XtXtXkXtXtX`.; H.eXyX9X0X0XrX0X0X0X0X0X0X9XiX'.f.pXrXeX0XrX0X0X0X0X0XqX",
"yXyXyXyXyXkXkXyXyXkXyXyXyXkXkX=XtXtXyXnXyXyXbXkXtXbXvXa.6XpXtXbXqXvX=Xb.rXeX=XrX0X0X0X0X0X0X0XqXrXtX9XeXf.'.tXrX0X0X0X0X0X0X0XrX",
"yXyXyXyXyXkXyXyXbXyXyXkXyXqXrXNXkXqXyXyXqXkX0XkXtXbXbXC.sXkXqX0XyX9XyX5X9X5XyX9X0XrX0X0XrXrX0XrX5XrX5XiXC.` w.9XeX0X0X0X0X0XrXrX",
"kXyXyXbXyXyXyXyX0XkXbXrXyXbXyXwXyXkXqXyXkXkXkXyXbXvX7Xb.tXyXtXpXeXyXrXeX0XrXrX0XrXrXrXrXrXrXrXrXrX0XpX5XrXC ; rX0X9X0X0X0X0XrXrX",
"yXyXyXyXyXyXkXyXkXkXyXyXkXyXyXkXyXyXyXyXkXjXwXjXyXbXpXC.6XyXkXyXrXpXrXrXyXrXrXpXrXrXrXrXrXrXrXrXrXrXrX6XyX_.f.eXrXeXrXrXrXrXrXrX",
"yXkXyXyXbXyXyXyXyXyXyXyXyXyXyXyXyXyXyXkXkXyXkXyXpXvXeXH.6XyXkXyXyXrXrXpXrXrXrXrXpXrXrXrXrXyXrXrXrX0XrXyX0XyX9X0X0XrXrXrXrXrXrXrX",
"yXyXyXkXyXyXyXyXyXyXyXkXyXyXyXyXrXyXyXkXkXjXkXkXkXjXtX_.6X0XkXyXpXyXrXrXrXpXyXrXrXrXpXrXrXrXyXpXrXrXrX0XyXyXbXqXrXyXrXrXrXrXrXrX",
"yXkXyXyXyXyXkXyXyXkXyXyXpXyXyXkXyXyXkXkXkXhXkXjXpXyXyX6X9XpXkX0XyXrXrXyXyXrXyXrXyXrXrXrXpXrXrXrXrXMX0XyXyX9X0XbXyXrXrXyXyXrXyXyX",
"yXkXyXyXyXyXkXyXkXyXyXkXkXyXyXkXpXyXyXyXlXyXjXwXtXyXbXyXyXrXyXyXyXyXyXrXyXrXyXrXyXrXpXyXrXpXrXpXrXrXrXbXyXyXpXyXyXrXyXrXyXrXpXyX",
"yXyXyXyXyXyXyXyXyXyXyXyXyXyXyXyXpXyXyXkXwXlXyXjXkXtXiXpXyXyXkXyXyXyXrXyXyXyXyXyXyXrXyXrXrXrXyXrXbXrXyXyX0XyXrXrXrXpXrXpXyXyXyXyX",
"yXyXbXyXyXkXyXyXyXyXyXyXyXyXyXyXyXyXyXyXyXwXjXyXtXyXrXpXyX0XyXyXrXyXyXwXyXyXrXyXyXyXpXrXpXyXrXyXrXyXpXkXbXyXrXNXpXyXyXrXyXyXyXjX",
"yXyXyXyXyXyXyXyXbXyXyXyXkXyXyXyXyXrXyXyXwXlXyXjXyXyXpXpXkX0XyXwXyXwXwXyXwXyXyXrXrXyXyXyXrXyXyXyXrXkXrXyXrXyXpXrXrXyXrXyXrXyXkXtX"
};
