/* XPM */
static char *_c0cd296028f4701ec3743e62714bf30sZbpn9d5u17cB0Bq[] = {
/* columns rows colors chars-per-pixel */
"64 64 246 2 ",
"   c #36130B",
".  c #37281D",
"X  c #201F27",
"o  c #0E223D",
"O  c #282737",
"+  c #151D28",
"@  c #573107",
"#  c #6D2E1A",
"$  c #452A26",
"%  c #503A32",
"&  c #773134",
"*  c #421711",
"=  c #5C4018",
"-  c #7C4E18",
";  c #5E4335",
":  c #694733",
">  c #764D30",
",  c #182D4C",
"<  c #272A45",
"1  c #2A344B",
"2  c #383646",
"3  c #2D324E",
"4  c #0F386D",
"5  c #2C3E62",
"6  c #433843",
"7  c #4B3C51",
"8  c #75334B",
"9  c #35475A",
"0  c #314551",
"q  c #19457C",
"w  c #384C67",
"e  c #2A4B76",
"r  c #3D5774",
"t  c #354B67",
"y  c #594A48",
"u  c #535153",
"i  c #67474C",
"p  c #695B46",
"a  c #775648",
"s  c #644A53",
"d  c #705659",
"f  c #6F625A",
"g  c #454C67",
"h  c #4B5466",
"j  c #565869",
"k  c #465A77",
"l  c #545A79",
"z  c #6B566A",
"x  c #775368",
"c  c #49637A",
"v  c #55637B",
"b  c #58737D",
"n  c #5A656C",
"m  c #776764",
"M  c #67647A",
"N  c #796476",
"B  c #6B6F6F",
"V  c #883E1D",
"C  c #82320D",
"Z  c #923434",
"A  c #8B461B",
"S  c #8C4528",
"D  c #924624",
"F  c #8F5732",
"G  c #AB5B36",
"H  c #9E7037",
"J  c #AB6C3D",
"K  c #8F3B4C",
"L  c #97585A",
"P  c #84524C",
"I  c #AF544E",
"U  c #866958",
"Y  c #907150",
"T  c #A86846",
"R  c #A87B4B",
"E  c #B87946",
"W  c #865D66",
"Q  c #8B536D",
"!  c #88766A",
"~  c #876A7A",
"^  c #9B6A78",
"/  c #88757A",
"(  c #8D6F6C",
")  c #AE6E6F",
"_  c #CE7976",
"`  c #7A8076",
"'  c #A1815A",
"]  c #928578",
"[  c #B58869",
"{  c #B88775",
"}  c #AD8C6F",
"|  c #C4976A",
" . c #CAA66D",
".. c #165497",
"X. c #104F92",
"o. c #366099",
"O. c #225FA0",
"+. c #335D8F",
"@. c #565F80",
"#. c #4B6584",
"$. c #526A8B",
"%. c #576783",
"&. c #5D738B",
"*. c #5B7487",
"=. c #5A7395",
"-. c #636B84",
";. c #6A758B",
":. c #63798A",
">. c #637389",
",. c #77778A",
"<. c #637494",
"1. c #697B95",
"2. c #687A97",
"3. c #777C95",
"4. c #756F86",
"5. c #5E73A2",
"6. c #707CA2",
"7. c #877787",
"8. c #967989",
"9. c #9C7A97",
"0. c #91748C",
"q. c #AF6F8A",
"w. c #688496",
"e. c #778799",
"r. c #79909E",
"t. c #748BA3",
"y. c #7A89A7",
"u. c #7B94A7",
"i. c #768EB6",
"p. c #6B92C8",
"a. c #868798",
"s. c #948A9A",
"d. c #87919D",
"f. c #948A8A",
"g. c #AE8989",
"h. c #B49597",
"j. c #AD9392",
"k. c #BFA19F",
"l. c #878BA5",
"z. c #8C91A5",
"x. c #8795AA",
"c. c #9896A8",
"v. c #8C99B7",
"b. c #979DB4",
"n. c #AA99A9",
"m. c #B799A1",
"M. c #A89AB6",
"N. c #99A5B8",
"B. c #94A7B0",
"V. c #A6A9BC",
"C. c #B8AAB8",
"Z. c #A7B3BD",
"A. c #BAB4B8",
"S. c #AFA4A7",
"D. c #C8938F",
"F. c #D2A998",
"G. c #C8ABBA",
"H. c #C8B7B9",
"J. c #CAAFAB",
"K. c #E0A8A2",
"L. c #DCC0B6",
"P. c #EBC5B0",
"I. c #8299C2",
"U. c #99ACC5",
"Y. c #A8ACC4",
"T. c #B7ACC3",
"R. c #A8B9CA",
"E. c #B9B6C8",
"W. c #A3B5D7",
"Q. c #B9BCD4",
"!. c #A4ACD0",
"~. c #AEB7E0",
"^. c #C7B9C8",
"/. c #D4BDCC",
"(. c #CCBED2",
"). c #C8AFC9",
"_. c #EBB7C4",
"`. c #B7C5D6",
"'. c #B7C9E2",
"]. c #C4C4CA",
"[. c #D8C5CA",
"{. c #C4C2D4",
"}. c #CFC2D4",
"|. c #C8C8DA",
" X c #DBC5D5",
".X c #D3CADC",
"XX c #DBCCDE",
"oX c #D5C8D5",
"OX c #C8D1D8",
"+X c #D9D4D8",
"@X c #D4D0C7",
"#X c #E9CACA",
"$X c #F1C8CD",
"%X c #E7CCDA",
"&X c #F3CCDA",
"*X c #E4D3DC",
"=X c #E9D4DB",
"-X c #F4D5DC",
";X c #F7D7D7",
":X c #FFD4CB",
">X c #F9E2DD",
",X c #D9CDE2",
"<X c #D0C7E4",
"1X c #C9D2E4",
"2X c #D9D8E6",
"3X c #DADAF6",
"4X c #C8CCE7",
"5X c #EBCEE4",
"6X c #ECD3E2",
"7X c #EEDAE4",
"8X c #E4DAEC",
"9X c #EDDCEB",
"0X c #E6D7E7",
"qX c #F4D4E4",
"wX c #FBD5E6",
"eX c #F4DBE4",
"rX c #FCDCE5",
"tX c #FDD6E9",
"yX c #F5DDEC",
"uX c #FEDDED",
"iX c #F7D6E9",
"pX c #EBDCF4",
"aX c #F4DEF1",
"sX c #FDDEF1",
"dX c #FDDEFA",
"fX c #D9E3E7",
"gX c #D9E8F3",
"hX c #E6E7E8",
"jX c #FDE1E5",
"kX c #F5E2ED",
"lX c #FEE0EE",
"zX c #F9EAE9",
"xX c #ECF2ED",
"cX c #EDE2F3",
"vX c #EAE7F7",
"bX c #F4E2F3",
"nX c #FEE2F1",
"mX c #FDEAF4",
"MX c #FDE5FA",
"NX c #FEEBFA",
"BX c #F4E8FA",
"VX c #EBF8FD",
"CX c #FCF3FD",
"ZX c #F5FDFF",
"AX c #FDFCFE",
"SX c #F5F4FB",
/* pixels */
"nXnXlXnXuXnXuXlXsXlXnXlXlXlXnXuXlXlXjXjXlXzXbXbXnXbXjXzXzXjXlXnXnXlXlXmXlXjXlXlXlXnXuXnXsXsXsXnXlXnXlXnXlXnXuXlXsXlXlXuXuXlXuXnX",
"lXnXnXlXnXlXnXlXnXlXuXnXsXlXlXlXlXlXjXlXlXnXnXlXnXnXzX;XjXlXyXnXlXuXlXlXlXlXnXnXlXsXnXuXuXuXlXsXuXuXuXuXnXnXnXlXnXlXuXlXuXlXuXnX",
"nXnXuXnXuXnXnXlXuXuXnXuXuXnXnXuXlXlXjXlXlXlXlXlXnXrXlXlXmXrXnXyXnXlXlXjXlXlXlXlXuXuXsXuXuXuXuXuXuXuXuXlXuXnXnXuXuXlXuXuXuXnXuXnX",
"uXlXnXuXlXnXuXnXnXlXlXnXnXlXlXnXlXlXlXlXjXlXlXlXrXnXjXlXrXnXrXeXrXlXlXlXlXlXlXlXlXlXuXlXnXsXnXuXlXuXuXnXlXnXlXnXnXlXsXuXuXuXuXlX",
"lXnXuXnXlXlXuXuXuXlXuXuXuXuXnXlXlXkXbXzXlXjXrXyXlXlXtXkXnXH.y m =XeXjXjXjXlXlXlXlXlXlXlXnXlXnXnXnXlXlXuXnXnXlXlXnXuXnXuXuXuXlXnX",
"nXuXnXnXuXuXnXuXlXuXnXnXuXlXlXuXlXbXlXlXlXlXjXjXlXtXnXNXG.%   ! #XeXlXjXlXjXlXjXnXlXnXnXnXnXnXnXnXuXnXuXlXnXsXlXlXnXuXlXuXlXuXlX",
"lXnXuXuXnXnXuXlXuXnXlXuXnXuXuXlXlXuXuXkXlXjXjXjXjXnXsXuXW   a h.$XzXlXjXlXjXrXrXlXlXnXnXlXnXsXlXnXuXlXnXnXlXsXlXlXsXuXuXuXlXuXnX",
"lXuXuXlXuXuXlXuXuXuXuXlXuXuXnXuXlXuXuXlXlXzXjXkXkXnXsXwXi * ) F.;XlXlXrXjXlXlXlXuXuXuXuXuXuXsXuXuXuXuXlXlXnXlXnXlXlXlXuXuXuXuXnX",
"nXuXlXsXuXnXuXlXnXuXnXuXuXuXlXlXrXuXuXlXlXkXkXjXnXyXyXuXU ; } P.#XlXlXrXlXrXrXuXuXuXuXrXuXnXuXuXyXuXuXnXnXnXnXuXnXuXuXuXuXuXlXnX",
"lXnXlXlXnXlXnXnXnXlXuXuXuXuXlXuXjXrXuXlXsXuXlXkXyXNXsX-XJ.: ' P.;X;XlXrXuXnXlXuXuXlXuXuXlXlXuXnXuXuXuXlXlXnXlXlXnXuXnXuXlXlXuXuX",
"nXlXnXlXuXnXnXuXuXuXlXuXuXlXuXlXjXlXrXlXsXuXuXsXuXtXuXlXP.Y Y D.jXwXlXrXwXuXuXuXuXnXuXuXnXuXyXnXuXuXuXuXuXnXlXuXuXlXuXuXlXsXnXuX",
"nXnXuXnXlXuXlXuXnXlXuXnXuXlXuXlXjXlXlXlXlXuXsXsXdXsXuX$XW ) _ _.jXlXkXlXuXuXuXlXuXlXuXsXnXyXlXyXuXuXuXuXnXlXnXuXlXuXnXuXuXlXuXlX",
"uXuXnXuXsXlXuXuXlXlXlXlXlXuXuXlXrXuXrXuXlXuXlXsXsXtXuX_.& K ) K.G.&XnXnXnXyXsXsXuXwXnXuXyXkXNXjXlXuXuXuXnXlXnXuXuXuXuXuXlXsXlXuX",
"lXnXlXnXlXlXnXlXnXsXlXsXuXlXuXuXuXuXlXlXjXlXyXsXuXnX&XD.^ 8 8 Q x G.aXyXsXyXbXsXyX%XkXkXnXlXjX=XkXuXuXlXuXlXuXnXuXuXlXlXuXlXuXlX",
"lXuXuXlXuXnXuXlXuXnXlXlXnXuXuXnXsXbXkXjXjXuXuXuXkXjXG.G.*X7.6 < u 9.aXaXMXnXnXnXqX XyXeXmXkX+X[.kXlXuXuXuXnXnXuXyXnXuXuXlXuXlXsX",
"uXuXnXuXnXlXnXnXuXnXnXsXlXuXuXkXaXkXkXjXlXrXuXuXrXmXH.OXhXR.g 5 w 4.8XaXMXkXeXnXyXXX9X0XCXkXH. XuXsXlXuXuXnXlXlXuXuXuXnXuXlXuXlX",
"lXlXlXlXjXlXlXlXsXnXsXnXnXnXlXjXjXjXjX;XlXuXuXsXyXbX].fXfXY.t e +.5.<XyXnXyXlXkX9XV.Z.1XvXOX*X>XlXlXuXlXlXnXuXuXuXuXuXlXuXuXlXuX",
"lXkXlXlXlXlXlXlXnXnXnXsXnXlXlXlXlXyXjXjXlXrXsXsXnX2X`.fXcXa.4 +.O.p.3XMXnXlXjXjX}.4.;.`.OXA.[.jXlXrXuXuXuXlXuXlXlXuXyXuXuXuXuXuX",
"lXlXlXlXlXlXlXnXnXsXnXlXuXlXrXuXsXsXlXjXsXsXsXsXeX.XOXgX^.g e O...p.3XMXyXyXlX7XE.j e.E.OXhX X>XlXuXuXuXuXnXnXuXuXuXuXlXuXlXlXuX",
"lXlXlXlXlXuXlXuXnXsXuXuXuXlXlXnXMXaXjXjXnXdXsXsX+X`.fXfX,X3.q X.X.p.vXkXlXlXyXoXC.h e.1XVXCXkXkXkXuXyXlXuXnXlXuXnXuXuXuXuXuXsXyX",
"lXlXlXlXlXuXnXuXlXuXlXuXuXlXuXuXsXbXjXlXjXjXlXkX.X].hXfXE.@.4 ..X.p.pXsXrXjX9X|.`.j ;.1XAXAX9XeXuXuXuXuXlXnXuXnXnXuXuXlXuXuXuXuX",
"lXlXlXlXlXlXnXlXuXlXuXlXrXrXuXuXsXnXnXrXjXrXjXbX^.{.fXhXs., 4 4 e I.pXnXrXzX2X1X{.v >.`.vXCX}.%XlXuXyXsXuXlXlXnXuXuXnXuXlXuXyXlX",
"lXlXnXuXlXlXlXlXlXlXuXlXuXuXuXsXsXuXsXuXuXkXbXbX|.Q.gXfX+XS.;.1 t d.#X:XP.:XOX1XV.v v R.ZXxXXXbXyXuXrXuXlXnXuXuXlXuXuXlXlXuXuXuX",
"lXlXuXlXnXnXlXnXlXlXrXrXrXuXkXsXsXsXuXsXsXsXnXMXpXT.1XOX].oX(.g n / D.[ F.g.`.'.r.9 v d.xXzX*XnXnXuXuXuXuXnXlXnXnXlXlXsXlXuXuXlX",
"rXrXlXnXlXnXkXlXrXlXlXrXnXnXyXMXpX,X0XbXnXsXtXdXdX).M.s.N 4.v.g f } | J E } E.'.w.0 w B A.+X-XlXuXyXuXuXlXnXlXsXnXuXlXuXnXuXnXuX",
"lXlXuXlXnXnXsXlXrXlXrXlXyXnXaX,XV.z.b..X9XnXMXtXtX0.s s z < k 3 p Y J G V { OX`.*.0 0 0 j.A.7XmXuXuXuXlXuXnXlXlXuXnXuXnXlXnXnXlX",
"lXuXlXnXsXnXlXlXlXjXrXlXyXbX8XV.r.t.e.Z.kXkXqX&X_.8 # ( 0.l e 9 ; S S D S K.oXN.&.k t j OXxXjXtXuXuXuXuXnXlXlXuXnXuXlXuXuXlXuXuX",
"lXlXuXuXnXnXuXuXjXrXlXlXkXcX|.l.w.w.:.e.+XA.a.~ L # V | f 3 e r y > F H L D.T.Y.2.<.k M fXxXkXMXuXuXuXuXuXnXnXuXuXlXuXuXuXnXuXlX",
"rXlXuXnXsXsXsXuXuXrXlXkXbX8XV.1.*.2.Q.E.B.&.*.7.K # G R p u b r.m a Y { L 0.n.M.3.v.1.-.(.0XdXsXnXuXuXuXnXuXlXuXuXuXuXuXuXuXuXuX",
"lXrXlXsXnXsXsXuXuXrXlXkXcX2Xl.<.$.t.pX{.3.t.v.c.& Z J @ = ] b e.f.m ! } ^ Q 9.9.y.'.Y.j ,.XXpXsXuXyXuXuXyXlXuXnXuXuXyXuXuXlXlXyX",
"jXlXlXsXsXsXsXsXuXtXlXkXcX|.u.>.$.x.4Xl.3.V.Q.h.& G V # X O 1 %.d.f.] ] q.x x 4.z.gX2Xn.a.0XyXmXuXuXyXuXuXuXlXuXuXuXrXuXuXuXuXuX",
"rXrXuXnXsXsXsXsXuXuXrXnXcX|.x.&.%.w.R.3.z.V.E.8.Z T C # . X 1 k x.a.B 7.M.x P ^ A.xX+XzXeX=XmXeXuXrXuXuXuXuXuXnXuXuXuXyXuXyXuXuX",
"lXuXuXuXuXuXnXrXuXuXtXsXbX.Xe.:.*.w.b.4.z.E.E.x # Z A - = . 2 3 <.v.;.-.s.W I I K./.k.lX#X&XlXrXlXyXrXuXuXlXuXuXnXuXyXuXuXuXtXtX",
"lXuXuXuXuXuXlXlXuXuXsXuXaX2Xz.:.c y.v.@.l.!.E.z & Z F H F @ $ O w i.t.%.,./ K Z ) _ F.tXg.-XrXlXrXuXuXuXuXyXuXuXuXyXuXuXuXuXrXyX",
"uXuXuXuXuXnXlXlXwXuXsXuXbX8XZ.:.$.I.i.@.y.!.W.v.z s Y  . .H > % 3 w.u.>.z 7.Q K Z I P.>Xm.uXyXlXlXuXyXuXuXlXlXuXuXuXuXuXuXuXnXuX",
"nXuXuXuXuXuXuXlXuXrXsXsXaXvXQ.w.$.i.i.@.6.i.W.W.v.4.y p R H P ; 1 r e.e.h 7 q.q.K _ mXzX&XsXnXjXkXlXuXuXuXuXuXuXrXuXyXuXuXuXuXlX",
"uXuXuXsXuXuXnXlXlXrXuXuXaXcX1Xe.*.t.u.c c t.U.R.Y.v.-.%     % 2 o 5 y.b.l O s.).h.;XAXkXwXnXsXsXuXuXuXuXuXnXlXuXuXuXuXuXuXuXlXuX",
"lXuXuXuXuXsXuXuXlXuXuXsXaXbX2Xz.b w.u.v c w.u.B.N.t.$.h . . 2 o , k !.`.a.2 M (.kXAXAXkXqXrXuXnXnXnXuXuXuXuXuXuXlXnXuXuXlXlXuXnX",
"sXuXuXsXsXuXuXuXrXuXtXsXsXcX8Xz.b e.y.l +.#.w.u.i.y.$.g . ; O o 3 =.'.'.Z.n y m.xXSXAXCX;XrXuXnXuXnXyXkXlXnXlXnXnXuXuXlXkXlXlXkX",
"uXuXuXuXuXuXnXlXuXuXuXuXyX9X8Xa.-.x.x.k c #.w.r.1.2.#.h ; : + , r <.R.gXfXn.y ~ ^.SXAXzXL.;XnXyXlXuXlXlXnXuXnXuXnXlXlXsXuXlXlXsX",
"uXuXuXuXuXsXuXuXlXrXrXuXsXnX.X,.;.`.x.r c &.r.N.l %.@.g a % + 9 #.$.Y.gXxXfXj.f ] J.H.} j.jXmXbXkXlXmXlXyXnXnXnXuXlXuXlXlXkXlXlX",
"nXuXsXuXsXuXuXsXyXlXuXsXnX9XA.c.R.3Xu.k %.:.E.8Xa.l k u : > u h l &.N.fXZXZX+Xj.p $ > a H.eXcXcXnXyXkXnXnXnXuXnXnXuXuXuXsXlXnXuX",
"uXuXuXuXuXsXuXlXrXnXlXwXnXyX X8XkX8X>.#.5.l.3XBX1X-.h y S F p n k #.d.8XZXVXZXxX@X! y j.^.8XBXNXNXmXnXlXlXnXuXnXnXlXlXuXlXuXlXuX",
"lXuXsXuXsXsXsXkXlXrXuXrXuXsXaXnXnX}.l $.6.W.dXaXBXd.n p R R p n $.$.e.|.VXZXZXZXhXB s [.n.Q.,X0XyXmXCXbXjXnXlXlXuXuXuXnXuXnXnXuX",
"uXuXtXsXsXsXtXsXjXyXrXlXuXuXsX9XdXc.@.2.b.0XdXdXbXs.p m  .[ u k $.=.<.v.gXZXZXvXA.6 4.c.a.l.T.(.XXkXmXmXlXnXlXlXnXuXuXuXnXlXlXuX",
"sXuXsXsXsXsXsXuXlXlXtXlXsXwXnXdX(.M <.l..XaXsXsXmX/ y ' |  .B w k #.<.t.1XVXVX+Xm z T.E.{.,XbXMX7X*XkXbXbXlXlXnXuXsXuXuXuXuXnXuX",
"lXuXuXtXsXsXuXlXrXlXrXuXsXtXiXpXM.%.v.`.kXlXtXyX}.j u ' [ F.H.A.c.b.Y.3.N.VXSXH.m.&XkXnX9XBXnXyXnX+X=XkXkXuXlXnXuXuXuXtXuXuXuXuX",
"uXuXsXuXuXuXnXlXlXyXnXrXtXnXsXpXa.x.4XBXkXjXjXjXA.0 ; Y [ P.jXkXbXcXcXY.,.2XBXhXjXlXrXuXnXjXjXkXkX+X0XlXyXlXnXuXuXuXuXuXuXuXuXuX",
"uXuXsXuXnXuXlXlXlXrXlXuXuXuXuX6Xs.|.cXBXsXsXrXrX=Xj.y y ( F.>XjXkXMX9X(.,.1XBXsXuXuXuXuXeXlXnXeXkX*X7XkXkXyXuXuXuXuXuXtXuXuXtXuX",
"sXuXuXsXlXlXkXuXuXrXuXrXuXuXtX5Xc.,XbXbXsXsXtXuXlX-X=XS.! f.[.eXuXaXkX^.,.2XcXsXuXuXsXwXrXeXeXyXjX0XeXlXtXuXuXuXtXtXtXtXtXtXtXtX",
"sXuXuXuXlXuXlXuXuXuXsXuXuXuXyX%Xn.8XbXsXnXsXuXuXyXjXjXzX7Xh.8.&XuXuXyXoX,.|.0XsXwXwXuXtXnXjXtXyXkX=XyXyXeXuXuXtXtXtXtXtXwXwXwXtX",
"uXuXuXlXuXuXlXuXuXuXuXuXuXyXyXoXC.bXbXbXnXuXuXuXlXkX7X7XnX5Xj.5XsXsXeX8Xd.E.9XuXuXuXuXtX&XtXyXiX6XqXyXyXiXuXwXrXtXtXwXtXwXwXwXwX",
"uXsXuXuXuXnXsXuXuXuXuXuXsXbXnX/.A.bXyXyXsXuXsXuXuXeXaXnXnX9Xn.5XsXsX6XeXc.{.aXiXqXuXiXtXuX&X%X5X%XqXyXtXeXwXwXwXtXwXwXwXwXwXwXwX",
"uXuXuXlXuXuXuXuXuXsXuXuXnXyXbX^./.kXyXsXsXuXuXuXqXnXyX9XaX X9.5XtXiXyX9XC.2XsXiXiXwXqXtX5XW ~ G.%X-XtXeXqXtXwXwXwXwXwXwXwXwXwXtX",
"uXuXuXuXuXuXuXuXsXtXuXsXbXyXaXC. XkXyXuXuXuXuXuXsXsXaXbXaXn.N 5XtXwXuX6XE.,XaXtXtXiXtXwX/.i 8.5XqXqXtXiXtXtXqXwXwXwXwXwXwXwXtXtX",
"uXuXuXuXuXuXuXuXtXsXsXsXbXbXpXC.=XyXkXnXwXuXuXuXnXyXnXaXaX7.z iXuXuXqXeXT.T.5XtXtXtXtXwX&Xh.5XiXuXiXiXqXtXtXqXtXwXwXwXwXtXwXtXtX",
"uXuXsXuXuXuXuXuXsXtXsXsXaXbX,Xn.yXyXuXyXnXuXnXuXlXuXnXyXaXC.7.yXuXtXrXyXT.T.uXuXtXuXtXtXtXtXtXsXuXtXtXtXtXtXtXtXwXwXtXtXtXtXtXuX",
"lXuXuXuXuXuXuXuXsXsXuXsXbX Xn.G.yXuXuXsXuXnXrXlXrXyXyXjXsXeX#XnXsXtXuXuX^.).sXtXtXtXsXtXyXrXtXuXtXtXuXtXtXtXtXtXtXtXtXtXtXtXtXtX",
"uXuXuXuXuXuXuXuXsXuXuXnXaX8.z oXuXuXuXuXnXnXuXrXlXlXrXkXyXrXnXeXsXuXwXkX(.(.sXtXtXuXtXuXrXrXuXtXtXuXtXtXtXtXtXuXtXtXtXuXtXtXuXtX",
"uXsXuXuXuXuXuXuXuXtXsXuXsX~ N qXsXuXsXnXuXlXlXlXrXlXrXjXlXtXrXlXsXuXrXuX(.oXsXtXtXuXsXtXrXrXuXuXuXtXuXtXuXuXtXuXtXuXuXtXuXuXtXuX",
"uXuXuXuXuXyXlXlXuXlXuXwXnXG./.yXuXsXuXuXsXyXlXrXrXlXrXeXuXlXlXlXuXuXuXsX(.oXdXtXtXuXuXuXrXuXtXuXuXuXtXsXsXuXtXtXtXuXuXuXuXuXtXuX",
"uXsXuXuXuXuXlXrXuXnXtXuXnXyXnXuXuXsXuXuXuXjXlXlXlXrXlXuXiXsXtXyXtXuXuXyX(..XsXtXuXuXuXuXrXrXuXuXtXuXtXuXtXuXuXuXuXsXtXtXtXuXtXuX",
"uXuXsXuXlXlXjXlXuXuXrXnXuXuXuXwXuXuXuXuXuXyXuXuXuXtXuXnXsXuXsXnXsXtXuXiX(.XXdXtXuXtXuXuXrXrXuXtXuXuXuXuXuXuXuXsXuXuXuXuXuXtXuXuX",
"uXsXuXuXyXlXyXrXlXtXuXuXuXuXuXnXsXuXuXuXrXyXuXyXyXnXuXwXsXsXtXsXsXyXsXtX(.,XsXtXuXuXuXrXrXrXtXsXtXtXuXuXtXuXuXuXuXuXsXtXuXuXsXtX"
};
