/* XPM */
static char *p31673446096[] = {
/* columns rows colors chars-per-pixel */
"64 64 253 2 ",
"   c #091A1C",
".  c #181819",
"X  c #100E10",
"o  c #261A17",
"O  c #2D1810",
"+  c #39231B",
"@  c #25241C",
"#  c #191B23",
"$  c #0B1A29",
"%  c #381826",
"&  c #2A1921",
"*  c #162529",
"=  c #1A2B35",
"-  c #122A2F",
";  c #26292B",
":  c #362625",
">  c #28322C",
",  c #292A33",
"<  c #3A2934",
"1  c #2A3237",
"2  c #373539",
"3  c #39372B",
"4  c #142117",
"5  c #5A0918",
"6  c #690A19",
"7  c #77061B",
"8  c #6E0C17",
"9  c #51152A",
"0  c #711026",
"q  c #462D27",
"w  c #473729",
"e  c #483C37",
"r  c #4D322F",
"t  c #742C39",
"y  c #4C331D",
"u  c #514438",
"i  c #654937",
"p  c #6C523B",
"a  c #283847",
"s  c #393643",
"d  c #17354A",
"f  c #593B47",
"g  c #4B3749",
"h  c #703247",
"j  c #0F4859",
"k  c #3A4648",
"l  c #2B4A59",
"z  c #374C5A",
"x  c #37505D",
"c  c #275157",
"v  c #0C566F",
"b  c #284D65",
"n  c #384D61",
"m  c #2A5567",
"M  c #375767",
"N  c #3A5970",
"B  c #2B5A76",
"V  c #3C6777",
"C  c #326669",
"Z  c #464849",
"A  c #554A47",
"S  c #494855",
"D  c #485458",
"F  c #555758",
"G  c #554D54",
"H  c #635349",
"J  c #684C53",
"K  c #635858",
"L  c #734E4C",
"P  c #756A59",
"I  c #465B6B",
"U  c #575C66",
"Y  c #475D75",
"T  c #555972",
"R  c #5D4F69",
"E  c #695A64",
"W  c #5A6669",
"Q  c #436976",
"!  c #586C77",
"~  c #4C727B",
"^  c #59747A",
"/  c #496069",
"(  c #66696B",
")  c #756B65",
"_  c #656B75",
"`  c #756A74",
"'  c #677778",
"]  c #767879",
"[  c #74706F",
"{  c #5A6054",
"}  c #89061C",
"|  c #8C0824",
" . c #AE172D",
".. c #95313A",
"X. c #AF2A39",
"o. c #C5263A",
"O. c #873548",
"+. c #893C50",
"@. c #A53850",
"#. c #CE3C4B",
"$. c #8E4A54",
"%. c #8D516D",
"&. c #B04E62",
"*. c #877277",
"=. c #AB7474",
"-. c #AB4253",
";. c #CC5262",
":. c #73817E",
">. c #BA8C7F",
",. c #116A8F",
"<. c #377391",
"1. c #0E77A7",
"2. c #095B83",
"3. c #476C89",
"4. c #467388",
"5. c #587585",
"6. c #477796",
"7. c #577B98",
"8. c #677784",
"9. c #777B86",
"0. c #69708B",
"q. c #4E7CA6",
"w. c #547DA6",
"e. c #947881",
"r. c #A87682",
"t. c #D07F8E",
"y. c #158DB7",
"u. c #2E96B4",
"i. c #388E9F",
"p. c #59859C",
"a. c #538291",
"s. c #778588",
"d. c #678596",
"f. c #798A95",
"g. c #769094",
"h. c #5686A9",
"j. c #528DB1",
"k. c #6794A6",
"l. c #7895A6",
"z. c #6A99B6",
"x. c #7798B5",
"c. c #688CB4",
"v. c #78A3B4",
"b. c #77AACA",
"n. c #6F9BC8",
"m. c #828485",
"M. c #88868C",
"N. c #838E94",
"B. c #8A8C94",
"V. c #89969A",
"C. c #95979C",
"Z. c #93918B",
"A. c #A49597",
"S. c #AE8D8F",
"D. c #899AA5",
"F. c #959CA4",
"G. c #8E94AF",
"H. c #A99AA4",
"J. c #B298A5",
"K. c #95A3AB",
"L. c #9CA4AA",
"P. c #99A7A9",
"I. c #98A9B5",
"U. c #9BB3B8",
"Y. c #8CA3B2",
"T. c #A5A8AC",
"R. c #B7A6AB",
"E. c #A4ADB3",
"W. c #A9ABB7",
"Q. c #B3ABB5",
"!. c #BAACB8",
"~. c #A4B4B5",
"^. c #ABB5BA",
"/. c #AAB8BC",
"(. c #B5BCBC",
"). c #B8B5B9",
"_. c #B3B2AD",
"`. c #9CA39C",
"'. c #CE9391",
"]. c #E495A5",
"[. c #C3ACB8",
"{. c #C6B5BB",
"}. c #D7ACB3",
"|. c #EEABB0",
" X c #D998A2",
".X c #BEC3BF",
"XX c #C9C6BF",
"oX c #97AAC5",
"OX c #92B3C7",
"+X c #95AAD1",
"@X c #8AAFCC",
"#X c #AABAC6",
"$X c #B5BAC2",
"%X c #B1B9D2",
"&X c #8BA7D3",
"*X c #C7BAC5",
"=X c #D4BAC8",
"-X c #DEBFD1",
";X c #F5B7C8",
":X c #B8C5C9",
">X c #BBCBD2",
",X c #AAC3D3",
"<X c #B4CEE9",
"1X c #9CCBDF",
"2X c #C3CCCD",
"3X c #C8C6CA",
"4X c #D5C3CE",
"5X c #C8CAD4",
"6X c #D8C9D4",
"7X c #CCD4D5",
"8X c #CBD4DA",
"9X c #C7D7D9",
"0X c #DBD2DC",
"qX c #D3D7D7",
"wX c #E4CBD8",
"eX c #FFC8D7",
"rX c #E7D5DC",
"tX c #FED5DC",
"yX c #F9D4DA",
"uX c #CDDCE5",
"iX c #D5DEE1",
"pX c #D9D9E3",
"aX c #C2DAF2",
"sX c #EBDBE4",
"dX c #E8D8E4",
"fX c #F5D5E4",
"gX c #FBD5E6",
"hX c #F4DAE5",
"jX c #FDDBE5",
"kX c #FDD7E8",
"lX c #F5DDEA",
"zX c #FDDEED",
"xX c #F5D5EA",
"cX c #FEDEF1",
"vX c #FADCF6",
"bX c #F5D6EB",
"nX c #D7E4E8",
"mX c #DDE8F1",
"MX c #E8E5EB",
"NX c #FCE1E6",
"BX c #F4E2EC",
"VX c #FEE0EE",
"CX c #FEE8ED",
"ZX c #F4E5E8",
"AX c #E8EAF4",
"SX c #F5E4F2",
"DX c #FEE3F2",
"FX c #FFE9F5",
"GX c #FEE4FA",
"HX c #FDEAF9",
"JX c #F4E8F7",
"KX c #EAF4F9",
"LX c #FAF7FB",
/* pixels */
"DXVXDXzXDXzXDXzXDXzXVXVXVXzXDXzXBXSXJ.lXDXFXcXcXcXcXDXcXFXVXyXCXZXDXNXVXVXSXcXcXjXjXjXzXFXJXvXJXDXDXzXDXDXVXVXzXDXzXVXzXzXzXDXzX",
"VXDXDXDXzXDXzXDXzXDXcXzXVXDXzXDXDXJX!.rXlXcXzXcXDXzXzXJXlXVXFXZXFXlXjXCXDXSXGXDXVXNXVXzXbXvXGXzXzXzXzXzXVXcXzXDXzXDXzXzXzXVXzXDX",
"DXDXzXcXDXzXDXzXDXDXzXDXVXzXDXzXzXNXlXsX$X-XvXSXCXjXDXjXzXjXzXDXjXDXCXjXfXzXDXBXzXgXkXzXvXcXvXkXzXzXzXDXDXDXDXVXDXzXzXzXzXzXzXDX",
"zXVXVXVXzXDXzXDXzXVXDXzXDXDXVXVXBXzXHX-X*X$XAXvXlXFX{.CXCXVXcXDXNXNXjXjXHXzXzXFXVXDXcXkXDXzXkXcXDXzXzXzXzXDXzXzXzXDXDXzXzXDXzXzX",
"VXcXzXDXzXDXzXzXzXDXzXDXzXDXzXzXzXVXrXJX%X#X5XdXJXrXA.yXjXzXDXzXNXZXjXjXtXtXjXNXlXlXHXzXzXVXzXCXVXVXzXDXzXDXzXDXDXzXVXzXzXzXzXDX",
"VXVXDXzXzXzXDXzXzXzXzXzXzXzXzXVXjXDXDXSXJXe.D.Z Z.6XA.CXVXzXjXzXZXNXVXkXyXS.S.yXHXSXSXGXVXCXVXzXDXzXDXzXVXDXDXVXzXDXzXzXzXDXVXzX",
"VXDXzXzXDXzXDXVXDXzXzXVXVXzXVXzXzXFXlXlXSX3X2 # * 7XA.BXBXCXVXVXzXzXvXgXL r + f wXGXvXvXzXzXcXcXcXzXVXDXDXcXVXVXDXzXzXzXzXzXzXDX",
"VXzXzXDXzXzXzXzXzXzXzXDXzXVXzXVXDXVXVXDXrXE ; S 1 C.:X] !.sXhXVXcXcXvX*.r y i q E vXGXvXcXzXzXcXzXzXzXVXzXDXDXzXzXDXDXzXzXzXDXzX",
"zXDXzXDXDXVXcXVXDXzXzXzXzXVXzXDXDXfXFXDXBXdX0X3X5X/.`.mXB.> 4XZXFXfXzXe.L >.>.p y wXNXBXzXjXzXzXzXzXzXVXDXVXcXzXDXzXzXzXzXzXzXDX",
"DXzXDXzXzXVXVXDXDXVXVXzXzXzXzXzXVXDXfXlXFX3X$XU Z 2X:.9XAXZ.( MXlXFXNX=X>.>.|.=.p yXhXZXZXCXVXzXzXzXzXVXVXDXVXDXDXzXzXzXzXDXzXVX",
"VXDXzXDXDXzXzXzXzXzXcXVXzXzXVXzXjXCXSXSX3XMXW.pXC.`.u .XqXKX1 iXZXZXtXtX|.|.].'.'.tXNXNXNXjXzXVXzXzXzXzXzXDXzXzXzXzXDXDXDXzXzXDX",
"DXzXDXzXDXzXDXzXDXzXVXzXVXVXzXVXVXfXFX-XLXKX5XpX3X.XqX`.2XnXI.k MXZXNXNX X|.}.'.$.NXVXDXzXVXVXzXzXzXzXVXcXVXDXVXzXVXzXzXzXVXzXzX",
"zXDXzXDXDXzXzXVXzXDXVXzXzXzXzXVXNXyX6XLXMX2X:X~.:X{ T.[ T.:XnX1 ).ZXsXhXQ.$XE.B.nXHXbXvXGXvXcXJXVXzXzXcXzXDXzXzXVXzXzXzXzXzXzXDX",
"DXzXDXzXzXDXDXzXVXzXDXDXDXzXzXzXjXrXe 3X$XP.g.P.k P..X{ C.2XnXX J NXVXlXe.' 5.~ 5.mXvXvXvXvXGXlXBXzXzXzXDXzXDXzXzXzXzXVXzXDXzXzX",
"zXzXzXzXDXzXDXzXcXVXDXzXVXVXzXVXVXBXlX` C.s./ ' U.P.U.W W (.6Xo i ].&.+.J.g 0.4.Q V.0XSXvXGXVXZXVXzXVXzXzXDXDXzXzXzXzXzXzXzXzXDX",
"zXDXzXVXzXzXDXDXVXVXzXVXVXzXzXVXBXBXBXBX3X2 :.:.:.V.g.g.F._ :XO t ....].%.%.0.7.4.a.~.pXbXvXhXCXNXVXzXzXzXDXzXDXzXzXzXDXzXDXzXzX",
"cXVXzXzXDXzXDXDXzXDXzXDXzXDXzXDXlXDXlXlXR.rXF.( P.' ] E.E.>Xg.: @.@.h 9 O.t 9.3.3.p.Y.^.9.pXVXzXzXzXcXzXVXDXzXzXzXzXjXVXNXzXNXzX",
"VXVXDXzXzXDXVXzXDXzXDXzXDXzXVXzXlXCXDXfXDXVX*X8X~.`.~.:XiX(.:X3 h h s R h h 0.3.6.z.G.D.7.W BXzXcXzXcXzXzXVXzXVXzXzXVXVXzXNXzXBX",
"VXDXzXDXVXDXcXVXzXDXDXzXzXzXVXzXDXNXfXVXCXCXrXMXiX7X.X:XiXnX:X= g a a m d n 3.3.a.v.U.l.N Y *XvXcXzXzXzXcXVXDXVXVXzXVXjXVXzXzXNX",
"DXzXDXzXzXzXVXzXDXzXzXDXzXVXzXDXfXDXDXCXNX6XZXKXKX9X.X7XnXuX,X$ a d j v d 3.<.6.h.@X,X5.N 7.5XvXzXzXzXcXzXVXzXzXcXVXzXVXzXzXBXzX",
"DXcXDXzXDXzXzXDXzXVXzXzXzXVXzXzXFXVXhXCXZXZXLXLXMX2X:XiXnXuX:X= $ d j v j 4.<.w.x.+X,XY N 0.JXbXBXzXVXzXVXVXVXVXzXDXVXzXNXzXzXNX",
"VXVXzXDXzXDXDXzXVXzXzXzXzXzXzXVXzXNXDXZX6XLXLXLXMX2X2X9X9X9X(.1 # = c C j <.3.7.+XG.I.I n 0.AXvXSXVXlXVXBXVXVXVXVXBXzXVXzXNXVXzX",
"zXVXDXzXDXzXzXDXzXVXzXzXzXzXzXzXgXVXZX6XLXLXLXKX7X2X:X7X>X/.(.A + + { V.a 5.d.G.OXI.d.M Y B.JXvXzXzXlXcXDXVXVXSXzXDXzXVXVXzXzXzX",
"zXVXzXDXzXDXzXVXzXzXzXlXzXzXVXzXVXzXZXJXLXKXLXnX9X.X:X~./.3X_.Z.y O `.Z.k ! oXaXl.>X5.n 5.*XAXGXlXzXzXBXzXDXVXVXDXlXVXVXVXzXzXzX",
"VXzXzXDXzXDXzXzXzXzXzXzXVXzXzXzXVXfX*XJXKXKXmXuX#X^.P.~.7XXX_.u k l B j N d.3.@XoXuX8.D _ AXvXvXlXzXzXDXzXDXDXBXDXVXVXBXcXVXDXzX",
"zXDXzXzXDXVXDXzXzXDXzXzXzXVXVXfXjXCX4XqXnXuX>X#XK.F.^.7XqXXXu ; = b 2.v V d.@Xb.l.oXI.F.E -XxXvXzXVXzXDXVXDXVXVXVXVXVXVXVXVXDXzX",
"DXzXDXzXDXzXDXzXDXhXzXDXzXfXVXzXNXNXrX2X:X~.P.P.V.T.qXqX_.3 @ 4 = m ,.<.V v.b.z.%XD.a W.$.$.;XxXkXzXzXzXVXVXzXDXDXVXVXcXzXDXzXzX",
"zXzXDXzXzXDXzXzXzXzXzXzXDXDXDXzXtXrX*XA.A.s.m.s.M.5XqX] @ 4 @ k c 2.u.2.a.Y.b.z.<X0.N 9.%.6 &.eXkXkXjXzXVXzXzXVXBXzXzXBXzXzXDXzX",
"zXzXVXzXDXzXDXzXzXDXzXxXDXfXbXVXR.*.J.Z.*.) P P {.A.e : . . - g.i.u.1.2.k.@Xn.q.<XV b 8.9 $.} ;.kXzXzXzXzXzXzXzXDXlXlXzXzXzXzXcX",
"zXVXzXzXzXzXzXzXzXfXzXDXDXVXDX}.: + e H P P *.p u y + X 2 ; :.k.u.y.,.,.@X&Xc.h.1XM N 5.% 5 X...|.cXzXzXjXzXDXzXzXzXzXlXcXzXzXzX",
"zXzXDXDXDXDXzXDXDXzXzXzXfXVXwXJ ) O : i i p i i y + O + A _ U.a.y.y.,.<.+Xn.q.6.@Xc N U 9 5 8 ..=.jXkXzXzXzXDXzXBXzXzXzXzXcXzXzX",
"zXzXzXzXzXzXzXzXzXDXzXzXDXzXDX[.: : w w y p p i y w y u 2X8X,X<.1.1.,.j.+Xc.h.a.k.n I S 9 6 8 0 h kXjXjXzXzXzXDXzXzXlXlXzXzXzXzX",
"DXzXzXVXlXVXzXVXzXzXzXzXjXzXVX*X) D A A u H H H i H { `.MX8X^.d.,.,.v n.n.j.q.z.3.l I < 6 7 7 7 h tXNXhXCXVXzXcXzXzXzXlXlXzXzXhX",
"zXzXzXVXVXVXVXVXzXzXzXDXzXzXzX!..XV.( F [ G e H ] T.qXMXAX5X~.f.B <.b z.n.i.6.@XM b _ % 0 7 | } 0 |.tXCXBXfXzXcXkXzXSXlXzXzXzXzX",
"zXzXzXzXzXVXzXcXVXzXDXfXzXzXjXsXiX/.E.C.s.( ( M.(.qXMXmXnX9XU.g.I I N x.w.q.7.>XN n E 9 6 |  .} 7 t.tXNXZXBXcXzXcXzXzXlXzXzXzXzX",
"cXzXzXzXzXzXzXcXzXzXzXzXzXzXhX0XT.:XV.P.qX2Xg.`.T.(.7XnX9X:XD.s.F 1 z k.w.q.&X%Xb N f 9 | | o. .7 &.jXjXDXlXhXDXzXzXlXzXzXzXzXzX",
"zXzXzXzXzXzXcXcXkXcXkXFXlXlXFX*X3XpXf.$X:XU.>XuX2X.X$X$X.XU.V.:.{ > ~ k.j.6.<X0.n N e 5 |  .#.X.} &.eXjXlXBXVXBXzXzXzXNXzXzXDXzX",
"zXzXzXzXzXzXzXkXzXzXzXkXVXBXrXJXMXT.D.>XI.g.P.:XuXmX7XU.P.C.:.:.3 4 a.j.<.<.aX3.m ~ R 9 7 X.;.#.} @.].cXjXhXDXzXVXVXzXzXcXVXVXcX",
"zXzXcXzXzXcXcXzXkXzXDXhXDXBX3XLX5Xs.' U.g.^ V.Y.>XmX5XL.C.V.F ( u > h.j.6.3.%Xn c Q ` f r.;XeX;X|.@.@.eXCXCXzXcXVXVXVXVXzXVXzXDX",
"cXzXzXzXzXzXzXzXzXDXxXDXlXMXBX0XB.U L.L.! s.^ f.K.W.:X^.s.C.D G { k 6.h.6.6.OXl m M 9.R.f kXlXvXgXO.+.eXjXVXhXDXVXVXVXVXVXzXcXzX",
"zXzXzXzXzXzXcXzXzXzXVXBXBXsXBXH._ ( W.>XF.9.( I.N.F.K.L.P.C.4 1 D z q.q.<.&Xl.l ~ - Z A.+ w dXSXgXh $.}.zXzXDXzXzXjXVXNXVXVXzXcX",
"zXzXzXzXVXzXVXVXzXDXzXhXBX*X).M.F.3XQ.sXJX!.9.E C.L.V.V.F.Z > D _ z q.q.3.<XV c 5.. @ + e e U sXzX=.eXDXjXDXcXDXVXVXzXNXBXVXcXzX",
"cXzXVXVXVXzXzXVXVXlXzXFXBX0XH.T.lXlX=XDXVXGX< < & , ~.~.~.k W :.( x 4.5.I #Xm C / X X O + w ; >XjXjXjXjXcXkXzXcXzXzXNXVXVXVXDXzX",
"zXzXzXzXzXzXDXzXzXzXBXBX0X6X{.JXDXcXDXcXkXcX=X% ( m.9.' ^ ' :.:.W S N 3.I U.c 5.* . X O o : , 8.hXCXjXkXcXzXzXcXzXzXVXNXZXVXVXcX",
"zXzXzXzXVXBXVXzXzXDXfXDXLX4XSXlXfXjXzXzXzXzXzXJ.q B.Q.V.s.' ' ' U k z Q D.Y.Q ~ k k 2 < 3 e u >.CXyXVXDXzXGXlXDXzXzXjXzXVXBXzXcX",
"zXcXzXzXzXVXzXDXzXDXzXfXfX[.JXlXFXVXzXzXjXzXjXjXwX[.J.*XL.N.f.! ^ D M C M b ~ I W ( T g 3 X @ _.ZXFXfXzXGXlXDXlXzXzXzXjXNXVXVXzX",
"cXzXzXzXzXzXVXzXzXzXDXDXyXfXlXNXzXhXhXDXjXtXzXjXkXDXDX4XQ.>X#XI.N.s.N d.N 5.I ' `.E.F.L.X . > qXhXcXDXDXDXBXSXBXzXzXkXjXNXzXzXzX",
"zXzXzXzXzXDXzXVXzXzXcXzXxXlXVXlXzXVXDXNXlXVXzXkXkXzXlXGXSX` U U U 1 = OX~ I 5.F.:X2X%XT $ * F JXDXkXzXkXDXDXSXVXzXzXzXzXzXVXzXzX",
"zXzXzXcXzXzXDXDXzXzXzXVXzXzXzXzXzXzXzXzXzXzXVXzXlXDXVXlXSX0XQ.Q.M._ D ^ K.8.s.Y.>XnX2Xa $ . H.lXzXzXzXzXzXzXzXzXzXkXzXkXzXzXzXzX",
"zXzXzXzXzXDXzXzXzXzXzXzXzXzXzXzXzXzXzXzXzXzXzXzXVXNXlXlXFXlX4X6XQ.N.' z :XV.f.D.~.>XAX~.X 2 rXzXzXzXzXkXzXzXzXzXkXzXzXkXxXjXkXfX",
"cXzXzXzXVXzXzXVXzXzXzXzXzXzXzXzXzXzXzXzXzXzXzXzXzXVXDXVXDXVXxXBX*XV.9.! x :XV.N.K./.9XmXD m.VXfXkXzXkXkXzXkXkXkXkXzXkXkXgXkXgXkX",
"zXzXzXzXzXzXDXzXzXzXVXzXzXzXzXzXzXzXkXzXzXVXzXzXzXzXDXlXlXNXBXDXJX5X~.N.W   N.K.g.g.V./.iXMXfXzXkXkXkXkXkXkXkXkXkXkXgXgXgXgXgXfX",
"zXVXzXzXzXzXDXzXzXzXzXzXzXzXzXzXzXzXkXzXzXzXzXzXzXfXzXzXzXzXzXxXdX5X$XK.g.*   # L.T.N.C.T.MXzXfXgXgXgXgXgXgXgXgXkXgXgXfXfXgXgXgX",
"zXzXVXzXVXzXzXzXzXzXzXzXzXzXzXzXzXzXzXzXzXzXzXzXzXzXzXzXzXfXkXrX-X0XpXD =   X ; G Q..XE.).*XfXfXgXgXgXgXgXgXgXgXgXgXgXgXkXgXgXkX",
"zXVXzXzXzXzXzXzXzXzXzXzXzXzXzXzXzXzXzXzXzXzXzXzXhXzXzXcXzXfXfXfXzXxX0X1     2 M.lXBX^.qXwXsXfXzXgXgXgXgXgXgXgXgXgXgXgXgXkXgXkXkX",
"zXzXzXzXzXzXVXzXzXzXzXzXzXjXzXzXzXzXzXzXzXzXDXlXzXVXhXzXzXfXzXzXkXcX0X1   = T.MXxXfX*XdX!.zXlXfXgXgXgXkXgXgXfXgXgXgXgXgXgXgXkXkX",
"zXzXzXDXzXVXzXzXzXzXzXzXzXVXzXzXzXlXzXlXVXVXlXVXlXzXlXFXfXzXcXzXzXcXdX2 = _ MXZXxXzX[.wXfXkXkXxXzXkXkXkXkXkXkXkXgXgXkXkXkXkXkXkX",
"zXzXzXzXzXzXzXzXzXVXzXzXzXzXzXzXzXlXVXVXDXBXVXzXDXlXzXfXDXDXfXzXkXgXzX6XZ g sXlXzXkX=X{.xXzXgXcXkXkXkXkXkXkXgXgXgXgXkXkXkXkXkXkX",
"zXzXzXzXzXzXzXVXzXzXDXzXzXzXzXVXzXVXVXcXVXVXBXBXDXA.*.% zXlXzXzXcXcXcXdXdX{.g hXzXfX6XlXzXgXkXgXkXkXkXkXkXzXzXkXkXkXcXkXkXzXkXzX",
"zXzXzXzXVXzXzXzXzXzXzXzXVXzXzXzXzXzXzXzXVXBXDXVXbXr g e.lXVXVXzXzXzXzXzXHXzXA.DXwX4X4XxXjXzXcXcXkXzXzXkXcXkXkXzXzXkXkXzXzXkXcXkX",
"VXzXzXzXzXzXzXzXzXzXVXzXzXzXcXzXzXcXzXzXzXBXzXBXvXH.=XhXzXxXzXzXzXfXDXkXkXzXgXlXrXwX{.zXcXcXgXkXcXzXkXcXkXcXzXkXcXkXkXcXkXkXcXzX",
"zXzXzXVXDXzXzXzXzXzXzXzXzXzXzXVXzXzXzXzXzXzXVXVXlXlXzXGXhXzXzXzXDXzXzXgXcXzXVX=X) < S.zXkXkXcXcXkXzXkXzXzXkXkXcXzXzXzXkXzXzXzXkX",
"zXzXzXzXzXzXVXzXVXzXzXzXzXzXzXzXcXzXzXzXzXzXzXlXhXDXhXfXzXzXzXzXkXhXfXzXkXjXZXE [ & wXzXDXzXzXgXzXcXzXzXzXzXzXcXzXzXzXzXkXzXzXzX",
"zXDXzXzXzXzXzXzXzXzXzXVXzXzXzXzXzXzXkXzXzXzXzXcXhXDXzXzXzXzXzXzXcXcXzXgXzXjXZX[.!.BXzXgXzXhXzXcXzXkXzXzXzXzXzXkXzXzXzXzXzXzXcXkX"
};
