/* XPM */
static char *e757afdb397a4ceda07652c16b4091feAJYmIDFpR7EKNQKA[] = {
/* columns rows colors chars-per-pixel */
"64 64 187 2 ",
"   c #433834",
".  c #493A33",
"X  c #544741",
"o  c #564B46",
"O  c #5B4E46",
"+  c #594E49",
"@  c #61574E",
"#  c #625650",
"$  c #665950",
"%  c #6C5D56",
"&  c #675C59",
"*  c #6B5D59",
"=  c #6D615B",
"-  c #71645D",
";  c #76685F",
":  c #716562",
">  c #786760",
",  c #756B64",
"<  c #7B6C64",
"1  c #766C6B",
"2  c #796E6A",
"3  c #7C7064",
"4  c #7D726C",
"5  c #7E7473",
"6  c #7F7872",
"7  c #7F7679",
"8  c #817264",
"9  c #857867",
"0  c #8A7B65",
"q  c #83756C",
"w  c #88776D",
"e  c #85796F",
"r  c #8A7B6D",
"t  c #827571",
"y  c #847B74",
"u  c #8A7C74",
"i  c #867C7A",
"p  c #8B7E7B",
"a  c #917F74",
"s  c #907F78",
"d  c #8C8275",
"f  c #8C837C",
"g  c #928275",
"h  c #998876",
"j  c #92847C",
"k  c #98877C",
"l  c #94897F",
"z  c #9B8B7D",
"x  c #9F907B",
"c  c #A08F7B",
"v  c #A1917C",
"b  c #8D8482",
"n  c #8E8983",
"m  c #938582",
"M  c #958A83",
"N  c #9B8C84",
"B  c #958C89",
"V  c #9A8E8A",
"C  c #9C9186",
"Z  c #97908A",
"A  c #9D928B",
"S  c #9F988E",
"D  c #9E8F92",
"F  c #9D9492",
"G  c #9F9892",
"H  c #A18E85",
"J  c #A28F89",
"K  c #A39386",
"L  c #A2948C",
"P  c #A9958F",
"I  c #A5988E",
"U  c #AB9A8D",
"Y  c #B09F8F",
"T  c #A29692",
"R  c #A89790",
"E  c #A59A93",
"W  c #AB9C94",
"Q  c #A2969A",
"!  c #A59C99",
"~  c #AA9E9A",
"^  c #B19E94",
"/  c #B19F9B",
"(  c #AFA28F",
")  c #B1A08E",
"_  c #ACA096",
"`  c #A7A098",
"'  c #ADA29B",
"]  c #B3A295",
"[  c #BAA894",
"{  c #B2A49C",
"}  c #B8A79C",
"|  c #B4A89F",
" . c #BAAA9C",
".. c #AEA4A1",
"X. c #AFA8A3",
"o. c #B2A6A2",
"O. c #B8A7A1",
"+. c #B5AAA3",
"@. c #BAACA4",
"#. c #B6ACAA",
"$. c #BAAEAA",
"%. c #BDB0A7",
"&. c #B7B0AB",
"*. c #BDB2AC",
"=. c #BFB8AE",
"-. c #B7ACB0",
";. c #BBAFB1",
":. c #B7B1B3",
">. c #BDB4B2",
",. c #BFBAB3",
"<. c #C2B19F",
"1. c #C0AEA5",
"2. c #C0AFA9",
"3. c #C3B2A5",
"4. c #C8B5A6",
"5. c #CBBAA7",
"6. c #C2B4AC",
"7. c #C9B7AE",
"8. c #C4B8AF",
"9. c #CBBBAE",
"0. c #D0BDAE",
"q. c #C2B6B2",
"w. c #C9B7B0",
"e. c #C5BAB4",
"r. c #CABCB4",
"t. c #C5B6BA",
"y. c #C6BCBA",
"u. c #CABEBA",
"i. c #D0BEB5",
"p. c #D1BEB8",
"a. c #C4C0B7",
"s. c #CCC1B7",
"d. c #C7C2BC",
"f. c #CDC2BC",
"g. c #D2C2B5",
"h. c #D2C4BC",
"j. c #D8C7BF",
"k. c #D5C8BE",
"l. c #DCCBBB",
"z. c #CDBEC3",
"x. c #CDC3C1",
"c. c #D3C6C1",
"v. c #D2C5C2",
"b. c #D3C9C1",
"n. c #D5C9C2",
"m. c #D3C8C4",
"M. c #D5CAC4",
"N. c #DACDC6",
"B. c #DACBC4",
"V. c #D1C5C9",
"C. c #D6CBC9",
"Z. c #DDCFC9",
"A. c #DACECA",
"S. c #DED1C6",
"D. c #D6D1CB",
"F. c #DED2C9",
"G. c #DFD4CE",
"H. c #DDD2CC",
"J. c #DFCFD2",
"K. c #DED4D1",
"L. c #DFD8D2",
"P. c #E2D1C4",
"I. c #E2D3CC",
"U. c #E5D8CD",
"Y. c #E3D3D3",
"T. c #E4D2D2",
"R. c #E2D6D1",
"E. c #E1D6D2",
"W. c #E6D9D1",
"Q. c #E5DAD4",
"!. c #EADDD6",
"~. c #EBDDD4",
"^. c #E6DCD9",
"/. c #EADDD9",
"(. c #EADEDA",
"). c #F0DED2",
"_. c #EBE0D9",
"`. c #ECE2DC",
"'. c #F1E3DE",
"]. c #F2E5DD",
"[. c #EEE4E1",
"{. c #F1E6E0",
"}. c #F3E9E4",
"|. c #F8EDE7",
" X c #F9EEEA",
".X c #FAF2EF",
"XX c #FCF2F0",
/* pixels */
"#.Q ! z...o.;.T 2.u.@.@.3.1.} 1.N } J W ~ R C I I D.8.d o.{ T o.%.a.a.8.a._ %.8.r.~ h.C.T.Y.z.T.'./ u.z.*.L %.r.#.f S E E d.%.&.",
"i t D >.~ ..q.6.6.O.@.r.r.6.i.6.6.o.W I.!.h.=.l | E %.M.I.f.B.O.E _ ' %.S.k.%.*.e.%.6.v.A.v.T.T.(.2.t.2.%.+.#.W T m Z T 8.h.| I ",
"t.-.;.t.o.o.+.$.6.W W / / @.j.^ L w.*.n.W.F._.*.%.S b._.].Q.h.F.h.` | a.=.| T %.O.$.u.t.t.t.o.q.t.p.c.R ' q.e.' +.4 : , f E a.%.",
"t.#.X.F E q.u.N.O.m j u w } r.{ $.k.u.M.!.h.F.a.Z l G.G.W./.N.F.W.I { k.` { q.q.~ %.T.u.o.o.s Q %.w.Z.M.r.A M M q + @ = = M =.&.",
"F T ' ! o.8.e.Z.W.J q 8 8 / 2.T.Z.e.f.f.a.f.L.e.' +.d.a.`.I.].F.W.R T p._ $.8.f M h.{./.v.>.#.#.r.q.f.f.s.r.f.q.*.o.F 1 : Z A F ",
"o.E A B ~ ~ O.k.c.m * > q 2.L 2.n.f.v.O.' &.=.+.` Z A G f.q.r.I.F.%.] r.8.| $.T A $.A.#.o.' ..' q.] O.g.r.| +.+.$.o.o.o.' a.:.,.",
"e.s.s.s.k.%.~ L J J P O.O.p.} / 6.8.o.=.v.,...:.` y ' ! j N q l L N H ~ O.| 8.n.M.8.C.B T &.X.+.E 6.%.| | | { I ! A ..q.q.u.A.K.",
"| f.f.=.6.O.6.~ / r.I.U./ H 1.j.f.C.q.u.#.+.#.X.G ,.&.' ' f.T f.7.$.r.o.6.k.6.A L L >.*._.^.Q.` q o.$.8.M.*.G B #.^.K.q.t.:.t.>.",
"s.9.s.h.W w.$.T 2.O.1.1.p.4.w.j.%.q.d.M.#.y.t.x.(.`.Q./.I.I.B.p.r.p.u.$.@.T p.T 6.B.H.M.f.f.f.T Z I E 8.f.%.M M e.Q.(.>.o.t.V.A.",
"k.S.8.8.O.6.t.2.O.$.p.P.B.2.^ O.8.s.y.a.x.(.K.L.XX/.`.{.h.I.k 8 P ] / J j T A.B.t.n.N.A.f.e.&.f M | %.*.q.e...' $.$.t.#.Q 2.A.V.",
"s.U.s.f.n.6.2.2.w.c.z.B.4.4.1.p.r.s.8.$.y.H.C.L. XK.I.I.7.P.H w s y y m V %.h.u.e.f.f.f.f.f.*.V ` a.e.q.*.s.u.v.A.$.M p ..t.q.q.",
"| 9.@.O.w.R R Q $.w.4.1.^ ^ <.<.E _ q.a.v.e.>.e.#.*.6.6.7.i.0.<.O.r.M.O.N | $.f.%.M.q.V V u.M.' { %.%.#.+.+.q.A.*.B b m B O.t.t.",
"C C _ I @.~ / O./ O.O.4.i.4.4.<.I L 9.e.6.~ o./ o.q.1.L P Y 4.l.k.M.H.! | M.r.o.6.{ ~ | ' E ~ 2.&.' X.&.$.+.#.u...~ t.2.o.2.t.q.",
"g d I A R J J W ^ H N ^ p.<.5.4.| | *._ ' $.t.q.o.6.r.^ v Y a Y h.u.M.q.H._.%.| ~ $.r.r.r.q.@.$.,.&.,.>.u.#.#.o.+.u.t.2.v.v./ D ",
"r.h.r.| T p m J ^ J s Y 4.<.[ Y ]  .| ~ f.Q.I.I.n.r.B.5.^ 0.<.j.!.v.e.e.M.e.j M r.h.h.6.6.h.p.I.y.*.*.#.;...! B Q O.w.u.p.J.C.w.",
"8.~.I.k.2.s s N s H w Y <.<.Y c } 6.U V h.I.t.M.2./ 7.6.1.7.).J.M.C.d.f.f.H.T ~ c.I.c.T W u.r.6.y.#.+...#.! ! T B 2.u.$.u.u.$.u.",
"g.O.2.p.7.J k H I C N @.l.r.6.e. ._ W I e.f.h.q.6.6.r.] L $.~ o...x.V.x.C.v.U.Z.r.U._ u L 3.I ] ' +.+.%.X.! ` ' 6 ..>.O.' F.7.$.",
"P W / 1.1.1.3.i.3.9.$.W O.q.q.o.r.%.s.G.I.B.I.n.r.r.O.| q.#.C.-.X.x.q.#.u.r.n.u.S.B.%.z _ W _ 8.T *.e.,.X.! ' ! ,.&.=.u.e.r.s u ",
"M J s a R g.r. .9.s.$.p ! q.u.{ | _ %.W.T.Z.).p.| ] N O.~ u.z.:...,.,.#.q.*.c.w.h.k.r.K }  .*.a.+.s.a.=.&.>.>.` &.d.e.f.r.r.k z ",
"] M w N ] 3.{ K 6.O.] g ' r.Z.h.%.3.9.U.c.I.U.6.U u g J o.v.x.u...V.u.y.C.*.1.$.g.S.S.8.s.U.h.9.s.M.M.G.`.}.Q.e.X.e.&.8.r.n.V u ",
"R } 2.6.W r.h.$.O.O.k.e.h.q.e.q.<.p.i.P.p.p.p.i.^ z r H O.q.z.;.Q y.#.:.^.e.6.I.%.%.S.~.~.I.6.@.8.*.{ #.u.L.^.H.X.,.&.&.' E M ' ",
"j.w % W | O.{  .r.w.I.h.h.6.~ L W <./ 1.7.1.^ i.J K W @.O.t.+.>.z.y.x.x.$.V 6.k.T k %._ O.W { 8.~ W W =.A.Q.L.d.d.e.+.,.+.&.%.k.",
"1.L j ~ N M A 7.!.r.q.] +.t.$.] [ ^ ^ U 1.1.^ w.z c i.} n.r.t.C.>.X.C.L.V y r.6.k N k.] | R T T } ~ P o.u.A.H.f.e.,.e.G.a.e.*.=.",
"k t.h.r.J k M r.Z.6.w.r.f.I.r.6.k c ^ s P 1.1.P.1.i.^ W r.+.t.>.D ..e.d...M { ' h.l.].6.] _ C I |  .W R o.q.C.C.x.X.Z ,.&.+.` E ",
"u N r.r.@.{ o.r.u.$.c.n.h.r.h.r.9.U H H P p.i.i.p.0.P.1.r.f.u.~ ..y.y.e.>.$.N W 7._.I.O._ W L _ W W ~ | $.y.x.x.x.#.,.x.*...' T ",
"N q.E W z.u.6.6.r.q.W.r.@.O.R | Y [ ^ ^ / p.p.^ i.P.i.<.c.M.u.t.D.V.M.' &.~ L z | s.3.L W $.] ~  .O.2.6.y.x.x.z.y.:.&.:.#.G ! ` ",
"T q.~ m #.$.@.^.M.u.q.W $.9. .W 4.H c k P / ^ ^ ^ L k } u.M.x.V.D.y.L.a.f.T W W l I P R 7.r.o.~ r.h.h.%...! X.y.d.#.X.z.x.D F F ",
"A +.E +.2.o.u.v.u.B.q.q.r.$.8.I 1.^ a J J 8 J R U K N r.y.m.V.,.:.` &.C.f.e.] M %.r.8.$.] V R r.8.6.6.e.u.=...G G X.,.-.+.F o.B ",
"#.' C.e.*.L.q./ t.p.h.c.r.| r.| 9.U g q J / w.j.H 4.| 8.e.x.:.>.d.e.&.` e +.e.%.h.3.L k k u f I 6.' I ` ..! V B B b #.t.X.B 2.q.",
"| f.L.>...v.t.B Y.$.h.u.p.c.l.k. .i.1.@.2.O.r.2.@.$._ *.a.d.y.V.x.,.%.+._ s.9._ W %.q.6.| { $.e.$.I I ` V f n B B m $.t.#.-.z.-.",
"' I y.>.*.C.+.B t.! 6.O.6.$.W ' } U / O.w.p.2.p.r.C L ' $...#.:.&.X.=.e.=.%._ { W W W ~ o.o.%.=.8.f 4 e 6 f F Q ~ B #.t.z.t.$.2.",
"#.6 A m.t.#.y.u.p.$.@.o.q.3.] ] P U ^ } / / P 2. .| %.L &.#.#.y.>.*.&.e.8.*.L I 6.R J { O./ +.s.=.l f S n B F D ..;.A.p.z.J.t.z.",
"B b :.d.x.o.@.u.t.P / 2.W W o./ ^ R O.] | s.I  .6.| r.| $.q.x.t.y.+.=.*.e.q.' L o.E O.$.t.V ~ t.r.T f f y f f V M ..u.C.V.t.t.z.",
"d.x...V.q.+./ E W O.2.O.O.q.#./ o.W ~ I I %.9.@.] e.{ N =.e.q.f.u.=.%.$.q.o.B B V O.o.~ V / 2.h.f.~ i y f l f f f T V.x.X.z.C.V.",
",...V.x.u.u.< % i.2.O.O.#.$.o.#.V 6.' L 8.f.+.| 8.h.&.+.+.+.e.x...' ~ #.t.' f ! A ! N V W $.k.u.e.$.A M ! ! | f.f.f.^.C.t.J.z.-.",
"F ,.C.X.+.' y . 2.O.w.O.R $.$.R 6.$.&.O.*.e.G =.&.%.C F :.#.:.y.y.e.*.>.&.+.O.v.r.v.p.k.f.q.c.h.f.I.A.M.H.+.' f.A.e.x.u.J.J.~ ..",
"B d.X.X.o.' e.P { } h.p.O.6.u.c.u.x.e.C.C.=.f =.M.&.d.&.X.X.:.:.+.z.J.L.f.x.x.y.=.M.e.n.r.I.h.$.L.^.F.H.!.T l I e.#.8.*.y.>.f V ",
"X.G :.f A ! N W L L ~ { { P R n.m.x.x.^.{ ,.x.&.,.,.&.Z x.x.:.#.....:.K.*.+.*.>.v._.`.n.| +.| %.v.e.#.*.b._ ' *.s.%.a.e.#.#.F V ",
"` %.b.6 I _ _ L M L R J W W P o.%.F.C.M.e.G.].e.H.a.,.X.#.+.+.! ~ G ..^.x...T ..H.y.M.*.8._ | 8.$.+.o.q.S.%.h.h.%.@.6.%.6.r.8.o.",
"T %.#.=.%.A d j ~ N J L M L o.r.W.n.h.$.h.G._. X}.e...q.$...#.! ....! x.x.t.>.x.M.#.8.#.O.| _ e.f.$.O.r.F.e.S.e.6.s.6.| 8.$.L ~ ",
"A @.$. .+.S A %.h.8.f.W $.6.j.I.| | O.@.6.7.h.U.r.h.n.$.{ %.O.a...-.B :.y.i B y.>...' *.=.+.' e.O.O.8.&.S.r.r.8.9.%.| +.8.%._ _ ",
"_ ' | _ ' { +.| ' | 6.].U.P.n.r.] ] 9.r.@.7.n.i.1.h.6.r.6. .] T -.V.>.;.-.1 5 :.#.o.| #.+.O.%.*.%.$.#.8.W.s.r.8.| 8.@.| 8.%.~ ] ",
"| W | | | $.%.Z ~ ' v.v.B.H.6.r.]  .3.3.4.i.i.1.i.7.1.r.} | N o.:.y.:.V.i b 1 X.&...$.$.8.M.A.f.A.u.A O.F.r.%.| I U %.8.$.6.$.L ",
" .~ ] I ' &.f.&.+.B M.x.$.B.Z.2.U } [ ^ 7.i.9.7.w.1.r.7.} 3.H ] &.Q ..#.i i 5 D a.q.C.m.y.v.#.m e.8.N 8.h.W { Z.6.@.+.E M ' $.T ",
"O.O.6.7.F.N.A.m.V.u.' E.z.I.!.h.3. .6.8.^ ^ 6.O.$.r.O.{ %.3.| l &.&.F f 7 : 1 #.{.Q.^.:.M ' ' b V I.h.h.r.h.B.h.p.z.P q u s t t ",
"6.] W $.s.a.y.x.C.`.! T v.v.B.(.k.s.g.h.1./ { #.$.o.{ W +.+._ E #.y.#.,.:.X.X.C.:.x.^.Q = i i : E 6.@.i.i.r.6. .^ 1.D i m m : * ",
"@.] | k.v.A.x.y.#.#.;.F $.p.N.h.g.s.r.h.A.u.$.u.o.F #.&.#.%.T e.X.` L.[..XL.L.>.t.x.[.+.1 p b i W 8.w.r.6.r.p.q.W J J m m D D m ",
"i.@.$.B.O.y.y.,.V.C.V.Q.^.A.v.O.M.s.N.H.u.q.e.t.e.x.X.' G %.&.d.X.' +.#.' &.X.~ ~ ' K.V.-.,.;.z.$.O. .$.$.r.r.O.m m m m m D D Q ",
"[ 1.} k.N ' m ' q.f.q.a.H.H.b.a.L.k.D.D.D.d.x.X.8.x.T ..q.8.e.e.q.O.f.M m ..#.X.` X.y.*.*.+.u.T p L R R %.6.@.A d M M b V G D B ",
"} } g.@.l.1.$.k ! ..E e.M.q.k.h.a.=.a.D.L.D.G.,.v.M ~ o.! *.,.{ ' #.e.=.T ' ..~ T >.+.n ' ..! ~ q ~ E j _ { I I d M F i i b 7 7 ",
"W 7. .$.$.B.r.T i ' c.! G ` | ` ` ` ` ` &.=.d.' $.t.+.V +.X.{ #.*.*.T ' F ! ..+.#.#.~ F T ! $.u.@.~ L L | W C C ' n l 4 7 7 1 b ",
"3.g.@.l.6./ ~ o.L C %.T ` +.8.d.=.S f l S d d = s T ! V ` ' +.+.{ &.' o...o.+.*.! q.V V ' F o.q.L L O.W I L I L l S *.+.B i b -.",
"' 6.*.| | f J B B R V L l 4 r.M.d.a.S.`.*.@ O 2 - o s ~ ! $.! ' X.` Z M G ..f , f ! N i V q.k.r.O.o.8.e.6.d q | ] O.| 2.u.v.u.O.",
"_ r.| W L ~ ~ T ~ ~ T m u d | f S Z _ %._ - = < u M L { $.q.~ e.&.&.G &.X.y.6 o , , 8.O.N $.o.L T A | ' | I I | C f > w u u W R ",
"+.' Z Z A u t m m p ! W u u C C j M M d M N _ W W w.o.@...o.u.>.L.D.:.d.' e.f.n.*.=.I.&.W m j o.+.Z %.@.E S { 6.~ N j J k w ^ w.",
"I @.l , o 2 , m q.T ] q.L k ~ | j f e 3 e e z A M s M M T ~ *.>.`.,.Z M f n a.H.#.O.e.r.2.E q.6.! A T f I | ~ I I N g a s P { R ",
"` &.C 3 4 4 y m W * & > m r.6.L A C C d N l l U W M M j T ' Q #.L.X.f n n d 6 G +.S j I C d I L n f M f A I f _ ] i g L h a [ a ",
"_ | +.{ C > q m t * * - 2.B.@.L W l C z C ( } K z R H u W #.T o.D.n f Z ` &.f Z =.a.=.l L d 4 q 2 f d d : M k e.] j < s q w ] 1.",
"z z I U A 2 4 q - # # X O.h.q.$.W C C d r 0 8 8 k < < j A V ..V.a.' n Z Z Z Z S | s._.C = $ q 3 n l M 6 6 A M 4 L o.j 3 8 U } K ",
"f x _ W L = < d t * q < ~ $.r.@.N K U U U K k v g r j R o.$.#.B f :.D.Z M a.,.f ` d.( =.U M e f Z f ` ' e.D.d.M ' e.6.@.R K N k ",
"d 9 d ( <.9 9 A %.I #.=.%.#.e.=.8.K K L K 5.l.3. .l.6.6.Q.(.o.& 6 = ../.].e.U.' l &.=.S a.d ` l n d Z ,.X.X.X.! X._ +.&.] j f g ",
"x ( [ [ ( 3 e _ %.| ' &.~ C G O.g.@.@.[ ) P.l.v K K N ] B.I.-.D ..  o.Q.R.D.M.+.d l ( Z d S S d d d f S G Z ! A ` T ! A ..e.a.C ",
"x x x x g d C l ! _ ! ' ' A M ! W W ] K c 4.3.U K K ] ' $.c.#.V #.V #.M.n.a.L.C 6 6 d S ( x , d f d y y X.n Z 1 b f A G ' =.e.+.",
"x 0 d h d g C l T C M S F Z M M W k ^ [ a U [ h v _ R z q.Y.#...T z.A u.R.q.M...6 d l Z S d S 3 f f , S &.b i b f b n G ' e.| _ "
};
