/* XPM */
static char *_8a9bb0c00044027d9abb989afefb65cxeUXQwxm01iuWObJ[] = {
/* columns rows colors chars-per-pixel */
"64 64 51 1 ",
"  c #F7D5E5",
". c #FAD3E5",
"X c #F9D4E5",
"o c #FBD4E6",
"O c #FAD5E6",
"+ c #F8D6E6",
"@ c #F9D7E7",
"# c #FBD6E7",
"$ c #FCD5E7",
"% c #FDD6E8",
"& c #FCD7E8",
"* c #FED7E9",
"= c #FAD8E8",
"- c #FBD9E9",
"; c #FADAE9",
": c #FBDBEA",
"> c #FDD8E9",
", c #FFD8EA",
"< c #FED9EA",
"1 c #FFD9EB",
"2 c #FCDAEA",
"3 c #FDDBEB",
"4 c #FFDAEB",
"5 c #FBDCEB",
"6 c #FCDCEB",
"7 c #FCDEEA",
"8 c #FDDFEB",
"9 c #FFDBEC",
"0 c #FCDDEC",
"q c #FDDDEC",
"w c #FEDCEC",
"e c #FFDCED",
"r c #FFDDED",
"t c #FDDEED",
"y c #FEDEED",
"u c #FDDEEE",
"i c #FFDEEE",
"p c #FEDFEE",
"a c #FFDFEE",
"s c #FEDFEF",
"d c #FEDFF1",
"f c #FFE1EB",
"g c #FEE0EC",
"h c #FFE1ED",
"j c #FFE0EF",
"k c #FFE2EE",
"l c #FFE0F0",
"z c #FFE1F0",
"x c #FFE1F1",
"c c #FFE2F1",
"v c #FFE0F2",
/* pixels */
"zzzzjjjjjjjjjjjjkkkgkkkgkgkggkgkffffkgjjdpdpdzdddpdjzzzpzpppwppp",
"zzzzjjjjjjjjjjjjkkgkkkgkgkgkkgkgffffgkjjpppddpdppppjzzpzpzpp8ppd",
"zzjjjjjjjjjjjjjjkgkgkkkgkgkggkgkffkgkgjjp8pppppppwpppzzzzppppppp",
"jjjjjjjjjjjjjjjjkkgkkggggggkkgkgffgkgkjjpppdppdpppppzzpppzpppppj",
"jjjjjjppppppppppkkgggggggggggggkggggggjjjjzzdzddpjpzzzpzpppppppp",
"jjjjppppppppppppgkggkjgggggggggggggggggjzjzzzzzzjjzpzzzpjppp5ppj",
"jjppppppppppppppgggggkggggggggggggggggjpjjjjzdddjppdzzzzjjp5pppj",
"jpppppppppppppppkggggggwggggggggggggggppppppdpddp88ppzzpjjpppppj",
"jjjjjjjjjpppppppppppppp5pppd8dppgg77j5j5j5j5pp8885ppzzjpjppppppp",
"jjjjjjjjjppp5pppppppppp55p5588ppgw775j5j5j5jppp88:ppzzjpjppp5ppj",
"zzjjjjjpjppp5ppppppppppppp88d58pjj5g5jj5j5j5ppd885ppjzjppppppppp",
"zzjjjpppjjppppppppppp55p5ppppdppj5j55jjjjj5jzpd8pdppjjjppppppppp",
"jjjjjpppjjjpppppppppp55pdpjjzzzj5jj5jjj5j5jjjjzg5p5pjjjp5ppppppp",
"jjjjjjjjjjjjppp55p5ppppppdzzzzzz5j5jj5j5jjjjjjzgdpppjjjjpp5ppppp",
"ppppjjjjjjjjppp55pppp5p5jjzzzzzjj5j5jjjjjj5jjjjjppp5pjjj5ppppppp",
"ppppjjzzjjjppppppp55pppppzzzzzjjjj5jj5j5jjjjjjjjpppppjjj55pppppp",
"pppjjjjzjjjjjjppppp88558pjjzzzjpppd55ppjppppzzppppp5pjppppp5pppp",
"jpjjjjjjjjjjjjpp8wpp8d5d5jjjzjppppp5pppjppppdpppp5pppjpp5pp5p5p5",
"jjjjjjjjdjdppppppppppppp5jpjjg8pp88dwppjpppppjpp5p5ppjjpppppppp5",
"zjjjjppppppppppppppppppppppjjjdpd5888ppjpppppppppp5ppjjpp55p55pp",
"zjjjjpppppp55p8pppppdpppppwgjwppppp5ppjjw85pppp5p5p5dpjppp5pp5pp",
"jjjjjjjjpppp5d5dppppppppppjwwwppp5ppppjjp8855ppppp5ppdjjppppppp5",
"jjjjjjjjppp5p5d5ppppppppppppjjppp5pppjpppd55pppp585ppjjjppppppp5",
"pppjjjjzpp55p585p9pppppppjjjjgpjppppjjddp5d8ppppp:5pppjjppppp5pp",
"pppjjjjpp5pp88ddpwppppppjjwjpppp5ppppppppppp5ppp85ppjzppjjpppjjj",
"pppjjjjpwpp58888p4pwpppwpwwjpppw5ppppdppp55ppppp8:ppjjdpjjpppjjp",
"pppjjjppgwpwpwwpwjwpgpjjjwgjpppppppppzpppppppppp85ppjjppjppppjpp",
"ppppjjpppjwpgwjwgwpwjjwwgjwwpppgp55pzppppp555pppd55ppjdppppppppp",
"ppppppppwpgpwpgppwgpppjgwjjwjjjw88pppzpppppppppppp5pppppppp5p885",
"ppppppppjwwjjwwjwpwjppwjww5wwjjw58wpzpppd55p5ppp55558ppp5p55p8d5",
"pwppppppwwp5wwp5jgpwppww55wpjpppdppppzppppppppppp5p5ppppp55p5p5p",
"wpppppppgpwjgpwjjwwppppwgwgpjgpwp5ppzppppp55ppppp5p5:ppdp5555p55",
"jjwpwpppwpj5j55gwpjwpgwppwwjpppppppppppp888p5d5p55555ppp5w855555",
"wwpgwpppjwpg5wwwjgwwwwjwwpgwpppppppppppp8pd55pppp55ppp5p8555555d",
"jwjwjjppwgw5wwwjjwppjjppjwwjpppppppppppppppppppp5p5pp5p58585558d",
"jgwpwgppwpjw5g5pjjppppppjjpppppppppppppppppppppppp5pp5pp855dpp5p",
"jwjwgjjppwg5wg5wgpppppppgpppppppppppppppppppppppdp:pppppp5p5pppp",
"pwpgwjppwjjww5pppppppppppppppppppppppppppppppppppppppppjpppppppp",
"jwwjwjppwpw5pw5wppppppppppppppppppppppppppppppppppppppdjpdpppppp",
"jpgwwppjpgjw5gwjppppppppjpppppppppppppppppppppppppppppjjppdppppp",
"pwpwjjgpjwgpw55wppppppppppppppppppppppppppppppppp8wpjzzzzppppppp",
"jwwpwjppwppwjwp5pppppppppppppppppppppppppppppjppjjjpjzzzpppppppp",
"jgwgwppppw5jgw5gppppppppjgppppppppppppppppppjjjjjjjjjzzzzppppzzp",
"jwjwppppgwjwp5wwppppppppjwwpppppppppppppppppjjzzjjjjzzzzzzzpzzpz",
"jwpwwwjjjwgpjww5ppgjppppwgpjppppdpjjjjjjppppppjjjjpjjjjzjjjwppzp",
"jjwpjjpgwppwwg5gpppjppppjwwppppppdjjjjjjppppppppjjppjjjjjjwjpzpp",
"gwwgwppppw5jg5wwwpjwpgwpwpppppppjjjjjjjjppppppppppppgjjjjgwjwppp",
"jpjwppppgwjwjwwwjwwpwwjwwwwpppppjjjjjjjjppppppwpppppjjjjwwwwwppw",
"wwgpjjjjgpgpww5wp959pppp55ppppppgjwjjjjpp9p55999wwwwpppp444:4:4:",
"wjjwwpwjpwwjpw5gp5pppp5dppp5pppp5j55pwpp:5:995594w4ww444:::4:::=",
"jwwgpjpgwgpwp5wwp85ppp85ppp5pppppw5ww5::::::::9544444444%%%%##@.",
"wpwpwppjjwwppp5g95p98p8555p54p:9j5:::::=%==4====##@@###%4@@@o#.@",
"gpgpwpjjjwpgww5w598p58d855555955w:=@@@@@=%%==%=%@#######%###@oo@",
"pwwjjwwjwpwwpw5g895ddd5555555558==      @oo@ooo=.@##.#%%@##%####",
"wgpw5gpwgpwjp5ww5p89p5855555555:4=@.o.oo=%#.$$$$#.....#.....%.#%",
"jwwpjwwppwpwpp5g8955ppd5pp5pp9p44#@@o@@@%%%%%%%%.#%%#.......%%%%",
"j5pwj5pwwjwpwgpw5wwwjg88d885w5wjw44@44444%%%,%,%%%%%%%%#%%%%%%%%",
"wjwpwjwpgwpgjwwpwwjj8jp85d58wwjw44444%4#%%9%,9,,4%4%%%%#%%%%%44%",
"gpwggpwgpwjwwpj54p4ppppp8d88g5ppw44444449444,,994%4%444444%4%44%",
"pwjwpwjwwp5jpgwjpppppppp855g5w5jp444444499%49,,,9944444494949499",
"wgpwjwgpj5pwwgpwpp9pp55p5d55w5w54p:4ww44999999999999999999949999",
"jwwp5jpwwjwpjwwppppppppp555pp5wg454pww44999999999999949999949999",
"wpj5pwwjgpwgwpj5ppp855p5555pww5w54544p5:999999994p99p99pppp4w49p",
"pgwjwpgwpwjwpgwjdp595555pp555wpp::4:w4:499999999544p49p9p9pwwp44"
};
